<?xml version="1.0" encoding="utf-8"?>
<!-- Generator: Adobe Illustrator 26.5.0, SVG Export Plug-In . SVG Version: 6.00 Build 0)  -->
<svg version="1.1" id="Layer_1" xmlns="http://www.w3.org/2000/svg" xmlns:xlink="http://www.w3.org/1999/xlink" x="0px" y="0px"
	 viewBox="0 0 1348.09 220.6" style="enable-background:new 0 0 1348.09 220.6;" xml:space="preserve">
<style type="text/css">
	.st0{fill:none;}
	.st1{fill:#FFFFFF;}
</style>
<g>
	<rect x="23.12" y="22.55" class="st0" width="1301.84" height="175.49"/>
	<path class="st1" d="M434.3,26.9c7.75,3.84,19.6,29.69,35.55,77.54l3.22,3.22h3.22l-3.22,16.21l12.99,51.76v6.45l-6.45,6.45
		c-7.36,0-14.91-18.33-22.66-54.98c-28,4.04-41.99,14.81-41.99,32.32c0,15.1-2.18,22.66-6.54,22.66c-4.88,0-8.11-14-9.67-41.99
		c9.44-54.69,20.21-94.56,32.32-119.63H434.3z M431.07,62.45c-6.45,25.07-9.67,46.62-9.67,64.65l25.88-9.67v-12.99
		C440.77,76.44,435.37,62.45,431.07,62.45z"/>
	<path class="st1" d="M558.12,31.98c13.61,5.8,21.06,11.75,22.36,17.87v8.98L576,81.2c17.9,6.97,26.86,12.92,26.86,17.87v31.35
		c0,22.85-22.36,42.22-67.09,58.11h-26.86c-11.39,0-18.85-29.82-22.36-89.45c4.69-41.73,9.15-62.6,13.38-62.6L558.12,31.98z
		 M504.41,94.58c38.8-17.06,58.2-30.47,58.2-40.23v-4.49C523.81,49.85,504.41,64.76,504.41,94.58z M504.41,125.92v22.36l8.98,17.87
		c53.65-14.91,80.47-34.28,80.47-58.11c-11.91,0-17.87-2.99-17.87-8.98C550.02,99.07,526.16,108.02,504.41,125.92z"/>
	<path class="st1" d="M695.33,35.59c27.28,31.12,40.92,56.87,40.92,77.25v27.34c-23.7,30.27-46.42,45.41-68.16,45.41
		c-27.93,0-44.6-19.69-50-59.08v-13.67C629.09,61.34,654.84,35.59,695.33,35.59z M636.25,153.75l18.16,9.08
		c22.72,0,43.95-13.64,63.67-40.92V94.67l-27.25-36.33C654.45,68.7,636.25,100.5,636.25,153.75z"/>
	<path class="st1" d="M827.95,31.98l6.45,9.77v75l3.61,37.4c-1.04,5.53-4.39,10.29-10.06,14.26l-6.25,1.37l-0.29-10.64
		c-32.29,19.6-52.96,29.39-62.01,29.39h-3.22l-6.54-6.54v-32.62c7.29-71.74,14.91-107.62,22.85-107.62l9.77,9.77l-16.31,94.63
		l3.22,19.53c8.53,0,23.76-8.69,45.7-26.07V87.45C814.86,50.47,819.22,31.98,827.95,31.98z"/>
	<path class="st1" d="M950.12,28.27v11.91c0,6.77-11.95,12.76-35.84,17.97l-12.01,119.53l5.96,23.93l-5.96,5.96h-5.96
		c-11.98,0-17.97-17.94-17.97-53.81l5.96-89.65h-41.8V46.24L950.12,28.27z"/>
</g>
<g>
</g>
<g>
</g>
<g>
</g>
<g>
</g>
<g>
</g>
</svg>
