<?xml version="1.0" encoding="UTF-8"?><svg id="Layer_2" xmlns="http://www.w3.org/2000/svg" viewBox="0 0 383.08 82.91"><defs><style>.cls-1{fill:#fff;}</style></defs><g id="Layer_1-2"><path class="cls-1" d="m78.79,45.66h.16c2.14,2.88,6.1,4.29,11.04,4.29h2.55c10.22,0,17.72-2.64,17.72-14.42v-7.17c0-10.96-4.86-14.84-17.39-14.84h-3.87c-5.52,0-8.57,1.9-9.97,3.87h-.16V0h-7.83v48.87h7.66l.08-3.21Zm0-17.56c0-8.16,5.27-8.32,12.28-8.32h.82c6.92,0,10.63,1.15,10.63,9.07v5.52c0,6.59-1.73,9.48-10.88,9.48h-1.73c-8.74,0-11.04-2.39-11.04-8.98l-.08-6.76Z"/><path class="cls-1" d="m203.49,14.42h-10.3v-3.13c0-3.05,1.98-5.44,6.18-5.44h7.66V0h-10.22c-6.18,0-11.37,3.21-11.37,11.29v3.13h-4.12v6.18h4.12v29.34h7.75v-29.34h10.3v-6.18Z"/><path class="cls-1" d="m158.99,38.65c0,8.08,5.19,11.37,11.37,11.37h9.56v-6.18h-7.66c-4.2,0-5.52-2.14-5.52-5.11v-18.13h10.38v-6.18h-10.38V0h-7.66v14.42h-4.12v6.18h4.12l-.08,18.05Z"/><rect class="cls-1" x="247.67" width="7.66" height="7.83"/><rect class="cls-1" x="247.67" y="13.6" width="7.75" height="36.43"/><path class="cls-1" d="m130.14,50.03h6.92c9.31,0,13.6-2.97,14.67-8.16l-6.84-2.06c-1.15,3.21-3.87,4.04-9.89,4.04h-1.81c-9.89,0-11.46-1.24-11.46-8.98h30.58v-6.76c0-12.2-6.35-14.42-16.48-14.42h-3.79c-7.99,0-17.72,1.4-17.72,13.85v8.57c0,11.95,8.49,13.93,15.82,13.93m-8.41-22.58c0-7.01,3.3-7.66,11.21-7.66h1.57c8.9,0,10.06,2.23,10.06,6.84v1.98h-22.83v-1.15Z"/><path class="cls-1" d="m223.6,13.6h-2.88c-10.47,0-15,3.21-15.25,7.99l7.34,2.47c.33-3.3,4.12-4.29,9.81-4.29,8.49,0,10.55.49,10.55,6.68v3.38h-.16c-1.9-2.64-4.53-3.3-11.21-3.3h-2.97c-9.81,0-15.58,2.47-15.58,10.22v2.23c0,6.43,2.47,11.04,12.69,11.04h7.5c7.42,0,8.16-1.24,9.64-3.38h.08v3.38h7.66v-23.49c0-10.14-6.76-12.94-17.23-12.94m9.56,25.55c0,3.46-2.31,4.7-11.46,4.7h-2.06c-7.75,0-8.74-1.48-8.74-4.45v-1.98c0-3.46,1.9-4.7,8.32-4.7h3.46c5.85,0,10.47,1.15,10.47,4.95v1.48Z"/><path class="cls-1" d="m278.9,13.6c-3.71-.16-7.17,1.73-9.07,4.86h-.25v-4.86h-7.34v36.43h7.75v-21.92c0-4.45,2.55-8.32,8.49-8.32,4.29,0,6.35,1.15,6.76,2.39l4.86-3.3c-1.15-3.3-4.37-5.36-11.21-5.27"/><polygon class="cls-1" points="56.87 .16 36.92 .16 36.92 10.14 26.29 10.14 46.9 34.2 67.5 10.14 56.87 10.14 56.87 .16"/><polygon class="cls-1" points="0 39.73 10.63 39.73 10.63 49.78 30.58 49.78 30.58 39.73 41.29 39.73 20.6 15.66 0 39.73"/><path class="cls-1" d="m70.88,82.5v-21.02h3.13v21.02h-3.13Zm10.96,0l-4.78-8.24h-3.3l-.99-.25.41-2.23v-.49h3.87c.82,0,1.57-.16,2.06-.49s.91-.74,1.07-1.24c.25-.58.33-1.15.33-1.81,0-.82-.16-1.57-.41-2.06s-.66-.82-1.24-1.07-1.24-.33-2.06-.33h-2.88v-.66l-1.24-2.14h3.79c2.47,0,4.29.49,5.52,1.4,1.24.91,1.81,2.47,1.81,4.53,0,.66-.08,1.32-.25,2.06s-.41,1.32-.82,1.9c-.41.58-.91,1.07-1.57,1.57-.66.41-1.48.74-2.39.91l-.33-.41c.41,0,.82,0,1.07.08s.49.16.74.41.49.58.74.99l4.37,7.58h-3.54Z"/><path class="cls-1" d="m93.87,82.91c-1.57,0-2.88-.41-3.96-1.24-1.15-.82-1.98-2.06-2.64-3.71-.58-1.65-.91-3.63-.91-6.02,0-3.46.66-6.18,2.06-7.99,1.4-1.9,3.21-2.8,5.44-2.8s4.12.91,5.52,2.8c1.32,1.9,2.06,4.53,2.06,7.99,0,2.39-.33,4.45-.91,6.02-.58,1.65-1.48,2.88-2.55,3.71-1.24.82-2.55,1.24-4.12,1.24Zm0-2.97c1.32,0,2.39-.58,3.13-1.81.74-1.24,1.07-3.3,1.07-6.18s-.33-4.86-1.07-6.02-1.81-1.81-3.13-1.81-2.39.58-3.13,1.81c-.74,1.15-1.15,3.21-1.15,6.02s.41,4.95,1.15,6.18c.82,1.15,1.81,1.81,3.13,1.81Z"/><path class="cls-1" d="m102.94,82.5l.41-20.93h4.53l1.98,8.32.66,3.54h.08l.66-3.54,1.9-8.32h4.53l.33,20.93h-2.88l-.16-5.93.16-12.45h-.25l-1.07,4.62-2.23,8.41h-2.06l-2.39-8.41-1.07-4.62h-.25l.16,12.45-.16,5.93h-2.88Z"/><path class="cls-1" d="m118.27,82.5l6.76-20.93h4.12l6.68,20.93h-3.38l-1.9-6.26,1.81,1.32h-10.06l1.07-2.72h8.08l-.99,1.4-2.23-7.42-1.24-4.78h-.08l-1.24,4.78-4.12,13.68h-3.3Z"/><path class="cls-1" d="m136.9,82.5v-21.02h3.87l5.27,12.77,1.73,4.45h.08l-.49-4.53v-12.69h3.13v21.02h-3.87l-5.27-12.61-1.65-4.37h-.08l.41,4.7v12.28h-3.13Z"/><path class="cls-1" d="m153.88,82.5v-2.97h4.78v-13.85c0-.33.08-.58.16-.74.16-.16.33-.33.58-.41h-5.52v-2.97h12.77v2.97h-4.78v13.85c0,.33-.08.58-.16.74-.16.25-.33.33-.58.41h5.52v2.97h-12.77Z"/><path class="cls-1" d="m168.05,82.5l6.76-20.93h4.12l6.68,20.93h-3.38l-1.9-6.26,1.81,1.32h-10.06l1.07-2.72h8.08l-.99,1.4-2.23-7.42-1.24-4.78h-.08l-1.24,4.78-4.12,13.68h-3.3Z"/><path class="cls-1" d="m203.33,82.5v-21.02h3.21v21.02h-3.21Zm3.21,0l-.66-2.97h2.8c1.15,0,2.14-.25,2.97-.82.82-.58,1.57-1.4,1.98-2.47.41-1.07.74-2.55.74-4.29s-.25-3.3-.66-4.37c-.41-1.07-1.07-1.81-1.98-2.31-.82-.49-1.9-.66-3.13-.66h-2.97l.74-2.97h1.98c2.88,0,5.19.82,6.76,2.47,1.57,1.65,2.47,4.29,2.47,7.91,0,2.31-.41,4.29-1.24,5.85-.82,1.57-1.9,2.72-3.3,3.54s-2.97,1.24-4.7,1.24h-1.81v-.16Z"/><path class="cls-1" d="m220.14,82.5v-21.02h12.36v2.72h-10.63l1.48-1.32v8.16l-1.48-.99h9.48v2.72h-8.82l.82-1.15v9.64l-1.48-1.65h11.13v2.8h-12.86v.08Z"/><path class="cls-1" d="m240.99,82.5l-5.93-21.02h3.71l3.38,14.09.82,3.87h.25l.91-3.87,3.38-14.09h3.71l-5.85,20.93h-4.37v.08Z"/><path class="cls-1" d="m253.35,82.5v-21.02h12.36v2.72h-10.63l1.48-1.32v8.16l-1.48-.99h9.48v2.72h-8.82l.82-1.15v9.64l-1.48-1.65h11.13v2.8h-12.86v.08Z"/><path class="cls-1" d="m270.09,82.5v-21.02h3.21v19.53l-1.57-1.57h11.21v2.97h-12.86v.08Z"/><path class="cls-1" d="m292.92,82.91c-1.57,0-2.88-.41-3.96-1.24-1.15-.82-1.98-2.06-2.64-3.71-.58-1.65-.91-3.63-.91-6.02,0-3.46.66-6.18,2.06-7.99,1.4-1.9,3.21-2.8,5.44-2.8s4.12.91,5.52,2.8c1.32,1.9,1.98,4.53,1.98,7.99,0,2.39-.33,4.45-.91,6.02-.58,1.65-1.48,2.88-2.55,3.71-1.15.82-2.47,1.24-4.04,1.24Zm0-2.97c1.32,0,2.39-.58,3.13-1.81.74-1.24,1.07-3.3,1.07-6.18s-.33-4.86-1.07-6.02-1.81-1.81-3.13-1.81-2.39.58-3.13,1.81c-.74,1.15-1.15,3.21-1.15,6.02s.41,4.95,1.15,6.18c.82,1.15,1.81,1.81,3.13,1.81Z"/><path class="cls-1" d="m303.05,82.5v-21.02h3.21v21.02h-3.21Zm4.2-7.17c-.25,0-.49-.08-.66-.33-.16-.16-.33-.49-.33-.82l-.99-.99.99-.82h4.2c.82,0,1.57-.16,2.14-.41.58-.33.99-.74,1.32-1.32s.41-1.4.41-2.31c0-.99-.16-1.73-.49-2.31-.33-.58-.82-.91-1.4-1.15s-1.32-.33-2.23-.33h-3.96l-1.24-3.05h5.27c2.39,0,4.29.49,5.52,1.57s1.9,2.8,1.9,5.19c0,.91-.08,1.73-.33,2.55-.25.82-.66,1.57-1.24,2.23-.58.66-1.32,1.24-2.23,1.65-.91.41-2.06.58-3.38.58h-3.3v.08Z"/><path class="cls-1" d="m318.63,82.5l.41-20.93h4.53l1.98,8.32.66,3.54h.08l.66-3.54,1.9-8.32h4.53l.41,20.93h-2.88l-.16-5.93.16-12.45h-.25l-1.07,4.62-2.23,8.41h-2.06l-2.39-8.41-1.07-4.62h-.25l.16,12.45-.16,5.93h-2.97Z"/><path class="cls-1" d="m336.27,82.5v-21.02h12.36v2.72h-10.63l1.48-1.32v8.16l-1.48-.99h9.48v2.72h-8.82l.82-1.15v9.64l-1.48-1.65h11.13v2.8h-12.86v.08Z"/><path class="cls-1" d="m352.5,82.5v-21.02h3.87l5.27,12.69,1.73,4.45h.08l-.49-4.53v-12.61h3.13v21.02h-3.87l-5.19-12.61-1.65-4.37h-.08l.41,4.7v12.28h-3.21Z"/><path class="cls-1" d="m374.26,82.5v-16.9c0-.33.08-.58.16-.74.16-.25.33-.33.58-.41h-6.35v-2.88h14.42v2.8h-5.6v18.13h-3.21Z"/></g></svg>