<?xml version="1.0" encoding="utf-8"?>
<!-- Generator: Adobe Illustrator 26.5.0, SVG Export Plug-In . SVG Version: 6.00 Build 0)  -->
<svg version="1.1" id="Layer_1" xmlns="http://www.w3.org/2000/svg" xmlns:xlink="http://www.w3.org/1999/xlink" x="0px" y="0px"
	 viewBox="0 0 425 255.83" style="enable-background:new 0 0 425 255.83;" xml:space="preserve">
<style type="text/css">
	.st0{fill:#F300E6;}
	.st1{fill:#FFFFFF;}
</style>
<g>
	<g>
		<g>
			<path class="st0" d="M38.49,417.43c0.49,0,1.2,0.86,2.13,2.57l4.27-1.71l2.57,2.55c-0.08,0.69-2.36,1.83-6.84,3.41v1.28h2.14
				c4.89,0,7.45,0.86,7.68,2.57c0,2.71-2.99,5.13-8.96,7.26v4.25l-0.86,0.86h-1.27c-0.86,0-1.28-0.86-1.28-2.57l-2.99,0.86
				c-1.14-0.43-1.71-0.86-1.71-1.28v-1.28l1.28-1.28l1.71,0.44l0.84-1.28v-2.99h-2.99c-1.55,0-2.68-0.57-3.41-1.71v-1.28
				c0.2-0.83,2.47-3.11,6.82-6.84l-0.42-0.42v-0.84C37.38,418.28,37.81,417.43,38.49,417.43z M40.62,430.22v1.71h0.44
				c1.92-0.77,3.2-1.62,3.83-2.55h-0.42L40.62,430.22z"/>
			<path class="st0" d="M63.31,418.83h2.81c1.22,0,1.8,0.91,1.76,2.72c-7.91,0.77-11.73,3.6-11.46,8.49
				c9.97,0,14.96,1.45,14.96,4.34v1.83c-1.42,6.02-4.98,9.04-10.69,9.04L58.25,442c5.86,0.11,9.22-2.22,10.09-6.98l-6.87-0.98h-5.48
				l-2.6-2.6v-5.36C56.81,421.25,60.12,418.83,63.31,418.83z"/>
			<path class="st0" d="M89.17,417.43l1.88,1.88v2.81l0.93,14.1c0.43,5.88-0.5,8.07-2.81,6.57c0.09-3.2-0.18-4.45-0.83-3.76
				c-5.52,4.38-9.32,6.57-11.39,6.57c-1.88-0.39-2.81-2.89-2.81-7.51v-15.98l2.81-2.81l0.95,0.93l-0.95,6.57v8.46l0.95,4.69
				l10.34-5.62l-0.95-9.4v-5.62L89.17,417.43z"/>
			<path class="st0" d="M98.13,418.34l6.36-0.91c5.45,0.61,8.17,1.82,8.17,3.64v4.54c-4.51,7.28-9.36,10.92-14.54,10.92l0.91,9.09
				H96.3l-1.81-12.73v-13.64l0.91-0.9C96.54,417.46,97.45,417.46,98.13,418.34z M98.13,425.6c-0.53,1.63-0.53,3.75,0,6.36h0.91
				c5.5-3.32,8.53-5.74,9.09-7.26v-0.91l-0.91-0.91v-0.9C101.16,423.33,98.13,424.53,98.13,425.6z"/>
			<path class="st0" d="M130.09,416.76l1.86,1.86v1.86c-9.75,2.72-14.54,4.32-14.36,4.8l-0.53,3.57v0.93l11.16-3.73l1.86,1.86v1.86
				l-13.03,3.73v6.77l11.16-3.04l1.86,1.85v1.86l-15.42,4.9l-1.34-1.07l-0.69-2.5l0.69-1.34l-0.3-7.44
				c0.54-10.27,2.01-14.31,4.41-12.13l3.32-0.9L130.09,416.76z"/>
			<path class="st0" d="M144.27,417.43c6.88,0,10.32,1.61,10.32,4.82c0,2.55-2.98,6.45-8.95,11.67v0.7
				c9.62,1.59,14.43,3.88,14.43,6.86c0,1.05-1.14,1.75-3.43,2.07c0-1.04-5.72-3.11-17.17-6.19l1.37,7.56l-0.69,0.69h-0.69
				c-1.51,0-2.66-2.75-3.45-8.24c-0.6-5.04-1.05-10.76-1.37-17.17L144.27,417.43z M138.79,425.67v2.07v0.69v3.43l0.69,0.69
				c2.66-1.07,6.32-4.27,10.99-9.62v-1.37h-1.37C142.22,421.56,138.79,422.93,138.79,425.67z"/>
			<path class="st0" d="M163.58,418.34l6.36-0.91c5.45,0.61,8.17,1.82,8.17,3.64v4.54c-4.51,7.28-9.36,10.92-14.54,10.92l0.91,9.09
				h-2.74l-1.81-12.73v-13.64l0.91-0.9C161.99,417.46,162.9,417.46,163.58,418.34z M163.58,425.6c-0.53,1.63-0.53,3.75,0,6.36h0.91
				c5.5-3.32,8.53-5.74,9.09-7.26v-0.91l-0.91-0.91v-0.9C166.6,423.33,163.58,424.53,163.58,425.6z"/>
			<path class="st0" d="M191.09,419.13h3.45c3.46,2.66,5.19,6.97,5.19,12.94c-3.63,8.06-9.96,12.09-18.98,12.09
				c-2.88-2.98-4.32-5.57-4.32-7.77v-0.86C180.52,424.6,185.41,419.13,191.09,419.13z M178.99,438.12l2.6,1.72h0.86
				c5.51,0,10.11-2.59,13.82-7.77v-3.45c0-4.03-1.73-6.05-5.19-6.05C184.86,425.59,180.83,430.77,178.99,438.12z"/>
			<path class="st0" d="M224.98,417.43l0.97,0.98h0.97l-4.85,22.34h-0.97l-8.75-11.67c-0.64,11.02-1.94,16.52-3.88,16.52
				c-2.59-2.43-5.5-10.85-8.74-25.26l0.97-0.97h0.98c1.93,0,3.55,5.18,4.85,15.54c1.29,0,2.58-4.86,3.88-14.57h1.93l5.84,10.69h1.95
				C221.41,421.96,223.03,417.43,224.98,417.43z"/>
			<path class="st0" d="M242.69,416.76l1.86,1.86v1.86c-9.75,2.72-14.54,4.32-14.36,4.8l-0.53,3.57v0.93l11.16-3.73l1.86,1.86v1.86
				l-13.03,3.73v6.77l11.16-3.04l1.86,1.85v1.86l-15.42,4.9l-1.34-1.07l-0.69-2.5l0.69-1.34l-0.3-7.44
				c0.54-10.27,2.01-14.31,4.41-12.13l3.32-0.9L242.69,416.76z"/>
			<path class="st0" d="M256.88,417.43c6.88,0,10.32,1.61,10.32,4.82c0,2.55-2.98,6.45-8.95,11.67v0.7
				c9.62,1.59,14.43,3.88,14.43,6.86c0,1.05-1.14,1.75-3.43,2.07c0-1.04-5.72-3.11-17.17-6.19l1.37,7.56l-0.69,0.69h-0.69
				c-1.51,0-2.66-2.75-3.45-8.24c-0.6-5.04-1.05-10.76-1.37-17.17L256.88,417.43z M251.4,425.67v2.07v0.69v3.43l0.69,0.69
				c2.66-1.07,6.32-4.27,10.99-9.62v-1.37h-1.37C254.83,421.56,251.4,422.93,251.4,425.67z"/>
		</g>
	</g>
	<g>
		<path d="M80.7,367.05l1.34,2c-3.05,1.69-8.41,3.03-16.1,4.03v4.71l0.67,0.67v0.67l12.74-2.69l0.69,0.67v0.69
			c-0.76,1.93-5.24,3.72-13.43,5.36l1.35,5.36v5.38l-1.35,1.34c-0.89,0-2.01-4.03-3.36-12.08l-1.34-1.34v-1.35l1.34-2l-0.67-2.69
			l0.67-0.67v-0.67l-0.67-4.03L80.7,367.05z"/>
		<path d="M95.74,367.05h0.54l1.11,1.11v0.54c0,1.02-1.84,1.94-5.52,2.76l-0.56,2.78l0.56,3.87v8.84l1.09,1.09
			c0-0.63,2.03-1.73,6.08-3.3l1.11,1.65v0.56c-3.55,3.42-8.34,6.18-14.36,8.28h-0.56l-1.65-1.65v-0.56c0.79-1.17,2.62-2.27,5.52-3.3
			l-0.54-11.06v-0.54l0.54-5.54h-0.54l-6.63,1.67l-1.11-1.67v-0.54C80.82,370.13,85.79,368.47,95.74,367.05z"/>
		<path d="M116.08,366.9h0.47c0.62,0,0.93,0.46,0.93,1.39l-0.93,13.46l0.93,8.35v0.47l-0.93,0.93l-10.69-14.4h-0.93v5.12
			c0,3.79,0.47,7.19,1.41,10.21v1.85l-0.93,0.93c-2.17-1.05-3.25-5.08-3.25-12.08v-11.13c0-1.66,0.62-2.75,1.86-3.25
			c0.77,2.7,4.02,7.49,9.74,14.38v-0.91C114.19,372.01,114.97,366.9,116.08,366.9z"/>
		<path d="M131.04,367.05c8.05,0.57,12.08,3.04,12.08,7.38c-1.99,5.91-7.58,12.84-16.77,20.79h-1.35
			c-2.68-3.39-4.03-10.77-4.03-22.15l-0.67-2C120.3,368.39,123.88,367.05,131.04,367.05z M124.32,373.76
			c0.59,10.28,1.71,15.42,3.36,15.42c7.61-9.07,11.41-14.44,11.41-16.1l-8.05-2.67h-4.03C126.09,370.6,125.19,371.72,124.32,373.76z
			"/>
		<path d="M159.59,367.05h0.54c0.71,0,1.07,0.54,1.07,1.62c-2.17,3.62-4.15,7.96-5.96,13.01h1.09c1.79,0,6.49-4.69,14.08-14.08
			l1.09,1.07v2.18c-4.7,5.47-7.05,11.79-7.05,18.97c0,3.61-0.54,5.41-1.62,5.41l-1.09-2.71l0.54-3.8v-5.41h-0.54
			c-3.5,2.53-6.03,3.8-7.58,3.8l-1.09-3.25C153.08,377.29,155.25,371.69,159.59,367.05z"/>
		<path d="M183.46,367.7c4.91,5.6,7.37,10.24,7.37,13.9v4.92c-4.27,5.45-8.36,8.17-12.27,8.17c-5.03,0-8.03-3.54-9-10.63v-2.46
			C171.53,372.33,176.17,367.7,183.46,367.7z M172.82,388.97l3.27,1.63c4.09,0,7.91-2.46,11.46-7.37v-4.9l-4.9-6.54
			C176.1,373.65,172.82,379.38,172.82,388.97z"/>
		<path d="M207.33,367.05l1.16,1.76v13.5l0.65,6.73c-0.19,1-0.79,1.85-1.81,2.57l-1.12,0.25l-0.05-1.92
			c-5.81,3.53-9.53,5.29-11.16,5.29h-0.58l-1.18-1.18v-5.87c1.31-12.91,2.68-19.37,4.11-19.37l1.76,1.76l-2.94,17.03l0.58,3.52
			c1.54,0,4.28-1.56,8.23-4.69v-9.39C204.97,370.37,205.76,367.05,207.33,367.05z"/>
		<path d="M224.17,368.49h1.53l3.83,3.81l-0.77,0.77l0.77,0.76v0.76c0,1.93-3.06,4.99-9.19,9.18v0.76
			c8.17,3.22,12.25,6.03,12.25,8.42l-2.3,0.76c-5.93-3.56-10.52-5.34-13.78-5.34l1.53,6.12l-0.76,0.76h-0.77
			c-2.12,0-3.65-5.09-4.59-15.28c0-6.62,2.3-9.93,6.89-9.93C218.81,369.15,220.59,368.64,224.17,368.49z M215.75,381.48h0.76
			c4.23-2,7.29-4.55,9.19-7.65v-1.53h-0.77c-6.12,0-9.18,1.78-9.18,5.34V381.48z"/>
	</g>
	<g>
		<path d="M36.53,415.2c0.49,0,1.2,0.86,2.13,2.57l4.27-1.71l2.57,2.55c-0.08,0.69-2.36,1.83-6.84,3.41v1.28h2.14
			c4.89,0,7.45,0.86,7.68,2.57c0,2.71-2.99,5.13-8.96,7.26v4.25l-0.86,0.86h-1.27c-0.86,0-1.28-0.86-1.28-2.57l-2.99,0.86
			c-1.14-0.43-1.71-0.86-1.71-1.28v-1.28l1.28-1.28l1.71,0.44l0.84-1.28v-2.99h-2.99c-1.55,0-2.68-0.57-3.41-1.71v-1.28
			c0.2-0.83,2.47-3.11,6.82-6.84l-0.42-0.42v-0.84C35.42,416.06,35.85,415.2,36.53,415.2z M38.66,428v1.71h0.44
			c1.92-0.77,3.2-1.62,3.83-2.55h-0.42L38.66,428z"/>
		<path d="M61.35,416.61h2.81c1.22,0,1.8,0.91,1.76,2.72c-7.91,0.77-11.73,3.6-11.46,8.49c9.97,0,14.96,1.45,14.96,4.34v1.83
			c-1.42,6.02-4.98,9.04-10.69,9.04l-2.44-3.25c5.86,0.11,9.22-2.22,10.09-6.98l-6.87-0.98h-5.48l-2.6-2.6v-5.36
			C54.85,419.02,58.17,416.61,61.35,416.61z"/>
		<path d="M87.21,415.2l1.88,1.88v2.81l0.93,14.1c0.43,5.88-0.5,8.07-2.81,6.57c0.09-3.2-0.18-4.45-0.83-3.76
			c-5.52,4.38-9.32,6.57-11.39,6.57c-1.88-0.39-2.81-2.89-2.81-7.51V419.9l2.81-2.81l0.95,0.93l-0.95,6.57v8.46l0.95,4.69
			l10.34-5.62l-0.95-9.4v-5.62L87.21,415.2z"/>
		<path d="M96.17,416.12l6.36-0.91c5.45,0.61,8.17,1.82,8.17,3.64v4.54c-4.51,7.28-9.36,10.92-14.54,10.92l0.91,9.09h-2.74
			l-1.81-12.73v-13.64l0.91-0.9C94.59,415.24,95.5,415.24,96.17,416.12z M96.17,423.38c-0.53,1.63-0.53,3.75,0,6.36h0.91
			c5.5-3.32,8.53-5.74,9.09-7.26v-0.91l-0.91-0.91v-0.9C99.2,421.1,96.17,422.31,96.17,423.38z"/>
		<path d="M128.13,414.54l1.86,1.86v1.86c-9.75,2.72-14.54,4.32-14.36,4.8l-0.53,3.57v0.93l11.16-3.73l1.86,1.86v1.86l-13.03,3.73
			v6.77l11.16-3.04l1.86,1.85v1.86l-15.42,4.9l-1.34-1.07l-0.69-2.5l0.69-1.34l-0.3-7.44c0.54-10.27,2.01-14.31,4.41-12.13l3.32-0.9
			L128.13,414.54z"/>
		<path d="M142.32,415.2c6.88,0,10.32,1.61,10.32,4.82c0,2.55-2.98,6.45-8.95,11.67v0.7c9.62,1.59,14.43,3.88,14.43,6.86
			c0,1.05-1.14,1.75-3.43,2.07c0-1.04-5.72-3.11-17.17-6.19l1.37,7.56l-0.69,0.69h-0.69c-1.51,0-2.66-2.75-3.45-8.24
			c-0.6-5.04-1.05-10.76-1.37-17.17L142.32,415.2z M136.83,423.45v2.07v0.69v3.43l0.69,0.69c2.66-1.07,6.32-4.27,10.99-9.62v-1.37
			h-1.37C140.27,419.33,136.83,420.7,136.83,423.45z"/>
		<path d="M161.62,416.12l6.36-0.91c5.45,0.61,8.17,1.82,8.17,3.64v4.54c-4.51,7.28-9.36,10.92-14.54,10.92l0.91,9.09h-2.74
			l-1.81-12.73v-13.64l0.91-0.9C160.03,415.24,160.94,415.24,161.62,416.12z M161.62,423.38c-0.53,1.63-0.53,3.75,0,6.36h0.91
			c5.5-3.32,8.53-5.74,9.09-7.26v-0.91l-0.91-0.91v-0.9C164.65,421.1,161.62,422.31,161.62,423.38z"/>
		<path d="M189.13,416.91h3.45c3.46,2.66,5.19,6.97,5.19,12.94c-3.63,8.06-9.96,12.09-18.98,12.09c-2.88-2.98-4.32-5.57-4.32-7.77
			v-0.86C178.56,422.37,183.46,416.91,189.13,416.91z M177.03,435.89l2.6,1.72h0.86c5.51,0,10.11-2.59,13.82-7.77v-3.45
			c0-4.03-1.73-6.05-5.19-6.05C182.91,423.37,178.87,428.54,177.03,435.89z"/>
		<path d="M223.02,415.2l0.97,0.98h0.97l-4.85,22.34h-0.97l-8.75-11.67c-0.64,11.02-1.94,16.52-3.88,16.52
			c-2.59-2.43-5.5-10.85-8.74-25.26l0.97-0.97h0.98c1.93,0,3.55,5.18,4.85,15.54c1.29,0,2.58-4.86,3.88-14.57h1.93l5.84,10.69h1.95
			C219.46,419.74,221.07,415.2,223.02,415.2z"/>
		<path d="M240.74,414.54l1.86,1.86v1.86c-9.75,2.72-14.54,4.32-14.36,4.8l-0.53,3.57v0.93l11.16-3.73l1.86,1.86v1.86l-13.03,3.73
			v6.77l11.16-3.04l1.86,1.85v1.86l-15.42,4.9l-1.34-1.07l-0.69-2.5l0.69-1.34l-0.3-7.44c0.54-10.27,2.01-14.31,4.41-12.13l3.32-0.9
			L240.74,414.54z"/>
		<path d="M254.92,415.2c6.88,0,10.32,1.61,10.32,4.82c0,2.55-2.98,6.45-8.95,11.67v0.7c9.62,1.59,14.43,3.88,14.43,6.86
			c0,1.05-1.14,1.75-3.43,2.07c0-1.04-5.72-3.11-17.17-6.19l1.37,7.56l-0.69,0.69h-0.69c-1.51,0-2.66-2.75-3.45-8.24
			c-0.6-5.04-1.05-10.76-1.37-17.17L254.92,415.2z M249.44,423.45v2.07v0.69v3.43l0.69,0.69c2.66-1.07,6.32-4.27,10.99-9.62v-1.37
			h-1.37C252.87,419.33,249.44,420.7,249.44,423.45z"/>
	</g>
	<g>
		<path d="M-22.06,464.28c1.39,0.69,3.53,5.34,6.4,13.96l0.58,0.58h0.58l-0.58,2.92l2.34,9.32v1.16l-1.16,1.16
			c-1.32,0-2.68-3.3-4.08-9.9c-5.04,0.73-7.56,2.67-7.56,5.82c0,2.72-0.39,4.08-1.18,4.08c-0.88,0-1.46-2.52-1.74-7.56
			c1.7-9.84,3.64-17.02,5.82-21.53H-22.06z M-22.64,470.68c-1.16,4.51-1.74,8.39-1.74,11.64l4.66-1.74v-2.34
			C-20.9,473.2-21.87,470.68-22.64,470.68z"/>
		<path d="M1.26,465.06h0.47c0.62,0,0.93,0.46,0.93,1.39l-0.93,13.46l0.93,8.35v0.47l-0.93,0.93l-10.69-14.4h-0.93v5.12
			c0,3.79,0.47,7.19,1.41,10.21v1.85l-0.93,0.93c-2.17-1.05-3.25-5.08-3.25-12.08v-11.13c0-1.66,0.62-2.75,1.86-3.25
			c0.77,2.7,4.02,7.49,9.74,14.38v-0.91C-0.62,470.16,0.15,465.06,1.26,465.06z"/>
		<path d="M16.22,465.2c8.05,0.57,12.08,3.04,12.08,7.38c-1.99,5.91-7.58,12.84-16.77,20.79h-1.35c-2.68-3.39-4.03-10.77-4.03-22.15
			l-0.67-2C5.48,466.54,9.06,465.2,16.22,465.2z M9.51,471.91c0.59,10.28,1.71,15.42,3.36,15.42c7.61-9.07,11.41-14.44,11.41-16.1
			l-8.05-2.67H12.2C11.27,468.75,10.38,469.87,9.51,471.91z"/>
		<path d="M51.15,465.2c2.45,1.04,3.79,2.12,4.03,3.22v1.62l-0.81,4.03c3.22,1.25,4.83,2.33,4.83,3.22v5.64
			c0,4.11-4.03,7.6-12.08,10.46h-4.83c-2.05,0-3.39-5.37-4.03-16.1c0.84-7.51,1.65-11.27,2.41-11.27L51.15,465.2z M41.48,476.46
			c6.98-3.07,10.48-5.48,10.48-7.24v-0.81C44.98,468.41,41.48,471.1,41.48,476.46z M41.48,482.11v4.03l1.62,3.22
			c9.66-2.68,14.48-6.17,14.48-10.46c-2.14,0-3.22-0.54-3.22-1.62C49.69,477.27,45.4,478.88,41.48,482.11z"/>
		<path d="M79.79,466.02l0.6,0.6v0.6c0,1.15-4.96,2.93-14.87,5.34l-0.6,4.17v0.6c5.27-1.59,9.63-2.39,13.08-2.39l0.6,0.6v1.2
			c0,1.49-4.36,2.88-13.08,4.17v6.54l0.6,1.18l13.08-4.75l1.2,1.78c-5.84,5.16-11.19,7.73-16.07,7.73
			c-1.18-4.36-1.97-9.71-2.37-16.05l1.2-5.96l-0.6-1.78C65.57,467.21,71.31,466.02,79.79,466.02z"/>
		<path d="M110,464.53v2.14c0,1.22-2.15,2.3-6.45,3.23l-2.16,21.52l1.07,4.31l-1.07,1.07h-1.07c-2.16,0-3.23-3.23-3.23-9.69
			l1.07-16.14h-7.52v-3.22L110,464.53z"/>
		<path d="M114.05,465.23l1.41,2.11v1.41c0,5.47,0.47,9.22,1.41,11.25l11.27-3.52v-2.11l0.7-4.22l-0.7-0.7v-0.7l2.11-2.81l1.41,1.41
			v7.03l3.52,3.52l-2.81,2.11l0.7,11.27l-0.7,0.7h-0.7c-1.56,0-2.5-3.76-2.81-11.27V480c-2.13,0-6.12,1.18-11.97,3.53v0.7l1.41,7.73
			v1.41h-1.41c-2.51,0-3.91-9.15-4.22-27.44l0.7-0.7H114.05z"/>
		<path d="M155.23,466.02l0.6,0.6v0.6c0,1.15-4.96,2.93-14.87,5.34l-0.6,4.17v0.6c5.27-1.59,9.63-2.39,13.08-2.39l0.6,0.6v1.2
			c0,1.49-4.36,2.88-13.08,4.17v6.54l0.6,1.18l13.08-4.75l1.2,1.78c-5.84,5.16-11.19,7.73-16.07,7.73
			c-1.18-4.36-1.97-9.71-2.37-16.05l1.2-5.96l-0.6-1.78C141.01,467.21,146.76,466.02,155.23,466.02z"/>
		<path d="M167.36,465.23l1.41,2.11v1.41c0,5.47,0.47,9.22,1.41,11.25l11.27-3.52v-2.11l0.7-4.22l-0.7-0.7v-0.7l2.11-2.81l1.41,1.41
			v7.03l3.52,3.52l-2.81,2.11l0.7,11.27l-0.7,0.7h-0.7c-1.56,0-2.5-3.76-2.81-11.27V480c-2.13,0-6.12,1.18-11.97,3.53v0.7l1.41,7.73
			v1.41h-1.41c-2.51,0-3.91-9.15-4.22-27.44l0.7-0.7H167.36z"/>
		<path d="M208.55,466.02l0.6,0.6v0.6c0,1.15-4.96,2.93-14.87,5.34l-0.6,4.17v0.6c5.27-1.59,9.63-2.39,13.08-2.39l0.6,0.6v1.2
			c0,1.49-4.36,2.88-13.08,4.17v6.54l0.6,1.18l13.08-4.75l1.2,1.78c-5.84,5.16-11.19,7.73-16.07,7.73
			c-1.18-4.36-1.97-9.71-2.37-16.05l1.2-5.96l-0.6-1.78C194.33,467.21,200.07,466.02,208.55,466.02z"/>
		<path d="M221.52,466.64h1.53l3.83,3.81l-0.77,0.77l0.77,0.76v0.76c0,1.93-3.06,4.99-9.19,9.18v0.76
			c8.17,3.22,12.25,6.03,12.25,8.42l-2.3,0.76c-5.93-3.56-10.52-5.34-13.78-5.34l1.53,6.12l-0.76,0.76h-0.77
			c-2.12,0-3.65-5.09-4.59-15.28c0-6.62,2.3-9.93,6.89-9.93C216.16,467.3,217.94,466.79,221.52,466.64z M213.1,479.63h0.76
			c4.23-2,7.29-4.55,9.19-7.65v-1.53h-0.77c-6.12,0-9.18,1.78-9.18,5.34V479.63z"/>
		<path d="M243.98,465.85c4.91,5.6,7.37,10.24,7.37,13.9v4.92c-4.27,5.45-8.36,8.17-12.27,8.17c-5.03,0-8.03-3.54-9-10.63v-2.46
			C232.06,470.48,236.69,465.85,243.98,465.85z M233.35,487.12l3.27,1.63c4.09,0,7.91-2.46,11.46-7.37v-4.9l-4.9-6.54
			C236.62,471.81,233.35,477.53,233.35,487.12z"/>
		<path d="M280.9,464.53v2.14c0,1.22-2.15,2.3-6.45,3.23l-2.16,21.52l1.07,4.31l-1.07,1.07h-1.07c-2.16,0-3.23-3.23-3.23-9.69
			l1.07-16.14h-7.52v-3.22L280.9,464.53z"/>
		<path d="M284.94,465.23l1.41,2.11v1.41c0,5.47,0.47,9.22,1.41,11.25l11.27-3.52v-2.11l0.7-4.22l-0.7-0.7v-0.7l2.11-2.81l1.41,1.41
			v7.03l3.52,3.52l-2.81,2.11l0.7,11.27l-0.7,0.7h-0.7c-1.56,0-2.5-3.76-2.81-11.27V480c-2.13,0-6.12,1.18-11.97,3.53v0.7l1.41,7.73
			v1.41h-1.41c-2.51,0-3.91-9.15-4.22-27.44l0.7-0.7H284.94z"/>
		<path d="M312.73,464.28c1.39,0.69,3.53,5.34,6.4,13.96l0.58,0.58h0.58l-0.58,2.92l2.34,9.32v1.16l-1.16,1.16
			c-1.32,0-2.68-3.3-4.08-9.9c-5.04,0.73-7.56,2.67-7.56,5.82c0,2.72-0.39,4.08-1.18,4.08c-0.88,0-1.46-2.52-1.74-7.56
			c1.7-9.84,3.64-17.02,5.82-21.53H312.73z M312.15,470.68c-1.16,4.51-1.74,8.39-1.74,11.64l4.66-1.74v-2.34
			C313.9,473.2,312.92,470.68,312.15,470.68z"/>
		<path d="M338.85,464.53v2.14c0,1.22-2.15,2.3-6.45,3.23l-2.16,21.52l1.07,4.31l-1.07,1.07h-1.07c-2.16,0-3.23-3.23-3.23-9.69
			l1.07-16.14h-7.52v-3.22L338.85,464.53z"/>
	</g>
	<g>
		<path d="M-10.46,516c6.88,0,10.32,1.61,10.32,4.82c0,2.55-2.98,6.45-8.95,11.67v0.7c9.62,1.59,14.43,3.88,14.43,6.86
			c0,1.05-1.14,1.75-3.43,2.07c0-1.04-5.72-3.11-17.17-6.19l1.37,7.56l-0.69,0.69h-0.69c-1.51,0-2.66-2.75-3.45-8.24
			c-0.6-5.04-1.05-10.76-1.37-17.17L-10.46,516z M-15.94,524.25v2.07v0.69v3.43l0.69,0.69c2.66-1.07,6.32-4.27,10.99-9.62v-1.37
			h-1.37C-12.51,520.13-15.94,521.51-15.94,524.25z"/>
		<path d="M22.62,515.34l1.86,1.86v1.86c-9.75,2.72-14.54,4.32-14.36,4.8l-0.53,3.57v0.93l11.16-3.73l1.86,1.86v1.86L9.6,532.09
			v6.77l11.16-3.04l1.86,1.85v1.86l-15.42,4.9l-1.34-1.07l-0.69-2.5l0.69-1.34l-0.3-7.44c0.54-10.27,2.01-14.31,4.41-12.13l3.32-0.9
			L22.62,515.34z"/>
		<path d="M33.43,516c2.03,0,3.55,4.57,4.57,13.71l0.76,2.29c1.52,0,2.29,0.5,2.29,1.51l-0.77,0.77v0.76
			c1.52,2.6,2.29,5.14,2.29,7.61v1.53h-1.51c-1.25,0-2.53-2.79-3.81-8.38h-6.86c-1.52,0.33-2.29,2.36-2.29,6.1l-2.29,1.53
			l-0.76-0.77v-0.76l6.86-22.85C31.9,517.02,32.41,516,33.43,516z M32.66,525.14l-2.29,7.61h3.81l0.76-0.76h0.77
			C34.58,527.43,33.56,525.14,32.66,525.14z"/>
		<path d="M59.1,519.07c6.35-1.97,10.05-2.47,11.11-1.49s1.73,2.18,2.04,3.61v1.04l-2.07,2.07c-1.21-2.61-3.98-3.3-8.31-2.07
			c-8.31,4.01-12.46,8.16-12.46,12.46c0,2.78,1.39,4.51,4.17,5.2c12.04-1.82,18.61-3.55,19.72-5.2h1.04l2.09,2.07
			c0,3.4-7.27,5.82-21.81,7.28c-7.12-0.57-10.28-4.29-9.47-11.16C48.09,525.65,52.75,521.05,59.1,519.07z"/>
		<path d="M93.29,516.13l1.95,1.95v4.57l-0.65,2.62l0.65,0.65v0.65l-0.65,6.52l1.3,10.44l-0.65,0.65h-0.65
			c-1.37-0.94-2.68-5.29-3.92-13.04h-0.65c-4.82,1.69-7.42,2.99-7.82,3.9v2.62l1.3,1.95c0,2.26-0.65,3.57-1.95,3.92
			c-1.49,0-2.58-4.35-3.27-13.04l0.65-12.41l1.95-1.3c0.88,0,1.32,0.65,1.32,1.95l-0.65,6.54l0.65,0.65v0.65l-0.65,2.6l0.65,0.65
			c6.08-1.44,9.12-2.53,9.12-3.25C91.32,519.61,91.98,516.13,93.29,516.13z"/>
		<path d="M116.05,515.34l1.86,1.86v1.86c-9.75,2.72-14.54,4.32-14.36,4.8l-0.53,3.57v0.93l11.16-3.73l1.86,1.86v1.86l-13.03,3.73
			v6.77l11.16-3.04l1.86,1.85v1.86l-15.42,4.9l-1.34-1.07l-0.69-2.5l0.69-1.34l-0.3-7.44c0.54-10.27,2.01-14.31,4.41-12.13l3.32-0.9
			L116.05,515.34z"/>
		<path d="M128.09,517.41h2.81c1.22,0,1.8,0.91,1.76,2.72c-7.91,0.77-11.73,3.6-11.46,8.49c9.97,0,14.96,1.45,14.96,4.34v1.83
			c-1.42,6.02-4.98,9.04-10.69,9.04l-2.44-3.25c5.86,0.11,9.22-2.22,10.09-6.98l-6.87-0.98h-5.48l-2.6-2.6v-5.36
			C121.59,519.82,124.9,517.41,128.09,517.41z"/>
		<path d="M167.85,515.81l2.27,2.27c-2.44,1.82-5.84,2.95-10.21,3.41v6.8l1.12,12.48l-1.12,3.41h-2.27l-2.27-20.43v-1.14l-7.95,1.14
			l-1.14-1.14v-1.12C146.29,518.92,153.48,517.03,167.85,515.81z"/>
		<path d="M187.19,516.13l1.95,1.95v4.57l-0.65,2.62l0.65,0.65v0.65l-0.65,6.52l1.3,10.44l-0.65,0.65h-0.65
			c-1.37-0.94-2.68-5.29-3.92-13.04h-0.65c-4.82,1.69-7.42,2.99-7.82,3.9v2.62l1.3,1.95c0,2.26-0.65,3.57-1.95,3.92
			c-1.49,0-2.58-4.35-3.27-13.04l0.65-12.41l1.95-1.3c0.88,0,1.32,0.65,1.32,1.95l-0.65,6.54l0.65,0.65v0.65l-0.65,2.6l0.65,0.65
			c6.08-1.44,9.12-2.53,9.12-3.25C185.22,519.61,185.88,516.13,187.19,516.13z"/>
		<path d="M209.95,515.34l1.86,1.86v1.86c-9.75,2.72-14.54,4.32-14.36,4.8l-0.53,3.57v0.93l11.16-3.73l1.86,1.86v1.86l-13.03,3.73
			v6.77l11.16-3.04l1.86,1.85v1.86l-15.42,4.9l-1.34-1.07l-0.69-2.5l0.69-1.34l-0.3-7.44c0.54-10.27,2.01-14.31,4.41-12.13l3.32-0.9
			L209.95,515.34z"/>
		<path d="M228.17,516.92l6.36-0.91c5.45,0.61,8.17,1.82,8.17,3.64v4.54c-4.51,7.28-9.36,10.92-14.54,10.92l0.91,9.09h-2.74
			l-1.81-12.73v-13.64l0.91-0.9C226.58,516.04,227.49,516.04,228.17,516.92z M228.17,524.18c-0.53,1.63-0.53,3.75,0,6.36h0.91
			c5.5-3.32,8.53-5.74,9.09-7.26v-0.91l-0.91-0.91v-0.9C231.19,521.9,228.17,523.11,228.17,524.18z"/>
		<path d="M255.04,516c6.88,0,10.32,1.61,10.32,4.82c0,2.55-2.98,6.45-8.95,11.67v0.7c9.62,1.59,14.43,3.88,14.43,6.86
			c0,1.05-1.14,1.75-3.43,2.07c0-1.04-5.72-3.11-17.17-6.19l1.37,7.56l-0.69,0.69h-0.69c-1.51,0-2.66-2.75-3.45-8.24
			c-0.6-5.04-1.05-10.76-1.37-17.17L255.04,516z M249.56,524.25v2.07v0.69v3.43l0.69,0.69c2.66-1.07,6.32-4.27,10.99-9.62v-1.37
			h-1.37C252.99,520.13,249.56,521.51,249.56,524.25z"/>
		<path d="M275.42,518.59l1.88,2.2l-0.79,10.88l0.56,11l-1.46,1.27c-2.13-2.05-3.07-4.86-2.81-8.42l1.14-15.66L275.42,518.59z"/>
		<path d="M300.31,518.38l0.53,0.53v2.64c-0.35,1.05-2.98,3.86-7.89,8.42c0,1.16-1.76,3.09-5.27,5.8v0.53h1.05
			c2.7-0.09,6.38-1.68,11.06-4.75l1.05,1.58v1.05c-1.18,2.06-3.46,3.81-6.84,5.26c0,0.56-3.33,1.62-10,3.16l-1.05-1.58v-0.53
			c0-3.68,2.59-8.11,7.77-13.29l1.18-2.5h-2.64l-8.95,2.62c-0.8,0-1.32-0.87-1.58-2.62C283.68,520.49,290.87,518.38,300.31,518.38z"
			/>
		<path d="M320.92,515.34l1.86,1.86v1.86c-9.75,2.72-14.54,4.32-14.36,4.8l-0.53,3.57v0.93l11.16-3.73l1.86,1.86v1.86l-13.03,3.73
			v6.77l11.16-3.04l1.86,1.85v1.86l-15.42,4.9l-1.34-1.07l-0.69-2.5l0.69-1.34l-0.3-7.44c0.54-10.27,2.01-14.31,4.41-12.13l3.32-0.9
			L320.92,515.34z"/>
	</g>
	<g>
		<path class="st1" d="M78.58,364.13l1.34,2c-3.05,1.69-8.41,3.03-16.1,4.03v4.71l0.67,0.67v0.67l12.74-2.69l0.69,0.67v0.69
			c-0.76,1.93-5.24,3.72-13.43,5.36l1.35,5.36v5.38l-1.35,1.34c-0.89,0-2.01-4.03-3.36-12.08l-1.34-1.34v-1.35l1.34-2l-0.67-2.69
			l0.67-0.67v-0.67l-0.67-4.03L78.58,364.13z"/>
		<path class="st1" d="M93.63,364.13h0.54l1.11,1.11v0.54c0,1.02-1.84,1.94-5.52,2.76l-0.56,2.78l0.56,3.87v8.84l1.09,1.09
			c0-0.63,2.03-1.73,6.08-3.3l1.11,1.65v0.56c-3.55,3.42-8.34,6.18-14.36,8.28h-0.56l-1.65-1.65v-0.56c0.79-1.17,2.62-2.27,5.52-3.3
			l-0.54-11.06v-0.54l0.54-5.54h-0.54l-6.63,1.67l-1.11-1.67v-0.54C78.71,367.22,83.68,365.56,93.63,364.13z"/>
		<path class="st1" d="M113.97,363.99h0.47c0.62,0,0.93,0.46,0.93,1.39l-0.93,13.46l0.93,8.35v0.47l-0.93,0.93l-10.69-14.4h-0.93
			v5.12c0,3.79,0.47,7.19,1.41,10.21v1.85l-0.93,0.93c-2.17-1.05-3.25-5.08-3.25-12.08V369.1c0-1.66,0.62-2.75,1.86-3.25
			c0.77,2.7,4.02,7.49,9.74,14.38v-0.91C112.08,369.1,112.85,363.99,113.97,363.99z"/>
		<path class="st1" d="M128.93,364.13c8.05,0.57,12.08,3.04,12.08,7.38c-1.99,5.91-7.58,12.84-16.77,20.79h-1.35
			c-2.68-3.39-4.03-10.77-4.03-22.15l-0.67-2C118.19,365.47,121.77,364.13,128.93,364.13z M122.21,370.84
			c0.59,10.28,1.71,15.42,3.36,15.42c7.61-9.07,11.41-14.44,11.41-16.1l-8.05-2.67h-4.03C123.98,367.68,123.08,368.8,122.21,370.84z
			"/>
		<path class="st1" d="M157.47,364.13h0.54c0.71,0,1.07,0.54,1.07,1.62c-2.17,3.62-4.15,7.96-5.96,13.01h1.09
			c1.79,0,6.49-4.69,14.08-14.08l1.09,1.07v2.18c-4.7,5.47-7.05,11.79-7.05,18.97c0,3.61-0.54,5.41-1.62,5.41l-1.09-2.71l0.54-3.8
			v-5.41h-0.54c-3.5,2.53-6.03,3.8-7.58,3.8l-1.09-3.25C150.97,374.37,153.14,368.77,157.47,364.13z"/>
		<path class="st1" d="M181.34,364.78c4.91,5.6,7.37,10.24,7.37,13.9v4.92c-4.27,5.45-8.36,8.17-12.27,8.17
			c-5.03,0-8.03-3.54-9-10.63v-2.46C169.42,369.41,174.06,364.78,181.34,364.78z M170.71,386.05l3.27,1.63
			c4.09,0,7.91-2.46,11.46-7.37v-4.9l-4.9-6.54C173.99,370.74,170.71,376.46,170.71,386.05z"/>
		<path class="st1" d="M205.22,364.13l1.16,1.76v13.5l0.65,6.73c-0.19,1-0.79,1.85-1.81,2.57l-1.12,0.25l-0.05-1.92
			c-5.81,3.53-9.53,5.29-11.16,5.29h-0.58l-1.18-1.18v-5.87c1.31-12.91,2.68-19.37,4.11-19.37l1.76,1.76l-2.94,17.03l0.58,3.52
			c1.54,0,4.28-1.56,8.23-4.69v-9.39C202.86,367.46,203.65,364.13,205.22,364.13z"/>
		<path class="st1" d="M222.06,365.57h1.53l3.83,3.81l-0.77,0.77l0.77,0.76v0.76c0,1.93-3.06,4.99-9.19,9.18v0.76
			c8.17,3.22,12.25,6.03,12.25,8.42l-2.3,0.76c-5.93-3.56-10.52-5.34-13.78-5.34l1.53,6.12l-0.76,0.76h-0.77
			c-2.12,0-3.65-5.09-4.59-15.28c0-6.62,2.3-9.93,6.89-9.93C216.69,366.23,218.48,365.72,222.06,365.57z M213.64,378.56h0.76
			c4.23-2,7.29-4.55,9.19-7.65v-1.53h-0.77c-6.12,0-9.18,1.78-9.18,5.34V378.56z"/>
	</g>
	<g>
		<path class="st1" d="M34.42,412.29c0.49,0,1.2,0.86,2.13,2.57l4.27-1.71l2.57,2.55c-0.08,0.69-2.36,1.83-6.84,3.41v1.28h2.14
			c4.89,0,7.45,0.86,7.68,2.57c0,2.71-2.99,5.13-8.96,7.26v4.25l-0.86,0.86h-1.27c-0.86,0-1.28-0.86-1.28-2.57l-2.99,0.86
			c-1.14-0.43-1.71-0.86-1.71-1.28v-1.28l1.28-1.28l1.71,0.44l0.84-1.28v-2.99h-2.99c-1.55,0-2.68-0.57-3.41-1.71v-1.28
			c0.2-0.83,2.47-3.11,6.82-6.84l-0.42-0.42v-0.84C33.31,413.14,33.74,412.29,34.42,412.29z M36.55,425.08v1.71h0.44
			c1.92-0.77,3.2-1.62,3.83-2.55H40.4L36.55,425.08z"/>
		<path class="st1" d="M59.24,413.69h2.81c1.22,0,1.8,0.91,1.76,2.72c-7.91,0.77-11.73,3.6-11.46,8.49c9.97,0,14.96,1.45,14.96,4.34
			v1.83c-1.42,6.02-4.98,9.04-10.69,9.04l-2.44-3.25c5.86,0.11,9.22-2.22,10.09-6.98l-6.87-0.98h-5.48l-2.6-2.6v-5.36
			C52.74,416.11,56.05,413.69,59.24,413.69z"/>
		<path class="st1" d="M85.1,412.29l1.88,1.88v2.81l0.93,14.1c0.43,5.88-0.5,8.07-2.81,6.57c0.09-3.2-0.18-4.45-0.83-3.76
			c-5.52,4.38-9.32,6.57-11.39,6.57c-1.88-0.39-2.81-2.89-2.81-7.51v-15.98l2.81-2.81l0.95,0.93l-0.95,6.57v8.46l0.95,4.69
			l10.34-5.62l-0.95-9.4v-5.62L85.1,412.29z"/>
		<path class="st1" d="M94.06,413.2l6.36-0.91c5.45,0.61,8.17,1.82,8.17,3.64v4.54c-4.51,7.28-9.36,10.92-14.54,10.92l0.91,9.09
			h-2.74l-1.81-12.73V414.1l0.91-0.9C92.47,412.32,93.38,412.32,94.06,413.2z M94.06,420.46c-0.53,1.63-0.53,3.75,0,6.36h0.91
			c5.5-3.32,8.53-5.74,9.09-7.26v-0.91l-0.91-0.91v-0.9C97.09,418.19,94.06,419.39,94.06,420.46z"/>
		<path class="st1" d="M126.02,411.62l1.86,1.86v1.86c-9.75,2.72-14.54,4.32-14.36,4.8l-0.53,3.57v0.93l11.16-3.73l1.86,1.86v1.86
			l-13.03,3.73v6.77l11.16-3.04l1.86,1.85v1.86l-15.42,4.9l-1.34-1.07l-0.69-2.5l0.69-1.34l-0.3-7.44
			c0.54-10.27,2.01-14.31,4.41-12.13l3.32-0.9L126.02,411.62z"/>
		<path class="st1" d="M140.2,412.29c6.88,0,10.32,1.61,10.32,4.82c0,2.55-2.98,6.45-8.95,11.67v0.7
			c9.62,1.59,14.43,3.88,14.43,6.86c0,1.05-1.14,1.75-3.43,2.07c0-1.04-5.72-3.11-17.17-6.19l1.37,7.56l-0.69,0.69h-0.69
			c-1.51,0-2.66-2.75-3.45-8.24c-0.6-5.04-1.05-10.76-1.37-17.17L140.2,412.29z M134.72,420.53v2.07v0.69v3.43l0.69,0.69
			c2.66-1.07,6.32-4.27,10.99-9.62v-1.37h-1.37C138.15,416.42,134.72,417.79,134.72,420.53z"/>
		<path class="st1" d="M159.5,413.2l6.36-0.91c5.45,0.61,8.17,1.82,8.17,3.64v4.54c-4.51,7.28-9.36,10.92-14.54,10.92l0.91,9.09
			h-2.74l-1.81-12.73V414.1l0.91-0.9C157.92,412.32,158.83,412.32,159.5,413.2z M159.5,420.46c-0.53,1.63-0.53,3.75,0,6.36h0.91
			c5.5-3.32,8.53-5.74,9.09-7.26v-0.91l-0.91-0.91v-0.9C162.53,418.19,159.5,419.39,159.5,420.46z"/>
		<path class="st1" d="M187.01,413.99h3.45c3.46,2.66,5.19,6.97,5.19,12.94c-3.63,8.06-9.96,12.09-18.98,12.09
			c-2.88-2.98-4.32-5.57-4.32-7.77v-0.86C176.45,419.46,181.34,413.99,187.01,413.99z M174.92,432.98l2.6,1.72h0.86
			c5.51,0,10.11-2.59,13.82-7.77v-3.45c0-4.03-1.73-6.05-5.19-6.05C180.79,420.45,176.76,425.63,174.92,432.98z"/>
		<path class="st1" d="M220.91,412.29l0.97,0.98h0.97l-4.85,22.34h-0.97l-8.75-11.67c-0.64,11.02-1.94,16.52-3.88,16.52
			c-2.59-2.43-5.5-10.85-8.74-25.26l0.97-0.97h0.98c1.93,0,3.55,5.18,4.85,15.54c1.29,0,2.58-4.86,3.88-14.57h1.93l5.84,10.69h1.95
			C217.34,416.82,218.96,412.29,220.91,412.29z"/>
		<path class="st1" d="M238.62,411.62l1.86,1.86v1.86c-9.75,2.72-14.54,4.32-14.36,4.8l-0.53,3.57v0.93l11.16-3.73l1.86,1.86v1.86
			l-13.03,3.73v6.77l11.16-3.04l1.86,1.85v1.86l-15.42,4.9l-1.34-1.07l-0.69-2.5l0.69-1.34l-0.3-7.44
			c0.54-10.27,2.01-14.31,4.41-12.13l3.32-0.9L238.62,411.62z"/>
		<path class="st1" d="M252.81,412.29c6.88,0,10.32,1.61,10.32,4.82c0,2.55-2.98,6.45-8.95,11.67v0.7
			c9.62,1.59,14.43,3.88,14.43,6.86c0,1.05-1.14,1.75-3.43,2.07c0-1.04-5.72-3.11-17.17-6.19l1.37,7.56l-0.69,0.69h-0.69
			c-1.51,0-2.66-2.75-3.45-8.24c-0.6-5.04-1.05-10.76-1.37-17.17L252.81,412.29z M247.33,420.53v2.07v0.69v3.43l0.69,0.69
			c2.66-1.07,6.32-4.27,10.99-9.62v-1.37h-1.37C250.76,416.42,247.33,417.79,247.33,420.53z"/>
	</g>
	<g>
		<path class="st1" d="M-24.17,461.36c1.39,0.69,3.53,5.34,6.4,13.96l0.58,0.58h0.58l-0.58,2.92l2.34,9.32v1.16l-1.16,1.16
			c-1.32,0-2.68-3.3-4.08-9.9c-5.04,0.73-7.56,2.67-7.56,5.82c0,2.72-0.39,4.08-1.18,4.08c-0.88,0-1.46-2.52-1.74-7.56
			c1.7-9.84,3.64-17.02,5.82-21.53H-24.17z M-24.75,467.76c-1.16,4.51-1.74,8.39-1.74,11.64l4.66-1.74v-2.34
			C-23.01,470.28-23.98,467.76-24.75,467.76z"/>
		<path class="st1" d="M-0.85,462.14h0.47c0.62,0,0.93,0.46,0.93,1.39l-0.93,13.46l0.93,8.35v0.47l-0.93,0.93l-10.69-14.4h-0.93
			v5.12c0,3.79,0.47,7.19,1.41,10.21v1.85l-0.93,0.93c-2.17-1.05-3.25-5.08-3.25-12.08v-11.13c0-1.66,0.62-2.75,1.86-3.25
			c0.77,2.7,4.02,7.49,9.74,14.38v-0.91C-2.74,467.25-1.96,462.14-0.85,462.14z"/>
		<path class="st1" d="M14.11,462.28c8.05,0.57,12.08,3.04,12.08,7.38c-1.99,5.91-7.58,12.84-16.77,20.79H8.06
			c-2.68-3.39-4.03-10.77-4.03-22.15l-0.67-2C3.37,463.62,6.95,462.28,14.11,462.28z M7.4,468.99c0.59,10.28,1.71,15.42,3.36,15.42
			c7.61-9.07,11.41-14.44,11.41-16.1l-8.05-2.67h-4.03C9.16,465.84,8.26,466.95,7.4,468.99z"/>
		<path class="st1" d="M49.04,462.28c2.45,1.04,3.79,2.12,4.03,3.22v1.62l-0.81,4.03c3.22,1.25,4.83,2.33,4.83,3.22V480
			c0,4.11-4.03,7.6-12.08,10.46h-4.83c-2.05,0-3.39-5.37-4.03-16.1c0.84-7.51,1.65-11.27,2.41-11.27L49.04,462.28z M39.37,473.55
			c6.98-3.07,10.48-5.48,10.48-7.24v-0.81C42.86,465.5,39.37,468.18,39.37,473.55z M39.37,479.19v4.03l1.62,3.22
			c9.66-2.68,14.48-6.17,14.48-10.46c-2.14,0-3.22-0.54-3.22-1.62C47.58,474.35,43.28,475.97,39.37,479.19z"/>
		<path class="st1" d="M77.67,463.1l0.6,0.6v0.6c0,1.15-4.96,2.93-14.87,5.34l-0.6,4.17v0.6c5.27-1.59,9.63-2.39,13.08-2.39l0.6,0.6
			v1.2c0,1.49-4.36,2.88-13.08,4.17v6.54l0.6,1.18l13.08-4.75l1.2,1.78c-5.84,5.16-11.19,7.73-16.07,7.73
			c-1.18-4.36-1.97-9.71-2.37-16.05l1.2-5.96l-0.6-1.78C63.45,464.29,69.2,463.1,77.67,463.1z"/>
		<path class="st1" d="M107.89,461.61v2.14c0,1.22-2.15,2.3-6.45,3.23l-2.16,21.52l1.07,4.31l-1.07,1.07H98.2
			c-2.16,0-3.23-3.23-3.23-9.69l1.07-16.14h-7.52v-3.22L107.89,461.61z"/>
		<path class="st1" d="M111.93,462.31l1.41,2.11v1.41c0,5.47,0.47,9.22,1.41,11.25l11.27-3.52v-2.11l0.7-4.22l-0.7-0.7v-0.7
			l2.11-2.81l1.41,1.41v7.03l3.52,3.52l-2.81,2.11l0.7,11.27l-0.7,0.7h-0.7c-1.56,0-2.5-3.76-2.81-11.27v-0.7
			c-2.13,0-6.12,1.18-11.97,3.53v0.7l1.41,7.73v1.41h-1.41c-2.51,0-3.91-9.15-4.22-27.44l0.7-0.7H111.93z"/>
		<path class="st1" d="M153.12,463.1l0.6,0.6v0.6c0,1.15-4.96,2.93-14.87,5.34l-0.6,4.17v0.6c5.27-1.59,9.63-2.39,13.08-2.39
			l0.6,0.6v1.2c0,1.49-4.36,2.88-13.08,4.17v6.54l0.6,1.18l13.08-4.75l1.2,1.78c-5.84,5.16-11.19,7.73-16.07,7.73
			c-1.18-4.36-1.97-9.71-2.37-16.05l1.2-5.96l-0.6-1.78C138.9,464.29,144.65,463.1,153.12,463.1z"/>
		<path class="st1" d="M165.25,462.31l1.41,2.11v1.41c0,5.47,0.47,9.22,1.41,11.25l11.27-3.52v-2.11l0.7-4.22l-0.7-0.7v-0.7
			l2.11-2.81l1.41,1.41v7.03l3.52,3.52l-2.81,2.11l0.7,11.27l-0.7,0.7h-0.7c-1.56,0-2.5-3.76-2.81-11.27v-0.7
			c-2.13,0-6.12,1.18-11.97,3.53v0.7l1.41,7.73v1.41h-1.41c-2.51,0-3.91-9.15-4.22-27.44l0.7-0.7H165.25z"/>
		<path class="st1" d="M206.43,463.1l0.6,0.6v0.6c0,1.15-4.96,2.93-14.87,5.34l-0.6,4.17v0.6c5.27-1.59,9.63-2.39,13.08-2.39
			l0.6,0.6v1.2c0,1.49-4.36,2.88-13.08,4.17v6.54l0.6,1.18l13.08-4.75l1.2,1.78c-5.84,5.16-11.19,7.73-16.07,7.73
			c-1.18-4.36-1.97-9.71-2.37-16.05l1.2-5.96l-0.6-1.78C192.21,464.29,197.96,463.1,206.43,463.1z"/>
		<path class="st1" d="M219.41,463.72h1.53l3.83,3.81l-0.77,0.77l0.77,0.76v0.76c0,1.93-3.06,4.99-9.19,9.18v0.76
			c8.17,3.22,12.25,6.03,12.25,8.42l-2.3,0.76c-5.93-3.56-10.52-5.34-13.78-5.34l1.53,6.12l-0.76,0.76h-0.77
			c-2.12,0-3.65-5.09-4.59-15.28c0-6.62,2.3-9.93,6.89-9.93C214.04,464.38,215.83,463.87,219.41,463.72z M210.99,476.71h0.76
			c4.23-2,7.29-4.55,9.19-7.65v-1.53h-0.77c-6.12,0-9.18,1.78-9.18,5.34V476.71z"/>
		<path class="st1" d="M241.87,462.93c4.91,5.6,7.37,10.24,7.37,13.9v4.92c-4.27,5.45-8.36,8.17-12.27,8.17
			c-5.03,0-8.03-3.54-9-10.63v-2.46C229.95,467.56,234.58,462.93,241.87,462.93z M231.24,484.2l3.27,1.63
			c4.09,0,7.91-2.46,11.46-7.37v-4.9l-4.9-6.54C234.51,468.89,231.24,474.61,231.24,484.2z"/>
		<path class="st1" d="M278.78,461.61v2.14c0,1.22-2.15,2.3-6.45,3.23l-2.16,21.52l1.07,4.31l-1.07,1.07h-1.07
			c-2.16,0-3.23-3.23-3.23-9.69l1.07-16.14h-7.52v-3.22L278.78,461.61z"/>
		<path class="st1" d="M282.83,462.31l1.41,2.11v1.41c0,5.47,0.47,9.22,1.41,11.25l11.27-3.52v-2.11l0.7-4.22l-0.7-0.7v-0.7
			l2.11-2.81l1.41,1.41v7.03l3.52,3.52l-2.81,2.11l0.7,11.27l-0.7,0.7h-0.7c-1.56,0-2.5-3.76-2.81-11.27v-0.7
			c-2.13,0-6.12,1.18-11.97,3.53v0.7l1.41,7.73v1.41h-1.41c-2.51,0-3.91-9.15-4.22-27.44l0.7-0.7H282.83z"/>
		<path class="st1" d="M310.62,461.36c1.39,0.69,3.53,5.34,6.4,13.96l0.58,0.58h0.58l-0.58,2.92l2.34,9.32v1.16l-1.16,1.16
			c-1.32,0-2.68-3.3-4.08-9.9c-5.04,0.73-7.56,2.67-7.56,5.82c0,2.72-0.39,4.08-1.18,4.08c-0.88,0-1.46-2.52-1.74-7.56
			c1.7-9.84,3.64-17.02,5.82-21.53H310.62z M310.04,467.76c-1.16,4.51-1.74,8.39-1.74,11.64l4.66-1.74v-2.34
			C311.78,470.28,310.81,467.76,310.04,467.76z"/>
		<path class="st1" d="M336.74,461.61v2.14c0,1.22-2.15,2.3-6.45,3.23l-2.16,21.52l1.07,4.31l-1.07,1.07h-1.07
			c-2.16,0-3.23-3.23-3.23-9.69l1.07-16.14h-7.52v-3.22L336.74,461.61z"/>
	</g>
	<g>
		<path class="st1" d="M-12.57,513.09c6.88,0,10.32,1.61,10.32,4.82c0,2.55-2.98,6.45-8.95,11.67v0.7
			c9.62,1.59,14.43,3.88,14.43,6.86c0,1.05-1.14,1.75-3.43,2.07c0-1.04-5.72-3.11-17.17-6.19l1.37,7.56l-0.69,0.69h-0.69
			c-1.51,0-2.66-2.75-3.45-8.24c-0.6-5.04-1.05-10.76-1.37-17.17L-12.57,513.09z M-18.06,521.33v2.07v0.69v3.43l0.69,0.69
			c2.66-1.07,6.32-4.27,10.99-9.62v-1.37h-1.37C-14.62,517.22-18.06,518.59-18.06,521.33z"/>
		<path class="st1" d="M20.51,512.42l1.86,1.86v1.86c-9.75,2.72-14.54,4.32-14.36,4.8l-0.53,3.57v0.93l11.16-3.73l1.86,1.86v1.86
			l-13.03,3.73v6.77l11.16-3.04l1.86,1.85v1.86l-15.42,4.9l-1.34-1.07l-0.69-2.5l0.69-1.34l-0.3-7.44
			C4,518.9,5.47,514.86,7.87,517.04l3.32-0.9L20.51,512.42z"/>
		<path class="st1" d="M31.32,513.09c2.03,0,3.55,4.57,4.57,13.71l0.76,2.29c1.52,0,2.29,0.5,2.29,1.51l-0.77,0.77v0.76
			c1.52,2.6,2.29,5.14,2.29,7.61v1.53h-1.51c-1.25,0-2.53-2.79-3.81-8.38h-6.86c-1.52,0.33-2.29,2.36-2.29,6.1l-2.29,1.53
			l-0.76-0.77v-0.76l6.86-22.85C29.79,514.1,30.3,513.09,31.32,513.09z M30.55,522.23l-2.29,7.61h3.81l0.76-0.76h0.77
			C32.47,524.51,31.45,522.23,30.55,522.23z"/>
		<path class="st1" d="M56.98,516.15c6.35-1.97,10.05-2.47,11.11-1.49s1.73,2.18,2.04,3.61v1.04l-2.07,2.07
			c-1.21-2.61-3.98-3.3-8.31-2.07c-8.31,4.01-12.46,8.16-12.46,12.46c0,2.78,1.39,4.51,4.17,5.2c12.04-1.82,18.61-3.55,19.72-5.2
			h1.04l2.09,2.07c0,3.4-7.27,5.82-21.81,7.28c-7.12-0.57-10.28-4.29-9.47-11.16C45.98,522.73,50.63,518.13,56.98,516.15z"/>
		<path class="st1" d="M91.17,513.21l1.95,1.95v4.57l-0.65,2.62l0.65,0.65v0.65l-0.65,6.52l1.3,10.44l-0.65,0.65h-0.65
			c-1.37-0.94-2.68-5.29-3.92-13.04H87.9c-4.82,1.69-7.42,2.99-7.82,3.9v2.62l1.3,1.95c0,2.26-0.65,3.57-1.95,3.92
			c-1.49,0-2.58-4.35-3.27-13.04l0.65-12.41l1.95-1.3c0.88,0,1.32,0.65,1.32,1.95l-0.65,6.54l0.65,0.65v0.65l-0.65,2.6l0.65,0.65
			c6.08-1.44,9.12-2.53,9.12-3.25C89.21,516.69,89.86,513.21,91.17,513.21z"/>
		<path class="st1" d="M113.94,512.42l1.86,1.86v1.86c-9.75,2.72-14.54,4.32-14.36,4.8l-0.53,3.57v0.93l11.16-3.73l1.86,1.86v1.86
			l-13.03,3.73v6.77l11.16-3.04l1.86,1.85v1.86l-15.42,4.9l-1.34-1.07l-0.69-2.5l0.69-1.34l-0.3-7.44
			c0.54-10.27,2.01-14.31,4.41-12.13l3.32-0.9L113.94,512.42z"/>
		<path class="st1" d="M125.98,514.49h2.81c1.22,0,1.8,0.91,1.76,2.72c-7.91,0.77-11.73,3.6-11.46,8.49
			c9.97,0,14.96,1.45,14.96,4.34v1.83c-1.42,6.02-4.98,9.04-10.69,9.04l-2.44-3.25c5.86,0.11,9.22-2.22,10.09-6.98l-6.87-0.98h-5.48
			l-2.6-2.6v-5.36C119.48,516.91,122.79,514.49,125.98,514.49z"/>
		<path class="st1" d="M165.74,512.89l2.27,2.27c-2.44,1.82-5.84,2.95-10.21,3.41v6.8l1.12,12.48l-1.12,3.41h-2.27l-2.27-20.43
			v-1.14l-7.95,1.14l-1.14-1.14v-1.12C144.17,516,151.36,514.11,165.74,512.89z"/>
		<path class="st1" d="M185.08,513.21l1.95,1.95v4.57l-0.65,2.62l0.65,0.65v0.65l-0.65,6.52l1.3,10.44l-0.65,0.65h-0.65
			c-1.37-0.94-2.68-5.29-3.92-13.04h-0.65c-4.82,1.69-7.42,2.99-7.82,3.9v2.62l1.3,1.95c0,2.26-0.65,3.57-1.95,3.92
			c-1.49,0-2.58-4.35-3.27-13.04l0.65-12.41l1.95-1.3c0.88,0,1.32,0.65,1.32,1.95l-0.65,6.54l0.65,0.65v0.65l-0.65,2.6l0.65,0.65
			c6.08-1.44,9.12-2.53,9.12-3.25C183.11,516.69,183.76,513.21,185.08,513.21z"/>
		<path class="st1" d="M207.84,512.42l1.86,1.86v1.86c-9.75,2.72-14.54,4.32-14.36,4.8l-0.53,3.57v0.93l11.16-3.73l1.86,1.86v1.86
			l-13.03,3.73v6.77l11.16-3.04l1.86,1.85v1.86l-15.42,4.9l-1.34-1.07l-0.69-2.5l0.69-1.34l-0.3-7.44
			c0.54-10.27,2.01-14.31,4.41-12.13l3.32-0.9L207.84,512.42z"/>
		<path class="st1" d="M226.05,514l6.36-0.91c5.45,0.61,8.17,1.82,8.17,3.64v4.54c-4.51,7.28-9.36,10.92-14.54,10.92l0.91,9.09
			h-2.74l-1.81-12.73V514.9l0.91-0.9C224.46,513.12,225.37,513.12,226.05,514z M226.05,521.26c-0.53,1.63-0.53,3.75,0,6.36h0.91
			c5.5-3.32,8.53-5.74,9.09-7.26v-0.91l-0.91-0.91v-0.9C229.08,518.99,226.05,520.19,226.05,521.26z"/>
		<path class="st1" d="M252.93,513.09c6.88,0,10.32,1.61,10.32,4.82c0,2.55-2.98,6.45-8.95,11.67v0.7
			c9.62,1.59,14.43,3.88,14.43,6.86c0,1.05-1.14,1.75-3.43,2.07c0-1.04-5.72-3.11-17.17-6.19l1.37,7.56l-0.69,0.69h-0.69
			c-1.51,0-2.66-2.75-3.45-8.24c-0.6-5.04-1.05-10.76-1.37-17.17L252.93,513.09z M247.44,521.33v2.07v0.69v3.43l0.69,0.69
			c2.66-1.07,6.32-4.27,10.99-9.62v-1.37h-1.37C250.88,517.22,247.44,518.59,247.44,521.33z"/>
		<path class="st1" d="M273.3,515.67l1.88,2.2l-0.79,10.88l0.56,11l-1.46,1.27c-2.13-2.05-3.07-4.86-2.81-8.42l1.14-15.66
			L273.3,515.67z"/>
		<path class="st1" d="M298.19,515.46l0.53,0.53v2.64c-0.35,1.05-2.98,3.86-7.89,8.42c0,1.16-1.76,3.09-5.27,5.8v0.53h1.05
			c2.7-0.09,6.38-1.68,11.06-4.75l1.05,1.58v1.05c-1.18,2.06-3.46,3.81-6.84,5.26c0,0.56-3.33,1.62-10,3.16l-1.05-1.58v-0.53
			c0-3.68,2.59-8.11,7.77-13.29l1.18-2.5h-2.64l-8.95,2.62c-0.8,0-1.32-0.87-1.58-2.62C281.56,517.57,288.76,515.46,298.19,515.46z"
			/>
		<path class="st1" d="M318.81,512.42l1.86,1.86v1.86c-9.75,2.72-14.54,4.32-14.36,4.8l-0.53,3.57v0.93l11.16-3.73l1.86,1.86v1.86
			l-13.03,3.73v6.77l11.16-3.04l1.86,1.85v1.86l-15.42,4.9l-1.34-1.07l-0.69-2.5l0.69-1.34l-0.3-7.44
			c0.54-10.27,2.01-14.31,4.41-12.13l3.32-0.9L318.81,512.42z"/>
	</g>
</g>
<g>
	<g>
		<path class="st0" d="M52.1,116.27l7.9,6.31l-3.15,3.16l-9.46-3.16c-4.85,1.28-10.11,7.07-15.8,17.37v12.62h11.06l14.21-9.47
			l3.15,3.16c0,5.25-8.42,9.99-25.27,14.21c-5.54,0-8.7-5.26-9.46-15.77C30.53,125.74,39.48,116.27,52.1,116.27z"/>
		<path class="st0" d="M86.85,119.15h5.38c5.39,4.15,8.09,10.88,8.09,20.19c-5.67,12.58-15.55,18.87-29.63,18.87
			c-4.5-4.64-6.75-8.69-6.75-12.13v-1.34C70.37,127.68,78,119.15,86.85,119.15z M67.98,148.78l4.06,2.69h1.34
			c8.6,0,15.78-4.04,21.56-12.13v-5.38c0-6.29-2.7-9.44-8.09-9.44C77.14,129.23,70.85,137.31,67.98,148.78z"/>
		<path class="st0" d="M111.71,117.92h1.37c2.87,0,6.98,7.76,12.32,23.29c1.43,0,5.54-5.94,12.34-17.83l4.09-2.72h1.37
			c3.4,0,7.52,11.41,12.34,34.24v1.37l-2.74,2.74h-1.37c-2.03,0-5.23-9.13-9.6-27.4c-2.54,1.24-7.11,8.55-13.69,21.92h-2.74
			c-2.74,0-5.94-6.39-9.6-19.17h-2.72c-1.83,13.7-4.11,20.55-6.86,20.55l-2.74-2.74v-5.46
			C103.48,136.75,106.22,127.15,111.71,117.92z"/>
		<path class="st0" d="M162.81,120.52l2.94,3.43l-1.23,16.98l0.88,17.17l-2.28,1.98c-3.33-3.2-4.79-7.58-4.39-13.14l1.78-24.44
			L162.81,120.52z"/>
		<path class="st0" d="M196.15,116.68l1.23,1.26l-1.23,12.51v11.25v2.5v1.26c-0.84,4.99-2.09,7.49-3.76,7.49h-2.5
			c0-4.48-5.42-11.15-16.27-20h-1.26l3.76,26.25l-1.23,1.26h-1.26c-4.17-6.8-6.25-15.56-6.25-26.28v-9.99l2.5-2.52h2.5
			c10.02,9.18,15.03,14.6,15.03,16.27h2.5v-1.23C190.44,123.36,192.52,116.68,196.15,116.68z"/>
		<path class="st0" d="M226.18,116.3h4.55v3.02c-18.2,11.72-27.3,21.33-27.3,28.83l4.55,4.56h6.06c11.12-3.04,16.68-6.07,16.68-9.11
			h-3.02L208,146.61v-1.51c0-3.64,8.6-7.18,25.79-10.62c4.04,1.52,6.06,3.03,6.06,4.55v4.56c-9.73,11.12-18.32,16.68-25.79,16.68
			h-4.55H208c-7.08-2.03-10.62-6.07-10.62-12.13C197.38,134.83,206.98,124.22,226.18,116.3z"/>
		<path class="st0" d="M271.42,118.69h4.39c1.9,0,2.82,1.42,2.74,4.25c-12.34,1.21-18.31,5.62-17.89,13.25
			c15.56,0,23.34,2.26,23.34,6.78v2.85c-2.21,9.4-7.77,14.1-16.68,14.1l-3.81-5.08c9.14,0.17,14.39-3.46,15.75-10.89l-10.73-1.54
			h-8.56l-4.06-4.06v-8.37C261.28,122.45,266.45,118.69,271.42,118.69z"/>
		<path class="st0" d="M311.23,119.15h5.38c5.4,4.15,8.09,10.88,8.09,20.19c-5.67,12.58-15.55,18.87-29.63,18.87
			c-4.5-4.64-6.75-8.69-6.75-12.13v-1.34C294.74,127.68,302.37,119.15,311.23,119.15z M292.35,148.78l4.06,2.69h1.35
			c8.6,0,15.78-4.04,21.56-12.13v-5.38c0-6.29-2.7-9.44-8.09-9.44C301.51,129.23,295.22,137.31,292.35,148.78z"/>
		<path class="st0" d="M348.2,119.15h5.38c5.4,4.15,8.09,10.88,8.09,20.19c-5.67,12.58-15.55,18.87-29.63,18.87
			c-4.5-4.64-6.75-8.69-6.75-12.13v-1.34C331.72,127.68,339.35,119.15,348.2,119.15z M329.33,148.78l4.06,2.69h1.35
			c8.6,0,15.78-4.04,21.56-12.13v-5.38c0-6.29-2.7-9.44-8.09-9.44C338.49,129.23,332.2,137.31,329.33,148.78z"/>
		<path class="st0" d="M394.48,116.68l1.23,1.26l-1.23,12.51v11.25v2.5v1.26c-0.84,4.99-2.09,7.49-3.76,7.49h-2.5
			c0-4.48-5.42-11.15-16.27-20h-1.26l3.76,26.25l-1.24,1.26h-1.26c-4.17-6.8-6.25-15.56-6.25-26.28v-9.99l2.5-2.52h2.5
			c10.02,9.18,15.03,14.6,15.03,16.27h2.5v-1.23C388.78,123.36,390.86,116.68,394.48,116.68z"/>
		<path class="st0" d="M403.65,150.31l2.25,3.38v1.12c0,2.27-3.38,4.15-10.15,5.65l-2.25-2.25v-1.12
			C393.5,155.21,396.88,152.95,403.65,150.31z M408.15,116.49l-7.87,30.45h-3.4c0.57-10.04,3.58-20.19,9.03-30.45H408.15z"/>
	</g>
	<g>
		<path d="M48.05,110.7l7.9,6.31l-3.15,3.16l-9.46-3.16c-4.85,1.28-10.11,7.07-15.8,17.37V147h11.06l14.21-9.47l3.15,3.16
			c0,5.25-8.42,9.99-25.27,14.21c-5.54,0-8.7-5.26-9.46-15.77C26.49,120.18,35.43,110.7,48.05,110.7z"/>
		<path d="M82.81,113.58h5.38c5.39,4.15,8.09,10.88,8.09,20.19c-5.67,12.58-15.55,18.87-29.63,18.87c-4.5-4.64-6.75-8.69-6.75-12.13
			v-1.34C66.32,122.12,73.96,113.58,82.81,113.58z M63.94,143.21L68,145.9h1.34c8.6,0,15.78-4.04,21.56-12.13v-5.38
			c0-6.29-2.7-9.44-8.09-9.44C73.1,123.66,66.81,131.74,63.94,143.21z"/>
		<path d="M107.66,112.35h1.37c2.87,0,6.98,7.76,12.32,23.29c1.43,0,5.54-5.94,12.34-17.83l4.09-2.72h1.37
			c3.4,0,7.52,11.41,12.34,34.24v1.37l-2.74,2.74h-1.37c-2.03,0-5.23-9.13-9.6-27.4c-2.54,1.24-7.11,8.55-13.69,21.92h-2.74
			c-2.74,0-5.94-6.39-9.6-19.17h-2.72c-1.83,13.7-4.11,20.55-6.86,20.55l-2.74-2.74v-5.46C99.43,131.18,102.18,121.58,107.66,112.35
			z"/>
		<path d="M158.77,114.96l2.94,3.43l-1.23,16.98l0.88,17.17l-2.28,1.98c-3.33-3.2-4.79-7.58-4.39-13.14l1.78-24.44L158.77,114.96z"
			/>
		<path d="M192.1,111.11l1.23,1.26l-1.23,12.51v11.25v2.5v1.26c-0.84,4.99-2.09,7.49-3.76,7.49h-2.5c0-4.48-5.42-11.15-16.27-20
			h-1.26l3.76,26.25l-1.23,1.26h-1.26c-4.17-6.8-6.25-15.56-6.25-26.28v-9.99l2.5-2.52h2.5c10.02,9.18,15.03,14.6,15.03,16.27h2.5
			v-1.23C186.4,117.79,188.48,111.11,192.1,111.11z"/>
		<path d="M222.14,110.73h4.55v3.02c-18.2,11.72-27.3,21.33-27.3,28.83l4.55,4.56h6.06c11.12-3.04,16.68-6.07,16.68-9.11h-3.02
			l-19.72,3.02v-1.51c0-3.64,8.6-7.18,25.79-10.62c4.04,1.52,6.06,3.03,6.06,4.55v4.56c-9.73,11.12-18.33,16.68-25.79,16.68h-4.55
			h-1.51c-7.08-2.03-10.62-6.07-10.62-12.13C193.34,129.27,202.94,118.65,222.14,110.73z"/>
		<path d="M267.38,113.12h4.39c1.9,0,2.82,1.42,2.74,4.25c-12.34,1.21-18.31,5.62-17.89,13.25c15.56,0,23.34,2.26,23.34,6.78v2.85
			c-2.21,9.4-7.77,14.1-16.68,14.1l-3.81-5.08c9.14,0.17,14.39-3.46,15.75-10.89l-10.73-1.54h-8.56l-4.06-4.06v-8.37
			C257.23,116.89,262.4,113.12,267.38,113.12z"/>
		<path d="M307.18,113.58h5.38c5.4,4.15,8.09,10.88,8.09,20.19c-5.67,12.58-15.55,18.87-29.63,18.87c-4.5-4.64-6.75-8.69-6.75-12.13
			v-1.34C290.69,122.12,298.33,113.58,307.18,113.58z M288.31,143.21l4.06,2.69h1.34c8.6,0,15.78-4.04,21.56-12.13v-5.38
			c0-6.29-2.7-9.44-8.09-9.44C297.47,123.66,291.18,131.74,288.31,143.21z"/>
		<path d="M344.16,113.58h5.38c5.4,4.15,8.09,10.88,8.09,20.19c-5.67,12.58-15.55,18.87-29.63,18.87c-4.5-4.64-6.75-8.69-6.75-12.13
			v-1.34C327.67,122.12,335.31,113.58,344.16,113.58z M325.29,143.21l4.06,2.69h1.34c8.6,0,15.78-4.04,21.56-12.13v-5.38
			c0-6.29-2.7-9.44-8.09-9.44C334.45,123.66,328.16,131.74,325.29,143.21z"/>
		<path d="M390.44,111.11l1.23,1.26l-1.23,12.51v11.25v2.5v1.26c-0.84,4.99-2.09,7.49-3.76,7.49h-2.5c0-4.48-5.42-11.15-16.27-20
			h-1.26l3.76,26.25l-1.24,1.26h-1.26c-4.17-6.8-6.25-15.56-6.25-26.28v-9.99l2.5-2.52h2.5c10.02,9.18,15.03,14.6,15.03,16.27h2.5
			v-1.23C384.73,117.79,386.82,111.11,390.44,111.11z"/>
		<path d="M399.6,144.75l2.25,3.38v1.12c0,2.27-3.38,4.15-10.15,5.65l-2.25-2.25v-1.12C389.45,149.64,392.84,147.38,399.6,144.75z
			 M404.1,110.92l-7.87,30.45h-3.4c0.57-10.04,3.58-20.19,9.03-30.45H404.1z"/>
	</g>
	<g>
		<path class="st1" d="M43.68,101.95l7.9,6.31l-3.15,3.16l-9.46-3.16c-4.85,1.28-10.11,7.07-15.8,17.37v12.62h11.06l14.21-9.47
			l3.15,3.16c0,5.25-8.42,9.99-25.27,14.21c-5.54,0-8.7-5.26-9.46-15.77C22.12,111.42,31.06,101.95,43.68,101.95z"/>
		<path class="st1" d="M78.44,104.83h5.38c5.39,4.15,8.09,10.88,8.09,20.19c-5.67,12.58-15.55,18.87-29.63,18.87
			c-4.5-4.64-6.75-8.69-6.75-12.13v-1.34C61.95,113.36,69.59,104.83,78.44,104.83z M59.57,134.46l4.06,2.69h1.34
			c8.6,0,15.78-4.04,21.56-12.13v-5.38c0-6.29-2.7-9.44-8.09-9.44C68.73,114.91,62.44,122.99,59.57,134.46z"/>
		<path class="st1" d="M103.29,103.59h1.37c2.87,0,6.98,7.76,12.32,23.29c1.43,0,5.54-5.94,12.34-17.83l4.09-2.72h1.37
			c3.4,0,7.52,11.41,12.34,34.24v1.37l-2.74,2.74h-1.37c-2.03,0-5.23-9.13-9.6-27.4c-2.54,1.24-7.11,8.55-13.69,21.92h-2.74
			c-2.74,0-5.94-6.39-9.6-19.17h-2.72c-1.83,13.7-4.11,20.55-6.86,20.55l-2.74-2.74v-5.46C95.06,122.42,97.81,112.83,103.29,103.59z
			"/>
		<path class="st1" d="M154.4,106.2l2.94,3.43l-1.23,16.98l0.88,17.17l-2.28,1.98c-3.33-3.2-4.79-7.58-4.39-13.14l1.78-24.44
			L154.4,106.2z"/>
		<path class="st1" d="M187.73,102.36l1.23,1.26l-1.23,12.51v11.25v2.5v1.26c-0.84,4.99-2.09,7.49-3.76,7.49h-2.5
			c0-4.48-5.42-11.15-16.27-20h-1.26l3.76,26.25l-1.23,1.26h-1.26c-4.17-6.8-6.25-15.56-6.25-26.28v-9.99l2.5-2.52h2.5
			c10.02,9.18,15.03,14.6,15.03,16.27h2.5v-1.23C182.03,109.04,184.11,102.36,187.73,102.36z"/>
		<path class="st1" d="M217.77,101.98h4.55v3.02c-18.2,11.72-27.3,21.33-27.3,28.83l4.55,4.56h6.06
			c11.12-3.04,16.68-6.07,16.68-9.11h-3.02l-19.72,3.02v-1.51c0-3.64,8.6-7.18,25.79-10.62c4.04,1.52,6.06,3.03,6.06,4.55v4.56
			c-9.73,11.12-18.32,16.68-25.79,16.68h-4.55h-1.51c-7.08-2.03-10.62-6.07-10.62-12.13C188.97,120.51,198.57,109.89,217.77,101.98z
			"/>
		<path class="st1" d="M263.01,104.36h4.39c1.9,0,2.82,1.42,2.74,4.25c-12.34,1.21-18.31,5.62-17.89,13.25
			c15.56,0,23.35,2.26,23.35,6.78v2.85c-2.21,9.4-7.77,14.1-16.68,14.1l-3.81-5.08c9.15,0.17,14.39-3.46,15.75-10.89l-10.73-1.54
			h-8.56l-4.06-4.06v-8.37C252.87,108.13,258.03,104.36,263.01,104.36z"/>
		<path class="st1" d="M302.81,104.83h5.38c5.39,4.15,8.09,10.88,8.09,20.19c-5.67,12.58-15.55,18.87-29.63,18.87
			c-4.5-4.64-6.75-8.69-6.75-12.13v-1.34C286.33,113.36,293.96,104.83,302.81,104.83z M283.94,134.46l4.06,2.69h1.34
			c8.6,0,15.78-4.04,21.56-12.13v-5.38c0-6.29-2.7-9.44-8.09-9.44C293.1,114.91,286.81,122.99,283.94,134.46z"/>
		<path class="st1" d="M339.79,104.83h5.38c5.39,4.15,8.09,10.88,8.09,20.19c-5.67,12.58-15.55,18.87-29.63,18.87
			c-4.5-4.64-6.75-8.69-6.75-12.13v-1.34C323.31,113.36,330.94,104.83,339.79,104.83z M320.92,134.46l4.06,2.69h1.34
			c8.6,0,15.78-4.04,21.56-12.13v-5.38c0-6.29-2.7-9.44-8.09-9.44C330.08,114.91,323.79,122.99,320.92,134.46z"/>
		<path class="st1" d="M386.07,102.36l1.23,1.26l-1.23,12.51v11.25v2.5v1.26c-0.84,4.99-2.09,7.49-3.76,7.49h-2.5
			c0-4.48-5.42-11.15-16.27-20h-1.26l3.76,26.25l-1.23,1.26h-1.26c-4.17-6.8-6.25-15.56-6.25-26.28v-9.99l2.5-2.52h2.5
			c10.02,9.18,15.03,14.6,15.03,16.27h2.5v-1.23C380.36,109.04,382.45,102.36,386.07,102.36z"/>
		<path class="st1" d="M395.23,135.99l2.25,3.38v1.12c0,2.27-3.38,4.15-10.15,5.65l-2.25-2.25v-1.12
			C385.08,140.88,388.47,138.63,395.23,135.99z M399.73,102.17l-7.87,30.45h-3.4c0.57-10.04,3.57-20.19,9.03-30.45H399.73z"/>
	</g>
</g>
<g>
	<g>
		<path class="st0" d="M442.8,386.16c2.3,0,4.21,13.03,5.75,39.1l-1.15,1.15h-1.15c-2.3,0-3.45-6.9-3.45-20.71v-6.9
			c-1.92,0.97-5.76,9.02-11.52,24.16h-2.3c-1.8,0-2.95-2.68-3.45-8.05l-1.15-1.15c-0.5-5.38-1.65-8.07-3.45-8.07
			c-0.98,13.81-2.52,20.71-4.6,20.71h-2.3v-1.15c2.76-24.54,5.06-36.8,6.9-36.8c2.9,4.5,5.58,12.55,8.05,24.16h2.3L442.8,386.16z"/>
		<path class="st0" d="M475.93,385.41l2.65,2.65v2.65c-13.86,3.86-20.66,6.14-20.41,6.82l-0.75,5.07v1.32l15.86-5.3l2.65,2.65v2.65
			l-18.51,5.3v9.62l15.86-4.32l2.65,2.62v2.65l-21.91,6.97l-1.9-1.52l-0.98-3.55l0.98-1.9l-0.43-10.57
			c0.77-14.59,2.86-20.34,6.27-17.24l4.72-1.27L475.93,385.41z"/>
		<path class="st0" d="M504.14,385.41l2.65,2.65v2.65c-13.86,3.86-20.66,6.14-20.41,6.82l-0.75,5.07v1.32l15.87-5.3l2.65,2.65v2.65
			l-18.51,5.3v9.62l15.87-4.32l2.65,2.62v2.65l-21.91,6.97l-1.9-1.52l-0.97-3.55l0.97-1.9l-0.42-10.57
			c0.77-14.59,2.86-20.34,6.27-17.24l4.72-1.27L504.14,385.41z"/>
		<path class="st0" d="M538.57,386.09l3.22,3.22c-3.47,2.58-8.3,4.2-14.52,4.85v9.67l1.6,17.74l-1.6,4.85h-3.22l-3.22-29.03v-1.62
			l-11.29,1.62l-1.62-1.62v-1.6C507.91,390.51,518.13,387.82,538.57,386.09z"/>
		<path class="st0" d="M586.66,386.09l3.22,3.22c-3.47,2.58-8.3,4.2-14.52,4.85v9.67l1.6,17.74l-1.6,4.85h-3.22l-3.22-29.03v-1.62
			l-11.29,1.62l-1.62-1.62v-1.6C556.01,390.51,566.22,387.82,586.66,386.09z"/>
		<path class="st0" d="M614.14,386.54l2.77,2.77v6.5l-0.93,3.72l0.93,0.93v0.92l-0.93,9.27l1.85,14.84l-0.92,0.93h-0.93
			c-1.95-1.33-3.81-7.51-5.57-18.54h-0.93c-6.85,2.4-10.55,4.25-11.12,5.55v3.72l1.85,2.77c0,3.22-0.93,5.07-2.77,5.57
			c-2.12,0-3.66-6.18-4.65-18.54l0.93-17.64l2.77-1.85c1.25,0,1.87,0.92,1.87,2.77l-0.93,9.29l0.93,0.93v0.92l-0.93,3.7l0.93,0.92
			c8.64-2.05,12.97-3.59,12.97-4.62C611.35,391.48,612.28,386.54,614.14,386.54z"/>
		<path class="st0" d="M646.5,385.41l2.65,2.65v2.65c-13.86,3.86-20.66,6.14-20.41,6.82l-0.75,5.07v1.32l15.87-5.3l2.65,2.65v2.65
			l-18.51,5.3v9.62l15.87-4.32l2.65,2.62v2.65l-21.91,6.97l-1.9-1.52l-0.97-3.55l0.97-1.9l-0.42-10.57
			c0.77-14.59,2.86-20.34,6.27-17.24l4.72-1.27L646.5,385.41z"/>
		<path class="st0" d="M697.87,386.09l3.22,3.22c-3.47,2.58-8.3,4.2-14.52,4.85v9.67l1.6,17.74l-1.6,4.85h-3.22l-3.22-29.03v-1.62
			l-11.29,1.62l-1.62-1.62v-1.6C667.21,390.51,677.43,387.82,697.87,386.09z"/>
		<path class="st0" d="M720.91,385.41l2.65,2.65v2.65c-13.86,3.86-20.66,6.14-20.41,6.82l-0.75,5.07v1.32l15.87-5.3l2.65,2.65v2.65
			l-18.51,5.3v9.62l15.87-4.32l2.65,2.62v2.65l-21.91,6.97l-1.9-1.52l-0.97-3.55l0.97-1.9l-0.42-10.57
			c0.77-14.59,2.86-20.34,6.27-17.24l4.72-1.27L720.91,385.41z"/>
		<path class="st0" d="M736.27,386.36c2.88,0,5.05,6.5,6.5,19.49l1.08,3.25c2.16,0,3.25,0.72,3.25,2.15l-1.1,1.1v1.07
			c2.16,3.7,3.25,7.3,3.25,10.82v2.17h-2.15c-1.78,0-3.59-3.97-5.42-11.92h-9.74c-2.17,0.47-3.25,3.36-3.25,8.67l-3.25,2.17
			l-1.07-1.1v-1.08l9.74-32.48C734.1,387.8,734.82,386.36,736.27,386.36z M735.17,399.36l-3.25,10.82h5.42l1.07-1.08h1.1
			C737.9,402.6,736.45,399.36,735.17,399.36z"/>
		<path class="st0" d="M759.98,387.66h1.25c2.61,0,6.35,7.07,11.22,21.21c1.3,0,5.05-5.41,11.24-16.24l3.72-2.47h1.25
			c3.1,0,6.85,10.39,11.24,31.18v1.25l-2.5,2.5h-1.25c-1.85,0-4.76-8.32-8.74-24.96c-2.32,1.13-6.47,7.79-12.47,19.96h-2.5
			c-2.5,0-5.41-5.82-8.74-17.46h-2.47c-1.67,12.48-3.75,18.71-6.25,18.71l-2.5-2.5v-4.97C752.49,404.81,754.98,396.07,759.98,387.66
			z"/>
	</g>
	<g>
		<path d="M440.04,382.37c2.3,0,4.21,13.03,5.75,39.1l-1.15,1.15h-1.15c-2.3,0-3.45-6.9-3.45-20.71v-6.9
			c-1.92,0.97-5.76,9.02-11.52,24.16h-2.3c-1.8,0-2.95-2.68-3.45-8.05l-1.15-1.15c-0.5-5.38-1.65-8.07-3.45-8.07
			c-0.98,13.81-2.52,20.71-4.6,20.71h-2.3v-1.15c2.76-24.54,5.06-36.8,6.9-36.8c2.9,4.5,5.58,12.55,8.05,24.16h2.3L440.04,382.37z"
			/>
		<path d="M473.17,381.61l2.65,2.65v2.65c-13.86,3.86-20.66,6.14-20.41,6.82l-0.75,5.07v1.32l15.86-5.3l2.65,2.65v2.65l-18.51,5.3
			v9.62l15.86-4.32l2.65,2.62v2.65l-21.91,6.97l-1.9-1.52l-0.98-3.55l0.98-1.9l-0.43-10.57c0.77-14.59,2.86-20.34,6.27-17.24
			l4.72-1.27L473.17,381.61z"/>
		<path d="M501.38,381.61l2.65,2.65v2.65c-13.86,3.86-20.66,6.14-20.41,6.82l-0.75,5.07v1.32l15.87-5.3l2.65,2.65v2.65l-18.51,5.3
			v9.62l15.87-4.32l2.65,2.62v2.65l-21.91,6.97l-1.9-1.52l-0.97-3.55l0.97-1.9l-0.42-10.57c0.77-14.59,2.86-20.34,6.27-17.24
			l4.72-1.27L501.38,381.61z"/>
		<path d="M535.81,382.29l3.22,3.22c-3.47,2.58-8.3,4.2-14.52,4.85v9.67l1.6,17.74l-1.6,4.85h-3.22l-3.22-29.03v-1.62l-11.29,1.62
			l-1.62-1.62v-1.6C505.15,386.71,515.37,384.02,535.81,382.29z"/>
		<path d="M583.9,382.29l3.22,3.22c-3.47,2.58-8.3,4.2-14.52,4.85v9.67l1.6,17.74l-1.6,4.85h-3.22l-3.22-29.03v-1.62l-11.29,1.62
			l-1.62-1.62v-1.6C553.25,386.71,563.47,384.02,583.9,382.29z"/>
		<path d="M611.39,382.74l2.77,2.77v6.5l-0.93,3.72l0.93,0.93v0.92l-0.93,9.27l1.85,14.84l-0.92,0.93h-0.93
			c-1.95-1.33-3.81-7.51-5.57-18.54h-0.93c-6.85,2.4-10.55,4.25-11.12,5.55v3.72l1.85,2.77c0,3.22-0.93,5.07-2.77,5.57
			c-2.12,0-3.66-6.18-4.65-18.54l0.93-17.64l2.77-1.85c1.25,0,1.87,0.92,1.87,2.77l-0.93,9.29l0.93,0.93v0.92l-0.93,3.7l0.93,0.92
			c8.64-2.05,12.97-3.59,12.97-4.62C608.59,387.69,609.52,382.74,611.39,382.74z"/>
		<path d="M643.74,381.61l2.65,2.65v2.65c-13.86,3.86-20.66,6.14-20.41,6.82l-0.75,5.07v1.32l15.87-5.3l2.65,2.65v2.65l-18.51,5.3
			v9.62l15.87-4.32l2.65,2.62v2.65l-21.91,6.97l-1.9-1.52l-0.97-3.55l0.97-1.9l-0.42-10.57c0.77-14.59,2.86-20.34,6.27-17.24
			l4.72-1.27L643.74,381.61z"/>
		<path d="M695.11,382.29l3.22,3.22c-3.47,2.58-8.3,4.2-14.52,4.85v9.67l1.6,17.74l-1.6,4.85h-3.22l-3.22-29.03v-1.62l-11.29,1.62
			l-1.62-1.62v-1.6C664.45,386.71,674.67,384.02,695.11,382.29z"/>
		<path d="M718.15,381.61l2.65,2.65v2.65c-13.86,3.86-20.66,6.14-20.41,6.82l-0.75,5.07v1.32l15.87-5.3l2.65,2.65v2.65l-18.51,5.3
			v9.62l15.87-4.32l2.65,2.62v2.65l-21.91,6.97l-1.9-1.52l-0.97-3.55l0.97-1.9l-0.42-10.57c0.77-14.59,2.86-20.34,6.27-17.24
			l4.72-1.27L718.15,381.61z"/>
		<path d="M733.51,382.57c2.88,0,5.05,6.5,6.5,19.49l1.08,3.25c2.16,0,3.25,0.72,3.25,2.15l-1.1,1.1v1.07
			c2.16,3.7,3.25,7.3,3.25,10.82v2.17h-2.15c-1.78,0-3.59-3.97-5.42-11.92h-9.74c-2.17,0.47-3.25,3.36-3.25,8.67l-3.25,2.17
			l-1.07-1.1v-1.08l9.74-32.48C731.34,384.01,732.06,382.57,733.51,382.57z M732.41,395.56l-3.25,10.82h5.42l1.07-1.08h1.1
			C735.14,398.8,733.69,395.56,732.41,395.56z"/>
		<path d="M757.22,383.86h1.25c2.61,0,6.35,7.07,11.22,21.21c1.3,0,5.05-5.41,11.24-16.24l3.72-2.47h1.25
			c3.1,0,6.85,10.39,11.24,31.18v1.25l-2.5,2.5h-1.25c-1.85,0-4.76-8.32-8.74-24.96c-2.32,1.13-6.47,7.79-12.47,19.96h-2.5
			c-2.5,0-5.41-5.82-8.74-17.46h-2.47c-1.67,12.48-3.75,18.71-6.25,18.71l-2.5-2.5v-4.97C749.73,401.01,752.23,392.28,757.22,383.86
			z"/>
	</g>
	<g>
		<path class="st1" d="M437.06,376.39c2.3,0,4.21,13.03,5.75,39.1l-1.15,1.15h-1.15c-2.3,0-3.45-6.9-3.45-20.71v-6.9
			c-1.92,0.97-5.76,9.02-11.52,24.16h-2.3c-1.8,0-2.95-2.68-3.45-8.05l-1.15-1.15c-0.5-5.38-1.65-8.07-3.45-8.07
			c-0.98,13.81-2.52,20.71-4.6,20.71h-2.3v-1.15c2.77-24.54,5.06-36.8,6.9-36.8c2.9,4.5,5.58,12.55,8.05,24.16h2.3L437.06,376.39z"
			/>
		<path class="st1" d="M470.19,375.64l2.65,2.65v2.65c-13.86,3.86-20.66,6.14-20.41,6.82l-0.75,5.07v1.32l15.87-5.3l2.65,2.65v2.65
			l-18.51,5.3v9.62l15.87-4.32l2.65,2.62v2.65l-21.91,6.97l-1.9-1.52l-0.97-3.55l0.97-1.9l-0.42-10.57
			c0.77-14.59,2.86-20.34,6.27-17.24l4.72-1.27L470.19,375.64z"/>
		<path class="st1" d="M498.4,375.64l2.65,2.65v2.65c-13.86,3.86-20.66,6.14-20.41,6.82l-0.75,5.07v1.32l15.86-5.3l2.65,2.65v2.65
			l-18.51,5.3v9.62l15.86-4.32l2.65,2.62v2.65l-21.91,6.97l-1.9-1.52l-0.98-3.55l0.98-1.9l-0.43-10.57
			c0.77-14.59,2.86-20.34,6.27-17.24l4.72-1.27L498.4,375.64z"/>
		<path class="st1" d="M532.83,376.32l3.22,3.22c-3.47,2.58-8.3,4.2-14.52,4.85v9.67l1.6,17.74l-1.6,4.85h-3.22l-3.22-29.03v-1.62
			l-11.29,1.62l-1.62-1.62v-1.6C502.17,380.74,512.39,378.05,532.83,376.32z"/>
		<path class="st1" d="M580.92,376.32l3.22,3.22c-3.47,2.58-8.3,4.2-14.52,4.85v9.67l1.6,17.74l-1.6,4.85h-3.22l-3.22-29.03v-1.62
			l-11.29,1.62l-1.62-1.62v-1.6C550.27,380.74,560.49,378.05,580.92,376.32z"/>
		<path class="st1" d="M608.41,376.77l2.77,2.77v6.5l-0.92,3.72l0.92,0.93v0.92l-0.92,9.27l1.85,14.84l-0.93,0.93h-0.92
			c-1.95-1.33-3.81-7.51-5.57-18.54h-0.92c-6.85,2.4-10.55,4.25-11.12,5.55v3.72l1.85,2.77c0,3.22-0.92,5.07-2.77,5.57
			c-2.12,0-3.66-6.18-4.65-18.54l0.92-17.64l2.77-1.85c1.25,0,1.87,0.92,1.87,2.77l-0.92,9.29l0.92,0.93v0.92l-0.92,3.7l0.92,0.92
			c8.64-2.05,12.97-3.59,12.97-4.62C605.61,381.71,606.54,376.77,608.41,376.77z"/>
		<path class="st1" d="M640.76,375.64l2.65,2.65v2.65c-13.86,3.86-20.66,6.14-20.41,6.82l-0.75,5.07v1.32l15.86-5.3l2.65,2.65v2.65
			l-18.51,5.3v9.62l15.86-4.32l2.65,2.62v2.65l-21.91,6.97l-1.9-1.52l-0.98-3.55l0.98-1.9l-0.43-10.57
			c0.77-14.59,2.86-20.34,6.27-17.24l4.72-1.27L640.76,375.64z"/>
		<path class="st1" d="M692.13,376.32l3.22,3.22c-3.47,2.58-8.3,4.2-14.52,4.85v9.67l1.6,17.74l-1.6,4.85h-3.22l-3.22-29.03v-1.62
			l-11.29,1.62l-1.62-1.62v-1.6C661.47,380.74,671.69,378.05,692.13,376.32z"/>
		<path class="st1" d="M715.17,375.64l2.65,2.65v2.65c-13.86,3.86-20.66,6.14-20.41,6.82l-0.75,5.07v1.32l15.86-5.3l2.65,2.65v2.65
			l-18.51,5.3v9.62l15.86-4.32l2.65,2.62v2.65l-21.91,6.97l-1.9-1.52l-0.98-3.55l0.98-1.9l-0.43-10.57
			c0.77-14.59,2.86-20.34,6.27-17.24l4.72-1.27L715.17,375.64z"/>
		<path class="st1" d="M730.53,376.59c2.88,0,5.05,6.5,6.5,19.49l1.07,3.25c2.17,0,3.25,0.72,3.25,2.15l-1.1,1.1v1.07
			c2.17,3.7,3.25,7.3,3.25,10.82v2.17h-2.15c-1.78,0-3.59-3.97-5.42-11.92h-9.74c-2.17,0.47-3.25,3.36-3.25,8.67l-3.25,2.17
			l-1.08-1.1v-1.08l9.74-32.48C728.36,378.03,729.08,376.59,730.53,376.59z M729.43,389.59l-3.25,10.82h5.42l1.08-1.08h1.1
			C732.16,392.83,730.71,389.59,729.43,389.59z"/>
		<path class="st1" d="M754.24,377.89h1.25c2.62,0,6.35,7.07,11.22,21.21c1.3,0,5.05-5.41,11.24-16.24l3.72-2.47h1.25
			c3.1,0,6.85,10.39,11.24,31.18v1.25l-2.5,2.5h-1.25c-1.85,0-4.76-8.32-8.74-24.96c-2.32,1.13-6.47,7.79-12.47,19.96h-2.5
			c-2.5,0-5.41-5.82-8.74-17.46h-2.47c-1.67,12.48-3.75,18.71-6.25,18.71l-2.5-2.5v-4.97C746.75,395.04,749.24,386.3,754.24,377.89z
			"/>
	</g>
</g>
<g>
</g>
<g>
</g>
<g>
</g>
<g>
</g>
<g>
</g>
<g>
</g>
</svg>
