<svg width="907" height="612" viewBox="0 0 907 612" fill="none" xmlns="http://www.w3.org/2000/svg">
<g filter="url(#filter0_bddi_1_83)">
<g clip-path="url(#clip0_1_83)">
<rect x="48" y="44" width="811" height="516" rx="12" fill="black" fill-opacity="0.6" shape-rendering="crispEdges"/>
<mask id="mask0_1_83" style="mask-type:alpha" maskUnits="userSpaceOnUse" x="25" y="86" width="772" height="497">
<path d="M25 86H797V583H25V86Z" fill="url(#paint0_linear_1_83)"/>
</mask>
<g mask="url(#mask0_1_83)">
<path d="M25 86H773C786.255 86 797 96.7452 797 110V559C797 572.255 786.255 583 773 583H49C35.7451 583 25 572.255 25 559V86Z" fill="white" fill-opacity="0.1"/>
<path d="M25.5 86.5H773C785.979 86.5 796.5 97.0213 796.5 110V559C796.5 571.979 785.979 582.5 773 582.5H49C36.0213 582.5 25.5 571.979 25.5 559V86.5Z" stroke="white" stroke-opacity="0.2"/>
</g>
<path d="M858 101.5H49V103.5H858V101.5Z" fill="white" fill-opacity="0.1" mask="url(#path-6-inside-1_1_83)"/>
<rect x="65" y="60.6875" width="24" height="25.125" rx="8" fill="white" fill-opacity="0.1"/>
<g clip-path="url(#clip1_1_83)">
<path fill-rule="evenodd" clip-rule="evenodd" d="M76.6622 70.4297C76.8736 70.6574 76.8604 71.0133 76.6328 71.2247L75.0574 72.6875H81.5C81.8107 72.6875 82.0625 72.9393 82.0625 73.25C82.0625 73.5607 81.8107 73.8125 81.5 73.8125H75.0574L76.6328 75.2753C76.8604 75.4867 76.8736 75.8426 76.6622 76.0703C76.4508 76.2979 76.0949 76.3111 75.8672 76.0997L73.2422 73.6622C73.1276 73.5558 73.0625 73.4064 73.0625 73.25C73.0625 73.0936 73.1276 72.9442 73.2422 72.8378L75.8672 70.4003C76.0949 70.1889 76.4508 70.2021 76.6622 70.4297Z" fill="white"/>
</g>
<rect x="97.5" y="57" width="255" height="32.5" rx="7.5" stroke="white" stroke-opacity="0.2"/>
<g clip-path="url(#clip2_1_83)">
<path fill-rule="evenodd" clip-rule="evenodd" d="M114.333 68.3097C113.792 68.574 113.294 68.9276 112.861 69.3609C112.008 70.2139 111.464 71.3183 111.301 72.5H113.486C113.564 70.813 113.895 69.5011 114.233 68.5714C114.266 68.4805 114.3 68.3933 114.333 68.3097ZM116.267 67.7803C116.269 67.7771 116.272 67.7739 116.274 67.7706L116.267 67.7803ZM116.274 67.7706C116.432 67.7569 116.59 67.75 116.75 67.75C116.91 67.75 117.068 67.7569 117.226 67.7706C117.228 67.7739 117.231 67.7771 117.233 67.7803M117.233 67.7803L117.239 67.7884C117.245 67.7976 117.256 67.8143 117.271 67.8386C117.302 67.8872 117.35 67.9659 117.409 68.0745C117.527 68.2918 117.691 68.6289 117.857 69.0848C118.143 69.8689 118.436 71.0082 118.512 72.5H114.988C115.064 71.0082 115.357 69.8689 115.643 69.0848C115.809 68.6289 115.973 68.2918 116.091 68.0745C116.15 67.9659 116.198 67.8872 116.229 67.8386C116.244 67.8143 116.255 67.7976 116.261 67.7884L116.267 67.7803M113.486 74H111.301C111.464 75.1817 112.008 76.2861 112.861 77.1391C113.294 77.5724 113.792 77.9259 114.333 78.1903C114.3 78.1067 114.266 78.0195 114.233 77.9286C113.895 76.9989 113.564 75.687 113.486 74ZM116.274 78.7294C116.432 78.7431 116.59 78.75 116.75 78.75C116.91 78.75 117.068 78.7431 117.226 78.7294C117.228 78.7261 117.231 78.7229 117.233 78.7197M117.233 78.7197L117.239 78.7116C117.245 78.7024 117.256 78.6857 117.271 78.6614C117.302 78.6128 117.35 78.5341 117.409 78.4255C117.527 78.2082 117.691 77.8711 117.857 77.4152C118.143 76.6311 118.436 75.4918 118.512 74H114.988C115.064 75.4918 115.357 76.6311 115.643 77.4152C115.809 77.8711 115.973 78.2082 116.091 78.4255C116.15 78.5341 116.198 78.6128 116.229 78.6614C116.244 78.6857 116.255 78.7024 116.261 78.7116L116.267 78.7196L116.266 78.7184L116.266 78.7176M120.014 74C119.936 75.687 119.605 76.9989 119.267 77.9286C119.234 78.0195 119.2 78.1067 119.167 78.1903C119.708 77.9259 120.206 77.5724 120.639 77.1391C121.492 76.2861 122.036 75.1817 122.199 74H120.014ZM122.199 72.5C122.036 71.3183 121.492 70.2139 120.639 69.3609C120.206 68.9276 119.708 68.574 119.167 68.3097C119.2 68.3933 119.234 68.4805 119.267 68.5714C119.605 69.5011 119.936 70.813 120.014 72.5H122.199ZM117.235 78.7171C117.235 78.7171 117.235 78.7171 117.235 78.7171L117.234 78.7184L117.235 78.7171ZM117.235 78.7171C117.235 78.7171 117.235 78.7171 117.235 78.7171V78.7171ZM116.274 78.7294C116.272 78.7261 116.269 78.7228 116.267 78.7196L116.274 78.7294ZM111.8 68.3003C113.113 66.9875 114.893 66.25 116.75 66.25C118.607 66.25 120.387 66.9875 121.7 68.3003C123.013 69.613 123.75 71.3935 123.75 73.25C123.75 75.1065 123.013 76.887 121.7 78.1997C120.387 79.5125 118.607 80.25 116.75 80.25C114.893 80.25 113.113 79.5125 111.8 78.1997C110.487 76.887 109.75 75.1065 109.75 73.25C109.75 71.3935 110.487 69.613 111.8 68.3003Z" fill="white"/>
</g>
<path d="M167.283 78.1991C166.618 78.1991 166.046 78.0422 165.565 77.7282C165.085 77.4143 164.716 76.9819 164.457 76.431C164.199 75.8801 164.07 75.2507 164.07 74.5429C164.07 73.8227 164.202 73.1872 164.467 72.6363C164.734 72.0823 165.107 71.6499 165.584 71.339C166.064 71.0251 166.624 70.8682 167.264 70.8682C167.763 70.8682 168.212 70.9605 168.612 71.1452C169.012 71.3298 169.34 71.5883 169.596 71.9207C169.851 72.2531 170.01 72.6409 170.071 73.0841H168.982C168.899 72.7609 168.714 72.4747 168.428 72.2254C168.145 71.973 167.763 71.8469 167.283 71.8469C166.858 71.8469 166.486 71.9577 166.166 72.1792C165.849 72.3978 165.601 72.7071 165.422 73.1072C165.247 73.5042 165.159 73.9704 165.159 74.5059C165.159 75.0538 165.245 75.5308 165.418 75.9371C165.593 76.3433 165.839 76.6588 166.156 76.8834C166.476 77.1081 166.852 77.2204 167.283 77.2204C167.566 77.2204 167.823 77.1712 168.054 77.0727C168.285 76.9742 168.48 76.8327 168.64 76.648C168.8 76.4633 168.914 76.2417 168.982 75.9832H170.071C170.01 76.4018 169.857 76.7788 169.614 77.1143C169.374 77.4466 169.055 77.7113 168.658 77.9083C168.265 78.1022 167.806 78.1991 167.283 78.1991Z" fill="white"/>
<path d="M161.217 78.0513V70.9604H162.307V78.0513H161.217ZM161.771 69.7785C161.559 69.7785 161.376 69.7062 161.222 69.5616C161.071 69.4169 160.996 69.243 160.996 69.0399C160.996 68.8368 161.071 68.6629 161.222 68.5182C161.376 68.3736 161.559 68.3013 161.771 68.3013C161.983 68.3013 162.165 68.3736 162.316 68.5182C162.47 68.6629 162.547 68.8368 162.547 69.0399C162.547 69.243 162.47 69.4169 162.316 69.5616C162.165 69.7062 161.983 69.7785 161.771 69.7785Z" fill="white"/>
<path d="M159.122 68.5967V78.0512H158.032V68.5967H159.122Z" fill="white"/>
<path d="M150.006 78.0512V68.5967H151.095V72.0867H151.187C151.268 71.9636 151.378 71.8067 151.52 71.6159C151.665 71.422 151.871 71.2496 152.138 71.0988C152.409 70.9449 152.776 70.868 153.237 70.868C153.834 70.868 154.361 71.0173 154.816 71.3158C155.272 71.6143 155.627 72.0375 155.882 72.5853C156.138 73.1331 156.266 73.7794 156.266 74.5242C156.266 75.2752 156.138 75.9261 155.882 76.477C155.627 77.0248 155.273 77.4495 154.821 77.7512C154.368 78.0497 153.847 78.199 153.256 78.199C152.8 78.199 152.435 78.1236 152.162 77.9727C151.888 77.8189 151.677 77.645 151.529 77.4511C151.381 77.2541 151.268 77.091 151.187 76.9617H151.058V78.0512H150.006ZM151.077 74.5058C151.077 75.0413 151.155 75.5137 151.312 75.923C151.469 76.3293 151.698 76.6478 152 76.8786C152.302 77.1064 152.671 77.2203 153.108 77.2203C153.563 77.2203 153.944 77.1002 154.248 76.8602C154.556 76.617 154.787 76.2908 154.941 75.8815C155.098 75.4691 155.176 75.0105 155.176 74.5058C155.176 74.0072 155.099 73.5579 154.945 73.1578C154.795 72.7546 154.565 72.436 154.257 72.2021C153.953 71.9652 153.57 71.8467 153.108 71.8467C152.665 71.8467 152.292 71.959 151.991 72.1837C151.689 72.4053 151.461 72.7161 151.308 73.1162C151.154 73.5132 151.077 73.9764 151.077 74.5058Z" fill="white"/>
<path d="M146.673 75.1522V70.9604H147.762V78.0514H146.673V76.8511H146.599C146.433 77.2112 146.174 77.5174 145.824 77.7698C145.473 78.019 145.03 78.1437 144.494 78.1437C144.051 78.1437 143.657 78.0467 143.312 77.8529C142.967 77.6559 142.697 77.3604 142.5 76.9665C142.303 76.5695 142.204 76.0694 142.204 75.4661V70.9604H143.294V75.3923C143.294 75.9093 143.438 76.3217 143.728 76.6295C144.02 76.9372 144.392 77.0911 144.845 77.0911C145.116 77.0911 145.391 77.0219 145.671 76.8834C145.954 76.7449 146.191 76.5325 146.382 76.2463C146.576 75.9601 146.673 75.5954 146.673 75.1522Z" fill="white"/>
<path d="M134 78.0512V68.5967H137.195C137.936 68.5967 138.543 68.7306 139.013 68.9983C139.487 69.263 139.838 69.6215 140.066 70.074C140.294 70.5264 140.408 71.0311 140.408 71.5882C140.408 72.1452 140.294 72.6515 140.066 73.107C139.841 73.5625 139.494 73.9256 139.023 74.1965C138.552 74.4642 137.949 74.5981 137.213 74.5981H134.923V73.5825H137.176C137.684 73.5825 138.092 73.4948 138.4 73.3193C138.707 73.1439 138.93 72.9069 139.069 72.6084C139.21 72.3068 139.281 71.9667 139.281 71.5882C139.281 71.2096 139.21 70.8711 139.069 70.5725C138.93 70.274 138.706 70.0401 138.395 69.8708C138.084 69.6985 137.672 69.6123 137.158 69.6123H135.145V78.0512H134Z" fill="white"/>
<g clip-path="url(#clip3_1_83)">
<path fill-rule="evenodd" clip-rule="evenodd" d="M333.74 71.3283C333.947 71.1327 334.273 71.1421 334.469 71.3491L337.016 74.0459L339.563 71.3491C339.758 71.1421 340.085 71.1327 340.292 71.3283C340.499 71.5238 340.508 71.8501 340.312 72.0572L337.39 75.1509C337.293 75.2541 337.157 75.3125 337.016 75.3125C336.874 75.3125 336.738 75.2541 336.641 75.1509L333.719 72.0572C333.523 71.8501 333.533 71.5238 333.74 71.3283Z" fill="white"/>
</g>
</g>
<rect x="48.5" y="44.5" width="810" height="515" rx="11.5" stroke="#8F8D91" stroke-opacity="0.2" shape-rendering="crispEdges"/>
</g>
<defs>
<filter id="filter0_bddi_1_83" x="-6" y="-10" width="919" height="624" filterUnits="userSpaceOnUse" color-interpolation-filters="sRGB">
<feFlood flood-opacity="0" result="BackgroundImageFix"/>
<feGaussianBlur in="BackgroundImageFix" stdDeviation="27"/>
<feComposite in2="SourceAlpha" operator="in" result="effect1_backgroundBlur_1_83"/>
<feColorMatrix in="SourceAlpha" type="matrix" values="0 0 0 0 0 0 0 0 0 0 0 0 0 0 0 0 0 0 127 0" result="hardAlpha"/>
<feMorphology radius="8" operator="dilate" in="SourceAlpha" result="effect2_dropShadow_1_83"/>
<feOffset dy="4"/>
<feGaussianBlur stdDeviation="20"/>
<feComposite in2="hardAlpha" operator="out"/>
<feColorMatrix type="matrix" values="0 0 0 0 0 0 0 0 0 0 0 0 0 0 0 0 0 0 0.4 0"/>
<feBlend mode="normal" in2="effect1_backgroundBlur_1_83" result="effect2_dropShadow_1_83"/>
<feColorMatrix in="SourceAlpha" type="matrix" values="0 0 0 0 0 0 0 0 0 0 0 0 0 0 0 0 0 0 127 0" result="hardAlpha"/>
<feMorphology radius="0.5" operator="dilate" in="SourceAlpha" result="effect3_dropShadow_1_83"/>
<feOffset/>
<feComposite in2="hardAlpha" operator="out"/>
<feColorMatrix type="matrix" values="0 0 0 0 0 0 0 0 0 0 0 0 0 0 0 0 0 0 0.8 0"/>
<feBlend mode="normal" in2="effect2_dropShadow_1_83" result="effect3_dropShadow_1_83"/>
<feBlend mode="normal" in="SourceGraphic" in2="effect3_dropShadow_1_83" result="shape"/>
<feColorMatrix in="SourceAlpha" type="matrix" values="0 0 0 0 0 0 0 0 0 0 0 0 0 0 0 0 0 0 127 0" result="hardAlpha"/>
<feMorphology radius="1" operator="erode" in="SourceAlpha" result="effect4_innerShadow_1_83"/>
<feOffset dy="0.5"/>
<feComposite in2="hardAlpha" operator="arithmetic" k2="-1" k3="1"/>
<feColorMatrix type="matrix" values="0 0 0 0 1 0 0 0 0 1 0 0 0 0 1 0 0 0 0.3 0"/>
<feBlend mode="normal" in2="shape" result="effect4_innerShadow_1_83"/>
</filter>
<linearGradient id="paint0_linear_1_83" x1="25" y1="583" x2="588.697" y2="-88.7874" gradientUnits="userSpaceOnUse">
<stop offset="0.1635" stop-color="white"/>
<stop offset="0.3966" stop-color="white" stop-opacity="0"/>
</linearGradient>
<clipPath id="clip0_1_83">
<rect x="48" y="44" width="811" height="516" rx="12" fill="white"/>
</clipPath>
<clipPath id="clip1_1_83">
<rect width="12" height="13.125" fill="white" transform="translate(71 66.6875)"/>
</clipPath>
<clipPath id="clip2_1_83">
<rect width="16" height="17.5" fill="white" transform="translate(108 64.5)"/>
</clipPath>
<clipPath id="clip3_1_83">
<rect width="11" height="12.0313" fill="white" transform="translate(331 67.2344)"/>
</clipPath>
</defs>
</svg>
