<?xml version="1.0" encoding="utf-8"?>
<!-- Generator: Adobe Illustrator 26.5.0, SVG Export Plug-In . SVG Version: 6.00 Build 0)  -->
<svg version="1.1" id="Layer_1" xmlns="http://www.w3.org/2000/svg" xmlns:xlink="http://www.w3.org/1999/xlink" x="0px" y="0px"
	 viewBox="0 0 1348.09 220.6" style="enable-background:new 0 0 1348.09 220.6;" xml:space="preserve">
<style type="text/css">
	.st0{fill:none;}
	.st1{fill:#FFFFFF;}
</style>
<g>
	<rect x="23.12" y="22.55" class="st0" width="1301.84" height="175.49"/>
	<path class="st1" d="M109.05,22.46h3.03l6.15,6.15v3.03c0,5.66-10.22,10.78-30.66,15.33L84.44,62.4l3.12,21.48V133l6.05,6.05
		c0-3.52,11.26-9.63,33.79-18.36l6.15,9.18V133c-19.73,19.01-46.32,34.34-79.79,46h-3.12l-9.18-9.18v-3.12
		c4.36-6.51,14.58-12.63,30.66-18.36l-3.03-61.43v-3.03l3.03-30.76h-3.03L32.29,62.4l-6.15-9.28v-3.03
		C26.14,39.61,53.78,30.4,109.05,22.46z"/>
	<path class="st1" d="M237.57,18.74v11.91c0,6.77-11.95,12.76-35.84,17.97l-12.01,119.53l5.96,23.93l-5.96,5.96h-5.96
		c-11.98,0-17.97-17.94-17.97-53.81l5.96-89.65h-41.8V36.71L237.57,18.74z"/>
	<path class="st1" d="M323.11,27.53H328c10.22,0,24.84,27.64,43.85,82.91c5.08,0,19.73-21.16,43.95-63.48l14.55-9.67h4.88
		c12.11,0,26.76,40.62,43.95,121.88v4.88l-9.77,9.77h-4.88c-7.23,0-18.62-32.52-34.18-97.56c-9.05,4.43-25.29,30.44-48.73,78.03
		h-9.77c-9.77,0-21.16-22.75-34.18-68.26H328c-6.51,48.76-14.65,73.14-24.41,73.14l-9.77-9.77v-19.43
		C293.82,94.56,303.58,60.41,323.11,27.53z"/>
	<path class="st1" d="M542.65,22.46c11.26,0,19.73,25.39,25.39,76.17l4.2,12.7c8.46,0,12.7,2.8,12.7,8.4l-4.3,4.3v4.2
		c8.46,14.45,12.7,28.55,12.7,42.29v8.5h-8.4c-6.97,0-14.03-15.53-21.19-46.58h-38.09c-8.46,1.82-12.7,13.12-12.7,33.89l-12.7,8.5
		l-4.2-4.3v-4.2l38.09-126.95C534.15,28.09,536.98,22.46,542.65,22.46z M538.35,73.24l-12.7,42.29h21.19l4.2-4.2h4.3
		C549.03,85.93,543.36,73.24,538.35,73.24z"/>
	<path class="st1" d="M646.75,22.46c38.22,0,57.32,8.92,57.32,26.76c0,14.19-16.57,35.81-49.71,64.84v3.91
		c53.45,8.85,80.18,21.55,80.18,38.09c0,5.86-6.35,9.7-19.04,11.52c0-5.79-31.8-17.25-95.41-34.38l7.62,41.99L623.9,179h-3.81
		c-8.4,0-14.78-15.27-19.14-45.8c-3.32-27.99-5.86-59.8-7.62-95.41L646.75,22.46z M616.28,68.26v11.52v3.81v19.04l3.81,3.81
		c14.78-5.92,35.12-23.73,61.04-53.42v-7.62h-7.62C635.35,45.41,616.28,53.02,616.28,68.26z"/>
	<path class="st1" d="M792.94,22.46c11.26,0,19.73,25.39,25.39,76.17l4.2,12.7c8.46,0,12.7,2.8,12.7,8.4l-4.3,4.3v4.2
		c8.46,14.45,12.7,28.55,12.7,42.29v8.5h-8.4c-6.97,0-14.03-15.53-21.19-46.58h-38.09c-8.46,1.82-12.7,13.12-12.7,33.89l-12.7,8.5
		l-4.2-4.3v-4.2l38.09-126.95C784.44,28.09,787.27,22.46,792.94,22.46z M788.64,73.24l-12.7,42.29h21.19l4.2-4.2h4.3
		C799.32,85.93,793.65,73.24,788.64,73.24z"/>
	<path class="st1" d="M948.51,21.38l12.6,12.6c-13.54,10.09-32.46,16.41-56.74,18.95v37.79l6.25,69.34L904.36,179h-12.6
		l-12.6-113.48v-6.35l-44.14,6.35l-6.35-6.35v-6.25C828.68,38.67,868.62,28.15,948.51,21.38z"/>
	<path class="st1" d="M1055.93,23.14l10.84,10.84v25.39l-3.61,14.55l3.61,3.61v3.61l-3.61,36.23l7.23,58.01l-3.61,3.61h-3.61
		c-7.62-5.21-14.88-29.36-21.78-72.46h-3.61c-26.76,9.38-41.24,16.6-43.46,21.68v14.55l7.23,10.84c0,12.57-3.61,19.82-10.84,21.78
		c-8.27,0-14.32-24.15-18.16-72.46l3.61-68.95l10.84-7.23c4.88,0,7.32,3.61,7.32,10.84l-3.61,36.33l3.61,3.61v3.61l-3.61,14.45
		l3.61,3.61c33.79-8.01,50.68-14.03,50.68-18.07C1044.99,42.48,1048.64,23.14,1055.93,23.14z"/>
	<path class="st1" d="M1154.27,31.93h19.14c19.21,14.78,28.81,38.74,28.81,71.88c-20.18,44.79-55.34,67.19-105.47,67.19
		c-16.02-16.54-24.02-30.92-24.02-43.16v-4.79C1095.58,62.3,1122.76,31.93,1154.27,31.93z M1087.08,137.4l14.45,9.57h4.79
		c30.6,0,56.18-14.39,76.76-43.16V84.66c0-22.4-9.6-33.59-28.81-33.59C1119.7,67.8,1097.3,96.58,1087.08,137.4z"/>
	<path class="st1" d="M1319.01,23.14l4.39,4.49l-4.39,44.53v40.04v8.89v4.49c-3,17.77-7.46,26.66-13.38,26.66h-8.89
		c0-15.95-19.3-39.68-57.91-71.19h-4.49l13.38,93.46l-4.39,4.49h-4.49c-14.84-24.22-22.27-55.4-22.27-93.55V49.9l8.89-8.98h8.89
		c35.68,32.68,53.52,51.99,53.52,57.91h8.89v-4.39C1298.7,46.9,1306.12,23.14,1319.01,23.14z"/>
</g>
<g>
</g>
<g>
</g>
<g>
</g>
<g>
</g>
<g>
</g>
</svg>
