<?xml version="1.0" encoding="utf-8"?>
<!-- Generator: Adobe Illustrator 26.5.0, SVG Export Plug-In . SVG Version: 6.00 Build 0)  -->
<svg version="1.1" id="Layer_1" xmlns="http://www.w3.org/2000/svg" xmlns:xlink="http://www.w3.org/1999/xlink" x="0px" y="0px"
	 viewBox="0 0 1920 1080" style="enable-background:new 0 0 1920 1080;" xml:space="preserve">
<style type="text/css">
	.st0{filter:url(#Adobe_OpacityMaskFilter);}
	.st1{fill:#FFFFFF;}
	.st2{mask:url(#SVGID_1_);}
</style>
<g>
	<g>
		<defs>
			<filter id="Adobe_OpacityMaskFilter" filterUnits="userSpaceOnUse" x="116.41" y="411.47" width="1740.8" height="291.25">
				
					<feColorMatrix  type="matrix" values="-1 0 0 0 1  0 -1 0 0 1  0 0 -1 0 1  0 0 0 1 0" color-interpolation-filters="sRGB" result="source"/>
				<feFlood  style="flood-color:white;flood-opacity:1" result="back"/>
				<feBlend  in="source" in2="back" mode="normal"/>
			</filter>
		</defs>
		<mask maskUnits="userSpaceOnUse" x="116.41" y="411.47" width="1740.8" height="291.25" id="SVGID_1_">
			<g class="st0">
				<path class="st1" d="M933.71,614.67v-0.56c0.01-1.61,0.26-3.16,0.72-4.65c-1.65-0.06-3.35-0.09-5.09-0.09
					c-15.11,0-27.35,2.2-27.35,4.92c0,2.72,12.25,4.92,27.35,4.92c1.72,0,3.4-0.03,5.03-0.09
					C933.88,617.7,933.65,616.22,933.71,614.67z"/>
				<path class="st1" d="M814.29,661.98c-0.2-1.45-0.41-2.9-0.61-4.36c-0.02-0.46,0-0.9,0.03-1.35
					c-11.54-0.64-25.95-1.02-41.64-1.02c-37.77,0-68.38,2.2-68.38,4.92s30.62,4.92,68.38,4.92c16.28,0,31.21-0.41,42.95-1.09
					C814.74,663.34,814.49,662.67,814.29,661.98z"/>
				<ellipse class="st1" cx="153.22" cy="679.83" rx="68.38" ry="4.92"/>
				<path class="st1" d="M1349.89,645.42c-13.66,0-26.29,0.3-36.94,0.79c-0.23,2.89-1.15,5.7-2.75,8.11
					c11.19,0.58,24.84,0.93,39.7,0.93c37.77,0,68.38-2.2,68.38-4.92S1387.66,645.42,1349.89,645.42z"/>
				<ellipse class="st1" cx="315.62" cy="638.86" rx="46.16" ry="3.28"/>
				<ellipse class="st1" cx="1486.65" cy="686.38" rx="27.35" ry="4.92"/>
				<path class="st1" d="M1163.01,646.46v-0.56c0-1.21,0.17-2.38,0.43-3.52c-2.66-0.15-5.49-0.24-8.43-0.24
					c-15.11,0-27.35,2.2-27.35,4.92s12.25,4.92,27.35,4.92c3.15,0,6.16-0.1,8.97-0.28C1163.27,650.05,1162.93,648.31,1163.01,646.46
					z"/>
				<path class="st1" d="M701.49,590.23c0.16-1.28,0.34-2.54,0.53-3.79c-18.11,0.13-32.53,2.27-32.53,4.9
					c0,2.58,13.83,4.69,31.41,4.9C701.04,594.23,701.25,592.22,701.49,590.23z"/>
				<path class="st1" d="M594.28,671.64c-1.93,0-3.82,0.04-5.64,0.11c0.67,3.17,0.48,6.54-0.59,9.59c2,0.08,4.08,0.13,6.23,0.13
					c15.11,0,27.35-2.2,27.35-4.92S609.38,671.64,594.28,671.64z"/>
				<path class="st1" d="M1790.98,660.52c0.19-0.74,0.39-1.49,0.58-2.23c0.2-0.77,0.51-1.49,0.83-2.2c0.37-1.4,1.05-2.65,1.88-3.8
					c-7.43-0.2-15.44-0.31-23.83-0.31c-37.77,0-68.38,2.2-68.38,4.92c0,2.72,30.62,4.92,68.38,4.92c7.09,0,13.93-0.08,20.36-0.22
					C1790.86,661.23,1790.89,660.86,1790.98,660.52z"/>
				<ellipse class="st1" cx="554.96" cy="599.53" rx="29.06" ry="3.28"/>
				<ellipse class="st1" cx="377.17" cy="609.37" rx="29.06" ry="3.28"/>
				<path class="st1" d="M1277.11,619.56c-2.79-0.23-5.94-0.36-9.28-0.36c-11.33,0-20.51,1.47-20.51,3.28
					c0,1.81,9.18,3.28,20.51,3.28c3.86,0,7.47-0.17,10.55-0.47C1277.64,623.47,1277.22,621.52,1277.11,619.56z"/>
				<ellipse class="st1" cx="185.7" cy="589.7" rx="22.22" ry="3.28"/>
				<ellipse class="st1" cx="426.74" cy="660.17" rx="44.45" ry="4.92"/>
				<path class="st1" d="M1199.45,671.64c-2.17,0-4.3,0.03-6.37,0.07c0.46,1.37,0.68,2.81,0.62,4.32c0,0.04,0,0.08-0.01,0.12
					c-0.2,1.45-0.41,2.9-0.61,4.36c-0.01,0.04-0.02,0.08-0.03,0.12c-0.08,0.25-0.19,0.5-0.27,0.76c2.17,0.05,4.39,0.09,6.67,0.09
					c20.77,0,37.61-2.2,37.61-4.92S1220.22,671.64,1199.45,671.64z"/>
				<ellipse class="st1" cx="1524.26" cy="622.48" rx="27.35" ry="3.28"/>
				<path class="st1" d="M1549.91,658.53c-2.05,0-4.05,0.02-5.98,0.07c0.36,2.17-0.16,4.41-1.57,6.37c2.41,0.07,4.93,0.12,7.54,0.12
					c16.05,0,29.06-1.47,29.06-3.28C1578.97,659.99,1565.96,658.53,1549.91,658.53z"/>
				<path class="st1" d="M1671.28,625.75c-4.26,0-8.32,0.09-12.02,0.26c0.24,2.02,0.43,4.04,0.64,6.06
					c3.52,0.15,7.35,0.23,11.37,0.23c16.99,0,30.77-1.47,30.77-3.28C1702.05,627.22,1688.28,625.75,1671.28,625.75z"/>
				<ellipse class="st1" cx="130.99" cy="632.31" rx="32.48" ry="3.28"/>
				<path class="st1" d="M1096.88,592.98c-3.15,0-6.19,0.04-9.09,0.12c-0.17,1.56-0.63,3.05-1.4,4.45
					c-0.22,0.64-0.57,1.21-0.88,1.79c3.56,0.12,7.38,0.19,11.38,0.19c18.88,0,34.19-1.47,34.19-3.28
					C1131.07,594.45,1115.76,592.98,1096.88,592.98z"/>
			</g>
		</mask>
		<g class="st2">
			<path d="M298.93,473.88h-43.41l-46.66,166.43h43.41l5.86-20.8h86.81l-11.5,41.61l-55.13,41.61H148.09l-31.69-41.61l58.16-208.03
				l54.91-41.61H359.7l31.9,41.61l-11.72,41.61h-86.81L298.93,473.88z"/>
			<path d="M572.17,661.11l-55.13,41.61H386.83l-31.69-41.61l58.16-208.03l55.34-41.61h129.78l31.9,41.61L572.17,661.11z
				 M491,640.31l46.66-166.43h-43.41L447.6,640.31H491z"/>
			<path d="M810.9,661.11l-55.13,41.61H582.15l81.39-291.25h173.62l31.9,41.61L810.9,661.11z M729.74,640.31l46.66-166.43h-43.41
				l-46.66,166.43H729.74z"/>
			<path d="M971.72,473.88l-14.54,52.01h130.22l-17.58,62.41H939.6l-14.54,52.01h130.22l-17.36,62.41H864.29l-31.69-41.61
				l58.16-208.03l54.91-41.61h173.62l-17.36,62.41H971.72z"/>
			<path d="M1177.47,598.7h-1.95l-29.08,104.02h-86.81l81.39-291.25h173.62l31.9,41.61l-29.08,104.02l-48.83,36.82l24.31,108.8
				h-92.24L1177.47,598.7z M1253.86,473.88h-43.41l-17.58,62.41h43.41L1253.86,473.88z"/>
			<path d="M1466.55,411.47l-64.02,228.84h43.41l64.02-228.84h86.81l-69.67,249.64l-55.13,41.61h-130.22l-31.69-41.61l69.67-249.64
				H1466.55z"/>
			<path d="M1657.1,584.14l-33.21,118.58h-86.81l81.39-291.25h92.24l26.48,118.58l33.21-118.58h86.81l-81.39,291.25h-92.24
				L1657.1,584.14z"/>
		</g>
		<g>
			<ellipse cx="133.97" cy="627.56" rx="29.06" ry="1.64"/>
			<path d="M161.63,685.36c-6.88-0.28-14.49-0.44-22.54-0.44c-30.21,0-54.71,2.2-54.71,4.92s24.49,4.92,54.71,4.92
				c7.32,0,14.24-0.14,20.63-0.38C159.56,691.26,160.2,688.11,161.63,685.36z"/>
			<path d="M386.55,583.93c-23.19,0.84-38.89,2.45-38.89,4.3c0,1.9,16.58,3.55,40.81,4.37C387.13,589.91,386.46,586.9,386.55,583.93
				z"/>
			<ellipse cx="510.07" cy="684.91" rx="66.67" ry="3.28"/>
			<ellipse cx="790.43" cy="668.53" rx="49.58" ry="3.28"/>
			<ellipse cx="944.29" cy="622.64" rx="29.06" ry="3.28"/>
			<path d="M1158.53,659.76c0.88,1.41,1.55,2.94,1.97,4.55c16.18-0.24,28.24-1.16,28.24-2.26
				C1188.75,660.91,1175.7,659.96,1158.53,659.76z"/>
			<ellipse cx="1207.55" cy="683.27" rx="29.06" ry="1.64"/>
			<path d="M1328.28,639.94c0-0.27,0.07-0.51,0.08-0.78c-21.38,0.39-37.04,1.65-37.04,3.15c0,1.52,16.18,2.79,38.1,3.16
				C1328.7,643.65,1328.28,641.76,1328.28,639.94z"/>
			<path d="M1508.58,678.4c-1.48,0.51-3.1,0.92-4.86,1.26c1.08-0.22,2.16-0.45,3.24-0.67c-2.75,0.62-5.24,1.52-7.89,2.24
				c-0.55,0.15-1.11,0.28-1.67,0.41c16.56-0.03,29.84-0.77,29.84-1.68C1527.24,679.25,1519.55,678.65,1508.58,678.4z"/>
			<ellipse cx="1788.8" cy="648.86" rx="42.74" ry="3.28"/>
			<path d="M1305.3,567.41c-1.04,2.16-2.59,4.13-4.7,5.74c18.78-0.53,31.74-1.65,31.74-2.94
				C1332.35,569.02,1321.5,567.99,1305.3,567.41z"/>
			<path d="M1544.07,578.01c-1.04,2.16-2.59,4.13-4.7,5.74c18.78-0.53,31.74-1.65,31.74-2.94
				C1571.12,579.62,1560.27,578.58,1544.07,578.01z"/>
			<path d="M1824.43,528.85c-1.04,2.16-2.59,4.13-4.7,5.74c18.78-0.53,31.74-1.65,31.74-2.94
				C1851.48,530.46,1840.63,529.42,1824.43,528.85z"/>
			<path d="M466.7,584.56c-1.04,2.16-2.59,4.13-4.7,5.74c18.78-0.53,31.74-1.65,31.74-2.94C493.75,586.17,482.9,585.14,466.7,584.56
				z"/>
			<path d="M241.04,525.57c-1.04,2.16-2.59,4.13-4.7,5.74c18.78-0.53,31.74-1.65,31.74-2.94
				C268.09,527.18,257.24,526.14,241.04,525.57z"/>
			<path d="M851.6,486.24c-1.04,2.16-2.59,4.13-4.7,5.74c18.78-0.53,31.74-1.65,31.74-2.94C878.65,487.85,867.8,486.82,851.6,486.24
				z"/>
			<path d="M697.74,581.28c-1.04,2.16-2.59,4.13-4.7,5.74c18.78-0.53,31.74-1.65,31.74-2.94
				C724.79,582.89,713.94,581.86,697.74,581.28z"/>
			<path d="M916.05,630.44c-1.04,2.16-2.59,4.13-4.7,5.74c18.78-0.53,31.74-1.65,31.74-2.94
				C943.1,632.05,932.25,631.02,916.05,630.44z"/>
			<path d="M1039.14,679.6c-1.04,2.16-2.59,4.13-4.7,5.74c18.78-0.53,31.74-1.65,31.74-2.94
				C1066.19,681.21,1055.34,680.18,1039.14,679.6z"/>
			<path d="M1268.65,614.06c-1.04,2.16-2.59,4.13-4.7,5.74c18.78-0.53,31.74-1.65,31.74-2.94
				C1295.7,615.67,1284.85,614.63,1268.65,614.06z"/>
			<path d="M311.44,672.63c0.03,0.33,0.12,0.65,0.14,0.99c0.06,1.35-0.1,2.66-0.43,3.93c13.97-0.6,22.83-1.48,22.83-2.46
				C333.98,674.1,325.24,673.23,311.44,672.63z"/>
		</g>
	</g>
	<g>
		<ellipse class="st1" cx="112.37" cy="593.37" rx="29.06" ry="1.64"/>
		<path class="st1" d="M140.03,651.16c-6.88-0.28-14.49-0.44-22.54-0.44c-30.21,0-54.71,2.2-54.71,4.92s24.49,4.92,54.71,4.92
			c7.32,0,14.24-0.14,20.63-0.38C137.96,657.06,138.6,653.91,140.03,651.16z"/>
		<path class="st1" d="M364.95,549.73c-23.19,0.84-38.89,2.45-38.89,4.3c0,1.9,16.58,3.55,40.81,4.37
			C365.53,555.72,364.86,552.7,364.95,549.73z"/>
		<ellipse class="st1" cx="488.47" cy="650.72" rx="66.67" ry="3.28"/>
		<ellipse class="st1" cx="768.83" cy="634.33" rx="49.58" ry="3.28"/>
		<ellipse class="st1" cx="922.69" cy="588.45" rx="29.06" ry="3.28"/>
		<path class="st1" d="M1134.08,623.3c0.88,1.41,1.55,2.94,1.97,4.55c16.18-0.24,28.24-1.16,28.24-2.26
			C1164.29,624.44,1151.24,623.49,1134.08,623.3z"/>
		<ellipse class="st1" cx="1185.96" cy="649.08" rx="29.06" ry="1.64"/>
		<path class="st1" d="M1306.68,605.74c0-0.27,0.07-0.51,0.08-0.78c-21.38,0.39-37.04,1.65-37.04,3.15c0,1.52,16.18,2.79,38.1,3.16
			C1307.1,609.46,1306.68,607.57,1306.68,605.74z"/>
		<path class="st1" d="M1484.42,642.93c-1.48,0.51-3.1,0.92-4.86,1.26c1.08-0.22,2.16-0.45,3.24-0.67
			c-2.75,0.62-5.24,1.52-7.89,2.24c-0.55,0.15-1.11,0.28-1.67,0.41c16.56-0.03,29.84-0.77,29.84-1.68
			C1503.08,643.79,1495.39,643.19,1484.42,642.93z"/>
		<ellipse class="st1" cx="1767.2" cy="614.67" rx="42.74" ry="3.28"/>
		<path class="st1" d="M1280.15,530.35c-1.04,2.16-2.59,4.13-4.7,5.74c18.78-0.53,31.74-1.65,31.74-2.94
			C1307.19,531.96,1296.35,530.92,1280.15,530.35z"/>
		<path class="st1" d="M1522.47,543.81c-1.04,2.16-2.59,4.13-4.7,5.74c18.77-0.53,31.74-1.65,31.74-2.94
			C1549.52,545.42,1538.67,544.39,1522.47,543.81z"/>
		<path class="st1" d="M1802.83,494.65c-1.04,2.16-2.59,4.13-4.7,5.74c18.78-0.53,31.74-1.65,31.74-2.94
			C1829.88,496.26,1819.03,495.23,1802.83,494.65z"/>
		<path class="st1" d="M440.62,550.37c-1.04,2.08-2.59,3.97-4.7,5.51c18.77-0.51,31.74-1.58,31.74-2.83
			C467.67,551.91,456.82,550.92,440.62,550.37z"/>
		<path class="st1" d="M223.91,476.42c-1.04,2.16-2.59,4.13-4.7,5.74c18.78-0.53,31.74-1.65,31.74-2.94
			C250.96,478.03,240.11,477,223.91,476.42z"/>
		<path class="st1" d="M830,452.05c-1.04,2.16-2.59,4.13-4.7,5.74c18.78-0.53,31.74-1.65,31.74-2.94
			C857.05,453.66,846.2,452.62,830,452.05z"/>
		<path class="st1" d="M676.14,547.09c-1.04,2.16-2.59,4.13-4.7,5.74c18.78-0.53,31.74-1.65,31.74-2.94
			C703.19,548.7,692.34,547.67,676.14,547.09z"/>
		<path class="st1" d="M894.45,596.25c-1.04,2.16-2.59,4.13-4.7,5.74c18.78-0.53,31.74-1.65,31.74-2.94
			C921.5,597.86,910.65,596.83,894.45,596.25z"/>
		<path class="st1" d="M1017.54,645.41c-1.04,2.16-2.59,4.13-4.7,5.74c18.78-0.53,31.74-1.65,31.74-2.94
			C1044.59,647.02,1033.74,645.98,1017.54,645.41z"/>
		<path class="st1" d="M1247.05,579.86c-1.04,2.16-2.59,4.13-4.7,5.74c18.78-0.53,31.74-1.65,31.74-2.94
			C1274.1,581.47,1263.25,580.44,1247.05,579.86z"/>
		<path class="st1" d="M295.76,635.98c0.03,0.33,0.12,0.65,0.14,0.99c0.06,1.35-0.1,2.66-0.43,3.93c13.97-0.6,22.83-1.48,22.83-2.46
			C318.3,637.45,309.56,636.58,295.76,635.98z"/>
	</g>
	<g>
		<path class="st1" d="M124.78,634.28c0.58-28.46,1.15-56.92,1.72-85.38c8.62-5.32,17.25-10.64,25.87-15.95
			c0.65-38.36,1.29-76.72,1.94-115.09l-1.34,1.02L94.81,626.92l31.69,41.61h43.17c-0.16-1.35-0.31-2.7-0.47-4.06
			C154.39,654.41,139.59,644.35,124.78,634.28z"/>
		<path class="st1" d="M358.28,460.49L370,418.89l-31.9-41.61h-24.72c0.5,27.74,1,55.48,1.5,83.21H358.28z"/>
		<path class="st1" d="M269.92,439.69h7.41l-5.86,20.8h38.04c-0.82-27.74-1.63-55.48-2.45-83.21h-33.4
			c-0.61,20.41-1.23,40.83-1.84,61.24C271.19,438.91,270.55,439.3,269.92,439.69z"/>
		<path class="st1" d="M219.22,492.15l7.21-25.73c-2.4,1.48-4.81,2.96-7.21,4.43C219.22,477.96,219.22,485.06,219.22,492.15z"/>
		<path class="st1" d="M175.66,617.04c1.63-73.01,3.25-146.03,4.88-219.04l-22.17,16.8c-0.13,40.1-0.25,80.21-0.38,120.31
			c-8.77,5.32-17.54,10.64-26.3,15.95c0.14,27.31,0.29,54.62,0.43,81.93c14.8,9.92,29.61,19.83,44.41,29.75
			c-0.06,1.93-0.12,3.85-0.18,5.78h48.47c0-5.38,0-10.75,0-16.13C208.44,640.61,192.05,628.82,175.66,617.04z"/>
		<path class="st1" d="M290.43,631.75c3.38,1.3,5.73,3.86,5.94,6.85l15.47-11.68l11.5-41.61h-30.93
			C291.75,600.79,291.09,616.27,290.43,631.75z"/>
		<path class="st1" d="M274.41,639.03c0-3.93,3.71-7.21,8.66-8c0.38-15.24,0.77-30.47,1.15-45.71H255c0,8.15,0,16.29,0,24.44
			c4.27,1.13,7.33,4.15,7.33,7.72c0,4.52-4.92,8.19-11,8.19c-6.07,0-11-3.67-11-8.19c0-3.78,3.44-6.96,8.12-7.9
			c-0.32-8.08-0.64-16.17-0.96-24.26h-10.98l-5.86,20.8h-43.41l24.79-88.41c0.09-16.48,0.18-32.95,0.26-49.43
			c5.35-2.93,10.71-5.86,16.06-8.79l5.55-19.79h30.59c0.71-0.39,1.42-0.78,2.13-1.17c0.13-20.41,0.25-40.83,0.38-61.24h-59.14
			l-23.02,17.44c-1.34,73.53-2.68,147.06-4.03,220.59c16.82,11.21,33.63,22.42,50.45,33.63c0,6.53,0,13.05,0,19.58h25.42
			l28.25-21.32C279.1,647.03,274.41,643.44,274.41,639.03z"/>
		<path class="st1" d="M457.42,494.05l10.25-36.57c-0.23-26.74-0.46-53.47-0.69-80.21h-19.93l-32.21,24.21
			c-0.59,21.18-1.19,42.35-1.78,63.53C427.85,474.7,442.63,484.37,457.42,494.05z"/>
		<path class="st1" d="M586.5,496.76c0,0.55,0,1.1,0,1.64l22.23-79.52l-31.9-41.61h-43.04c0,29.06,0,58.12,0,87.18
			C551.36,475.22,568.93,485.99,586.5,496.76z"/>
		<path class="st1" d="M580.84,501.01c-17.38-11.05-34.76-22.11-52.14-33.16c0.09-30.19,0.17-60.38,0.26-90.58H473.5
			c0.14,20.8,0.27,41.61,0.41,62.41h42.16l-13.3,47.42c0.52-0.85,1.03-1.69,1.55-2.54c9.26,5.67,18.52,11.34,27.77,17
			c-0.27,23.36-0.55,46.71-0.82,70.07c5.09,0.76,8.89,3.71,8.89,7.23c0,4.1-5.14,7.43-11.48,7.43c-6.34,0-11.48-3.33-11.48-7.43
			c0-3.54,3.82-6.49,8.93-7.24c0-22.41,0-44.82,0-67.23c-8.07-4.77-16.14-9.54-24.21-14.31L469.4,606.12H426l29.63-105.67
			c-16.08-10.86-32.15-21.73-48.23-32.59c0.08-20.32,0.16-40.63,0.24-60.95l-15.93,11.98l-10.45,37.37
			c-0.45,37.65-0.89,75.3-1.34,112.95c5.11,1.09,8.77,4.02,8.77,7.47c0,4.38-5.9,7.93-13.18,7.93c-7.28,0-13.18-3.55-13.18-7.93
			c0-4.18,5.37-7.6,12.19-7.91c0.17-30.07,0.33-60.15,0.5-90.22l-41.48,148.37l31.69,41.61h130.22l55.13-41.61l29.91-106.98
			C580.6,513.63,580.72,507.32,580.84,501.01z"/>
		<path class="st1" d="M775.63,501.04c0.2-0.01,0.39-0.02,0.59-0.03c-4.67-0.98-8.05-3.81-8.05-7.15c0-4.15,5.2-7.52,11.61-7.52
			c6.41,0,11.61,3.37,11.61,7.52c0,3.34-3.37,6.17-8.03,7.15c-0.28,18.82-0.57,37.63-0.85,56.45c7.3,5.15,14.6,10.31,21.89,15.46
			l43.06-154.03l-31.9-41.61H641.94l-81.39,291.25h158.79c0.41-18.7,0.82-37.39,1.23-56.09c-4.01-2.58-8.03-5.15-12.04-7.73
			l-0.39,1.41h-43.41l7.01-25.02c-2.94-1.88-5.87-3.77-8.81-5.65c0-29.94,0-59.87,0-89.81c-3.99-1.19-6.77-3.79-6.77-6.83
			c0-4.15,5.2-7.52,11.61-7.52c6.41,0,11.61,3.37,11.61,7.52c0,3.9-4.58,7.1-10.44,7.48c0,28.28,0,56.57,0,84.85
			c1.56,1.07,3.11,2.15,4.67,3.22l37.76-134.68h43.41l-26.64,95.03c0.48,10.85,0.97,21.7,1.45,32.55
			c21.19,15.25,42.39,30.51,63.58,45.76l9.87-35.29c-9-5.64-18-11.28-26.99-16.92C775.92,540.9,775.77,520.97,775.63,501.04z"/>
		<path class="st1" d="M723.66,550.73l-13.65,48.69c5.67,3.91,11.34,7.81,17.01,11.72c0.13,19.13,0.27,38.25,0.4,57.38h6.75
			l55.13-41.61l2.05-7.32c-22.16-15.15-44.32-30.29-66.48-45.44C724.47,566.35,724.07,558.54,723.66,550.73z"/>
		<path class="st1" d="M1048.22,554.11l17.58-62.41h-41.71c0,20.8,0,41.61,0,62.41H1048.22z"/>
		<path class="st1" d="M821.48,589.46l-10.47,37.46l31.69,41.61h12.1c0.28-19.41,0.55-38.83,0.83-58.24
			C844.25,603.35,832.86,596.41,821.48,589.46z"/>
		<path class="st1" d="M988.05,554.11h33.8c0-12.05,0-47.28,0-62.41h-33.82c-0.15,20.29-0.3,40.57-0.45,60.86
			C987.74,553.08,987.89,553.59,988.05,554.11z"/>
		<path class="st1" d="M1028.04,626.38l5.64-20.26h-36.36c-11.45,7.02-22.89,14.05-34.34,21.07c-0.54,13.78-1.08,27.56-1.62,41.34
			h38.66c0.36-8.5,0.72-17,1.09-25.5C1010.08,637.48,1019.06,631.93,1028.04,626.38z"/>
		<path class="st1" d="M986.71,606.12h-83.25L918,554.11h63.39c-0.06-0.26-0.13-0.52-0.19-0.78c0.1-20.54,0.2-41.09,0.3-61.63
			h-45.92l14.54-52.01h30.66c-4.04-1.13-6.87-3.72-6.87-6.75c0-4.06,5.08-7.35,11.35-7.35c6.27,0,11.35,3.29,11.35,7.35
			c0,3.03-2.83,5.62-6.87,6.75h81.39c-7.37-4.63-14.74-9.27-22.11-13.9c0.28-0.36,0.57-0.71,0.85-1.07
			c-1.59,0.55-3.41,0.86-5.34,0.86c-6.27,0-11.35-3.29-11.35-7.35s5.08-7.35,11.35-7.35c6.27,0,11.35,3.29,11.35,7.35
			c0,1.56-0.76,3-2.04,4.19c8.98,5.19,17.96,10.38,26.94,15.57l16.89-60.73H924.08l-54.91,41.61L822.7,585.1
			c12.98,7.68,25.97,15.36,38.95,23.04c-0.14,20.13-0.28,40.26-0.41,60.39h31.4c0.71-56.71,1.42-113.42,2.13-170.14
			c-5.8-0.42-10.32-3.6-10.32-7.47c0-4.15,5.2-7.52,11.61-7.52c6.41,0,11.61,3.37,11.61,7.52c0,3.38-3.45,6.24-8.19,7.19
			c-0.7,56.81-1.41,113.61-2.11,170.42h59.19c0.18-14.48,0.36-28.96,0.54-43.44C966.97,618.76,976.84,612.44,986.71,606.12z"/>
		<path class="st1" d="M1025.83,634.33c-6.19,3.83-12.37,7.67-18.56,11.5c-0.47,7.47-0.93,14.95-1.4,22.42
			c-0.47,0.09-0.95,0.18-1.42,0.27h11.87L1025.83,634.33z"/>
		<path class="st1" d="M1295.85,522.9l14.48-51.78c-26.74-14.95-53.49-29.9-80.23-44.85c0.54-16.33,1.09-32.67,1.63-49h-112.32
			l-7.86,28.11c16.07,9.74,32.14,19.49,48.21,29.23c0,31.25,0,62.51,0,93.76c-9.25,5.33-18.5,10.65-27.75,15.98
			c-0.84,35.46-1.68,70.92-2.52,106.38c-1.68,5.47-3.36,10.93-5.05,16.4c0.84-42.19,1.68-84.37,2.52-126.56
			c8.55-4.49,17.1-8.97,25.65-13.45c0.28-29.85,0.56-59.7,0.84-89.56c-14.57-8.56-29.14-17.13-43.71-25.69l-10.63,38.06
			c1.86,1.76,3.71,3.53,5.57,5.29c-1.66,71.1-3.31,142.2-4.97,213.3h25.13l29.08-104.02h1.95l23.22,104.02h92.24l-24.31-108.8
			L1295.85,522.9z M1214.68,502.1h-43.41l17.58-62.41h43.41L1214.68,502.1z"/>
		<path class="st1" d="M1097.75,454.79l-30.89,110.54c-0.71,15.57-1.42,31.15-2.12,46.72c-4.24,2.12-8.47,4.24-12.71,6.35l-14,50.12
			h54.96c2.36-70.68,4.71-141.36,7.07-212.04C1099.28,455.92,1098.52,455.36,1097.75,454.79z"/>
		<path class="st1" d="M1318.76,440.98l6.18-22.1l-31.9-41.61h-10.12c-0.75,14.81-1.51,29.63-2.26,44.44
			C1293.35,428.14,1306.05,434.56,1318.76,440.98z"/>
		<path class="st1" d="M1311.97,465.27l6.11-21.86c-0.46,0.92-0.92,1.84-1.38,2.76c-13.54-7.04-27.07-14.09-40.61-21.13
			c0.41-15.92,0.82-31.84,1.22-47.76h-39.1c-0.91,15.09-1.82,30.18-2.73,45.27C1260.98,436.79,1286.47,451.03,1311.97,465.27z"/>
		<path class="st1" d="M1060.18,589.21l-5.7,20.4c1.73-1.29,3.47-2.57,5.2-3.86C1059.85,600.24,1060.02,594.72,1060.18,589.21z"/>
		<path class="st1" d="M1444.95,377.28h-81.03c23.63,12.09,47.26,24.17,70.89,36.26L1444.95,377.28z"/>
		<path class="st1" d="M1453.91,526.85c0.09-9.14,0.18-18.29,0.27-27.43l-9,32.16C1448.1,530.01,1451,528.43,1453.91,526.85z"/>
		<path class="st1" d="M1433.08,419.73c-25.16-13.5-50.32-27-75.48-40.51l-8.66,31.04c25.25,13.14,50.51,26.28,75.76,39.42
			L1433.08,419.73z"/>
		<path class="st1" d="M1347.36,597.83c1.1-36.46,2.21-72.93,3.31-109.39c-6.96-3.19-13.93-6.37-20.89-9.56l-41.31,148.04
			l30.35,39.85c0.67-18.42,1.34-36.85,2.02-55.27C1329.68,606.94,1338.52,602.38,1347.36,597.83z"/>
		<path class="st1" d="M1499.15,543.13c-0.14-29.39-0.29-58.79-0.43-88.18c-9.3-4.99-18.6-9.98-27.91-14.98l-9.2,32.88
			c-0.36,18.96-0.72,37.92-1.08,56.88c-5.78,2.98-11.56,5.96-17.33,8.93l-18.87,67.45h-11.26c0.05,10.97,0.1,21.93,0.14,32.9
			c4.47,0.95,7.7,3.67,7.7,6.88c0,4-5.01,7.24-11.19,7.24s-11.19-3.24-11.19-7.24c0-3.27,3.36-6.04,7.96-6.93
			c0.61-10.95,1.23-21.89,1.84-32.84h-27.41l42.71-152.65c-25.31-12.92-50.63-25.85-75.94-38.77l-10.34,37.06
			c14.94,8.04,29.87,16.07,44.81,24.11c-1.37,64.22-2.74,128.44-4.11,192.66h55.92c0.26-33.01,0.52-66.02,0.77-99.02
			C1456.22,560.71,1477.69,551.92,1499.15,543.13z"/>
		<path class="st1" d="M1336.13,456.14l-5.39,19.32c8.58,4.37,17.16,8.74,25.74,13.12c-1.38,37.94-2.76,75.87-4.14,113.81
			c-8.84,3.68-17.68,7.37-26.52,11.05c0,18.36,0,36.73,0,55.09h46.71c1.19-63.48,2.38-126.97,3.57-190.45
			C1362.77,470.76,1349.45,463.45,1336.13,456.14z"/>
		<path class="st1" d="M1488.36,377.28l-15.58,55.68c10.95,5.6,21.91,11.2,32.86,16.81c-0.43,32.27-0.86,64.55-1.3,96.82
			c-20.89,8.79-41.78,17.58-62.68,26.37c0,31.86,0,63.71,0,95.57h8.71l55.13-41.61l69.67-249.64H1488.36z"/>
		<path class="st1" d="M1617.01,412.06c-8.61-4.8-17.22-9.6-25.83-14.4l-75.69,270.87h86.81l30.88-110.28
			c-5.94-3.24-11.89-6.48-17.83-9.72C1615.91,503.04,1616.46,457.55,1617.01,412.06z"/>
		<path class="st1" d="M1786.07,554.56l49.54-177.28h-80.77c-0.88,53.64-1.76,107.27-2.65,160.91
			C1763.48,543.65,1774.78,549.1,1786.07,554.56z"/>
		<path class="st1" d="M1750.85,377.28h-2.06l-33.21,118.58l-26.48-118.58h-73.77c22.66,11.59,45.31,23.19,67.97,34.78
			c-1.01,43.55-2.03,87.11-3.04,130.66c21.45,11.69,42.91,23.39,64.36,35.08c-0.26,19.34-0.53,38.69-0.79,58.03
			c4.18,1.05,7.14,3.67,7.14,6.75c0,4-5.01,7.24-11.19,7.24s-11.19-3.24-11.19-7.24c0-3.82,4.57-6.94,10.37-7.22
			c-0.79-19.1-1.57-38.19-2.35-57.29c-20.35-10.77-40.7-21.55-61.05-32.32c0.55-43.55,1.1-87.11,1.66-130.66
			c-23.48-12.52-46.96-25.05-70.44-37.57c0.29-0.08,0.59-0.17,0.88-0.25h-10.79l-4.24,15.16c9.97,6.54,19.93,13.08,29.9,19.62
			c-0.18,44.01-0.37,88.03-0.55,132.04c4.38,2.4,8.76,4.81,13.14,7.21l0.38-1.37l0.4,1.8c19.85,10.9,39.7,21.79,59.56,32.69
			c-0.17,15.51-0.33,31.01-0.5,46.52c5.37,0.53,9.48,3.53,9.48,7.15c0,4-5.01,7.24-11.19,7.24c-6.18,0-11.19-3.24-11.19-7.24
			c0-2.84,2.54-5.3,6.22-6.48c0-14.44,0-28.88,0-43.32c-16.78-9.15-33.56-18.31-50.34-27.46l24.04,107.68h92.24l30.37-108.68
			c-12.57-6.14-25.13-12.28-37.7-18.42C1748.21,486.71,1749.53,431.99,1750.85,377.28z"/>
		<path class="st1" d="M988.42,440c0.46-0.09,0.91-0.19,1.34-0.31h-1.34C988.42,439.79,988.42,439.89,988.42,440z"/>
		<path class="st1" d="M981.76,439.69h-0.98c0.32,0.09,0.64,0.17,0.98,0.24C981.76,439.85,981.76,439.77,981.76,439.69z"/>
		<path class="st1" d="M1319.19,441.2c-0.14-0.07-0.29-0.14-0.43-0.22l-0.68,2.43C1318.45,442.67,1318.82,441.93,1319.19,441.2z"/>
	</g>
</g>
<g>
</g>
<g>
</g>
<g>
</g>
<g>
</g>
<g>
</g>
</svg>
