<?xml version="1.0" encoding="utf-8"?>
<!-- Generator: Adobe Illustrator 26.5.0, SVG Export Plug-In . SVG Version: 6.00 Build 0)  -->
<svg version="1.1" id="Layer_1" xmlns="http://www.w3.org/2000/svg" xmlns:xlink="http://www.w3.org/1999/xlink" x="0px" y="0px"
	 viewBox="0 0 425 255.83" style="enable-background:new 0 0 425 255.83;" xml:space="preserve">
<style type="text/css">
	.st0{fill:#F300E6;}
	.st1{fill:#FFFFFF;}
	.st2{fill:none;}
</style>
<g>
	<g>
		<g>
			<path class="st0" d="M38.49,417.43c0.49,0,1.2,0.86,2.13,2.57l4.27-1.71l2.57,2.55c-0.08,0.69-2.36,1.83-6.84,3.41v1.28h2.14
				c4.89,0,7.45,0.86,7.68,2.57c0,2.71-2.99,5.13-8.96,7.26v4.25l-0.86,0.86h-1.27c-0.86,0-1.28-0.86-1.28-2.57l-2.99,0.86
				c-1.14-0.43-1.71-0.86-1.71-1.28v-1.28l1.28-1.28l1.71,0.44l0.84-1.28v-2.99h-2.99c-1.55,0-2.68-0.57-3.41-1.71v-1.28
				c0.2-0.83,2.47-3.11,6.82-6.84l-0.42-0.42v-0.84C37.38,418.28,37.81,417.43,38.49,417.43z M40.62,430.22v1.71h0.44
				c1.92-0.77,3.2-1.62,3.83-2.55h-0.42L40.62,430.22z"/>
			<path class="st0" d="M63.31,418.83h2.81c1.22,0,1.8,0.91,1.76,2.72c-7.91,0.77-11.73,3.6-11.46,8.49
				c9.97,0,14.96,1.45,14.96,4.34v1.83c-1.42,6.02-4.98,9.04-10.69,9.04L58.25,442c5.86,0.11,9.22-2.22,10.09-6.98l-6.87-0.98h-5.48
				l-2.6-2.6v-5.36C56.81,421.25,60.12,418.83,63.31,418.83z"/>
			<path class="st0" d="M89.17,417.43l1.88,1.88v2.81l0.93,14.1c0.43,5.88-0.5,8.07-2.81,6.57c0.09-3.2-0.18-4.45-0.83-3.76
				c-5.52,4.38-9.32,6.57-11.39,6.57c-1.88-0.39-2.81-2.89-2.81-7.51v-15.98l2.81-2.81l0.95,0.93l-0.95,6.57v8.46l0.95,4.69
				l10.34-5.62l-0.95-9.4v-5.62L89.17,417.43z"/>
			<path class="st0" d="M98.13,418.34l6.36-0.91c5.45,0.61,8.17,1.82,8.17,3.64v4.54c-4.51,7.28-9.36,10.92-14.54,10.92l0.91,9.09
				H96.3l-1.81-12.73v-13.64l0.91-0.9C96.54,417.46,97.45,417.46,98.13,418.34z M98.13,425.6c-0.53,1.63-0.53,3.75,0,6.36h0.91
				c5.5-3.32,8.53-5.74,9.09-7.26v-0.91l-0.91-0.91v-0.9C101.16,423.33,98.13,424.53,98.13,425.6z"/>
			<path class="st0" d="M130.09,416.76l1.86,1.86v1.86c-9.75,2.72-14.54,4.32-14.36,4.8l-0.53,3.57v0.93l11.16-3.73l1.86,1.86v1.86
				l-13.03,3.73v6.77l11.16-3.04l1.86,1.85v1.86l-15.42,4.9l-1.34-1.07l-0.69-2.5l0.69-1.34l-0.3-7.44
				c0.54-10.27,2.01-14.31,4.41-12.13l3.32-0.9L130.09,416.76z"/>
			<path class="st0" d="M144.27,417.43c6.88,0,10.32,1.61,10.32,4.82c0,2.55-2.98,6.45-8.95,11.67v0.7
				c9.62,1.59,14.43,3.88,14.43,6.86c0,1.05-1.14,1.75-3.43,2.07c0-1.04-5.72-3.11-17.17-6.19l1.37,7.56l-0.69,0.69h-0.69
				c-1.51,0-2.66-2.75-3.45-8.24c-0.6-5.04-1.05-10.76-1.37-17.17L144.27,417.43z M138.79,425.67v2.07v0.69v3.43l0.69,0.69
				c2.66-1.07,6.32-4.27,10.99-9.62v-1.37h-1.37C142.22,421.56,138.79,422.93,138.79,425.67z"/>
			<path class="st0" d="M163.58,418.34l6.36-0.91c5.45,0.61,8.17,1.82,8.17,3.64v4.54c-4.51,7.28-9.36,10.92-14.54,10.92l0.91,9.09
				h-2.74l-1.81-12.73v-13.64l0.91-0.9C161.99,417.46,162.9,417.46,163.58,418.34z M163.58,425.6c-0.53,1.63-0.53,3.75,0,6.36h0.91
				c5.5-3.32,8.53-5.74,9.09-7.26v-0.91l-0.91-0.91v-0.9C166.6,423.33,163.58,424.53,163.58,425.6z"/>
			<path class="st0" d="M191.09,419.13h3.45c3.46,2.66,5.19,6.97,5.19,12.94c-3.63,8.06-9.96,12.09-18.98,12.09
				c-2.88-2.98-4.32-5.57-4.32-7.77v-0.86C180.52,424.6,185.41,419.13,191.09,419.13z M178.99,438.12l2.6,1.72h0.86
				c5.51,0,10.11-2.59,13.82-7.77v-3.45c0-4.03-1.73-6.05-5.19-6.05C184.86,425.59,180.83,430.77,178.99,438.12z"/>
			<path class="st0" d="M224.98,417.43l0.97,0.98h0.97l-4.85,22.34h-0.97l-8.75-11.67c-0.64,11.02-1.94,16.52-3.88,16.52
				c-2.59-2.43-5.5-10.85-8.74-25.26l0.97-0.97h0.98c1.93,0,3.55,5.18,4.85,15.54c1.29,0,2.58-4.86,3.88-14.57h1.93l5.84,10.69h1.95
				C221.41,421.96,223.03,417.43,224.98,417.43z"/>
			<path class="st0" d="M242.69,416.76l1.86,1.86v1.86c-9.75,2.72-14.54,4.32-14.36,4.8l-0.53,3.57v0.93l11.16-3.73l1.86,1.86v1.86
				l-13.03,3.73v6.77l11.16-3.04l1.86,1.85v1.86l-15.42,4.9l-1.34-1.07l-0.69-2.5l0.69-1.34l-0.3-7.44
				c0.54-10.27,2.01-14.31,4.41-12.13l3.32-0.9L242.69,416.76z"/>
			<path class="st0" d="M256.88,417.43c6.88,0,10.32,1.61,10.32,4.82c0,2.55-2.98,6.45-8.95,11.67v0.7
				c9.62,1.59,14.43,3.88,14.43,6.86c0,1.05-1.14,1.75-3.43,2.07c0-1.04-5.72-3.11-17.17-6.19l1.37,7.56l-0.69,0.69h-0.69
				c-1.51,0-2.66-2.75-3.45-8.24c-0.6-5.04-1.05-10.76-1.37-17.17L256.88,417.43z M251.4,425.67v2.07v0.69v3.43l0.69,0.69
				c2.66-1.07,6.32-4.27,10.99-9.62v-1.37h-1.37C254.83,421.56,251.4,422.93,251.4,425.67z"/>
		</g>
	</g>
	<g>
		<path d="M80.7,367.05l1.34,2c-3.05,1.69-8.41,3.03-16.1,4.03v4.71l0.67,0.67v0.67l12.74-2.69l0.69,0.67v0.69
			c-0.76,1.93-5.24,3.72-13.43,5.36l1.35,5.36v5.38l-1.35,1.34c-0.89,0-2.01-4.03-3.36-12.08l-1.34-1.34v-1.35l1.34-2l-0.67-2.69
			l0.67-0.67v-0.67l-0.67-4.03L80.7,367.05z"/>
		<path d="M95.74,367.05h0.54l1.11,1.11v0.54c0,1.02-1.84,1.94-5.52,2.76l-0.56,2.78l0.56,3.87v8.84l1.09,1.09
			c0-0.63,2.03-1.73,6.08-3.3l1.11,1.65v0.56c-3.55,3.42-8.34,6.18-14.36,8.28h-0.56l-1.65-1.65v-0.56c0.79-1.17,2.62-2.27,5.52-3.3
			l-0.54-11.06v-0.54l0.54-5.54h-0.54l-6.63,1.67l-1.11-1.67v-0.54C80.82,370.13,85.79,368.47,95.74,367.05z"/>
		<path d="M116.08,366.9h0.47c0.62,0,0.93,0.46,0.93,1.39l-0.93,13.46l0.93,8.35v0.47l-0.93,0.93l-10.69-14.4h-0.93v5.12
			c0,3.79,0.47,7.19,1.41,10.21v1.85l-0.93,0.93c-2.17-1.05-3.25-5.08-3.25-12.08v-11.13c0-1.66,0.62-2.75,1.86-3.25
			c0.77,2.7,4.02,7.49,9.74,14.38v-0.91C114.19,372.01,114.97,366.9,116.08,366.9z"/>
		<path d="M131.04,367.05c8.05,0.57,12.08,3.04,12.08,7.38c-1.99,5.91-7.58,12.84-16.77,20.79h-1.35
			c-2.68-3.39-4.03-10.77-4.03-22.15l-0.67-2C120.3,368.39,123.88,367.05,131.04,367.05z M124.32,373.76
			c0.59,10.28,1.71,15.42,3.36,15.42c7.61-9.07,11.41-14.44,11.41-16.1l-8.05-2.67h-4.03C126.09,370.6,125.19,371.72,124.32,373.76z
			"/>
		<path d="M159.59,367.05h0.54c0.71,0,1.07,0.54,1.07,1.62c-2.17,3.62-4.15,7.96-5.96,13.01h1.09c1.79,0,6.49-4.69,14.08-14.08
			l1.09,1.07v2.18c-4.7,5.47-7.05,11.79-7.05,18.97c0,3.61-0.54,5.41-1.62,5.41l-1.09-2.71l0.54-3.8v-5.41h-0.54
			c-3.5,2.53-6.03,3.8-7.58,3.8l-1.09-3.25C153.08,377.29,155.25,371.69,159.59,367.05z"/>
		<path d="M183.46,367.7c4.91,5.6,7.37,10.24,7.37,13.9v4.92c-4.27,5.45-8.36,8.17-12.27,8.17c-5.03,0-8.03-3.54-9-10.63v-2.46
			C171.53,372.33,176.17,367.7,183.46,367.7z M172.82,388.97l3.27,1.63c4.09,0,7.91-2.46,11.46-7.37v-4.9l-4.9-6.54
			C176.1,373.65,172.82,379.38,172.82,388.97z"/>
		<path d="M207.33,367.05l1.16,1.76v13.5l0.65,6.73c-0.19,1-0.79,1.85-1.81,2.57l-1.12,0.25l-0.05-1.92
			c-5.81,3.53-9.53,5.29-11.16,5.29h-0.58l-1.18-1.18v-5.87c1.31-12.91,2.68-19.37,4.11-19.37l1.76,1.76l-2.94,17.03l0.58,3.52
			c1.54,0,4.28-1.56,8.23-4.69v-9.39C204.97,370.37,205.76,367.05,207.33,367.05z"/>
		<path d="M224.17,368.49h1.53l3.83,3.81l-0.77,0.77l0.77,0.76v0.76c0,1.93-3.06,4.99-9.19,9.18v0.76
			c8.17,3.22,12.25,6.03,12.25,8.42l-2.3,0.76c-5.93-3.56-10.52-5.34-13.78-5.34l1.53,6.12l-0.76,0.76h-0.77
			c-2.12,0-3.65-5.09-4.59-15.28c0-6.62,2.3-9.93,6.89-9.93C218.81,369.15,220.59,368.64,224.17,368.49z M215.75,381.48h0.76
			c4.23-2,7.29-4.55,9.19-7.65v-1.53h-0.77c-6.12,0-9.18,1.78-9.18,5.34V381.48z"/>
	</g>
	<g>
		<path d="M36.53,415.2c0.49,0,1.2,0.86,2.13,2.57l4.27-1.71l2.57,2.55c-0.08,0.69-2.36,1.83-6.84,3.41v1.28h2.14
			c4.89,0,7.45,0.86,7.68,2.57c0,2.71-2.99,5.13-8.96,7.26v4.25l-0.86,0.86h-1.27c-0.86,0-1.28-0.86-1.28-2.57l-2.99,0.86
			c-1.14-0.43-1.71-0.86-1.71-1.28v-1.28l1.28-1.28l1.71,0.44l0.84-1.28v-2.99h-2.99c-1.55,0-2.68-0.57-3.41-1.71v-1.28
			c0.2-0.83,2.47-3.11,6.82-6.84l-0.42-0.42v-0.84C35.42,416.06,35.85,415.2,36.53,415.2z M38.66,428v1.71h0.44
			c1.92-0.77,3.2-1.62,3.83-2.55h-0.42L38.66,428z"/>
		<path d="M61.35,416.61h2.81c1.22,0,1.8,0.91,1.76,2.72c-7.91,0.77-11.73,3.6-11.46,8.49c9.97,0,14.96,1.45,14.96,4.34v1.83
			c-1.42,6.02-4.98,9.04-10.69,9.04l-2.44-3.25c5.86,0.11,9.22-2.22,10.09-6.98l-6.87-0.98h-5.48l-2.6-2.6v-5.36
			C54.85,419.02,58.17,416.61,61.35,416.61z"/>
		<path d="M87.21,415.2l1.88,1.88v2.81l0.93,14.1c0.43,5.88-0.5,8.07-2.81,6.57c0.09-3.2-0.18-4.45-0.83-3.76
			c-5.52,4.38-9.32,6.57-11.39,6.57c-1.88-0.39-2.81-2.89-2.81-7.51V419.9l2.81-2.81l0.95,0.93l-0.95,6.57v8.46l0.95,4.69
			l10.34-5.62l-0.95-9.4v-5.62L87.21,415.2z"/>
		<path d="M96.17,416.12l6.36-0.91c5.45,0.61,8.17,1.82,8.17,3.64v4.54c-4.51,7.28-9.36,10.92-14.54,10.92l0.91,9.09h-2.74
			l-1.81-12.73v-13.64l0.91-0.9C94.59,415.24,95.5,415.24,96.17,416.12z M96.17,423.38c-0.53,1.63-0.53,3.75,0,6.36h0.91
			c5.5-3.32,8.53-5.74,9.09-7.26v-0.91l-0.91-0.91v-0.9C99.2,421.1,96.17,422.31,96.17,423.38z"/>
		<path d="M128.13,414.54l1.86,1.86v1.86c-9.75,2.72-14.54,4.32-14.36,4.8l-0.53,3.57v0.93l11.16-3.73l1.86,1.86v1.86l-13.03,3.73
			v6.77l11.16-3.04l1.86,1.85v1.86l-15.42,4.9l-1.34-1.07l-0.69-2.5l0.69-1.34l-0.3-7.44c0.54-10.27,2.01-14.31,4.41-12.13l3.32-0.9
			L128.13,414.54z"/>
		<path d="M142.32,415.2c6.88,0,10.32,1.61,10.32,4.82c0,2.55-2.98,6.45-8.95,11.67v0.7c9.62,1.59,14.43,3.88,14.43,6.86
			c0,1.05-1.14,1.75-3.43,2.07c0-1.04-5.72-3.11-17.17-6.19l1.37,7.56l-0.69,0.69h-0.69c-1.51,0-2.66-2.75-3.45-8.24
			c-0.6-5.04-1.05-10.76-1.37-17.17L142.32,415.2z M136.83,423.45v2.07v0.69v3.43l0.69,0.69c2.66-1.07,6.32-4.27,10.99-9.62v-1.37
			h-1.37C140.27,419.33,136.83,420.7,136.83,423.45z"/>
		<path d="M161.62,416.12l6.36-0.91c5.45,0.61,8.17,1.82,8.17,3.64v4.54c-4.51,7.28-9.36,10.92-14.54,10.92l0.91,9.09h-2.74
			l-1.81-12.73v-13.64l0.91-0.9C160.03,415.24,160.94,415.24,161.62,416.12z M161.62,423.38c-0.53,1.63-0.53,3.75,0,6.36h0.91
			c5.5-3.32,8.53-5.74,9.09-7.26v-0.91l-0.91-0.91v-0.9C164.65,421.1,161.62,422.31,161.62,423.38z"/>
		<path d="M189.13,416.91h3.45c3.46,2.66,5.19,6.97,5.19,12.94c-3.63,8.06-9.96,12.09-18.98,12.09c-2.88-2.98-4.32-5.57-4.32-7.77
			v-0.86C178.56,422.37,183.46,416.91,189.13,416.91z M177.03,435.89l2.6,1.72h0.86c5.51,0,10.11-2.59,13.82-7.77v-3.45
			c0-4.03-1.73-6.05-5.19-6.05C182.91,423.37,178.87,428.54,177.03,435.89z"/>
		<path d="M223.02,415.2l0.97,0.98h0.97l-4.85,22.34h-0.97l-8.75-11.67c-0.64,11.02-1.94,16.52-3.88,16.52
			c-2.59-2.43-5.5-10.85-8.74-25.26l0.97-0.97h0.98c1.93,0,3.55,5.18,4.85,15.54c1.29,0,2.58-4.86,3.88-14.57h1.93l5.84,10.69h1.95
			C219.46,419.74,221.07,415.2,223.02,415.2z"/>
		<path d="M240.74,414.54l1.86,1.86v1.86c-9.75,2.72-14.54,4.32-14.36,4.8l-0.53,3.57v0.93l11.16-3.73l1.86,1.86v1.86l-13.03,3.73
			v6.77l11.16-3.04l1.86,1.85v1.86l-15.42,4.9l-1.34-1.07l-0.69-2.5l0.69-1.34l-0.3-7.44c0.54-10.27,2.01-14.31,4.41-12.13l3.32-0.9
			L240.74,414.54z"/>
		<path d="M254.92,415.2c6.88,0,10.32,1.61,10.32,4.82c0,2.55-2.98,6.45-8.95,11.67v0.7c9.62,1.59,14.43,3.88,14.43,6.86
			c0,1.05-1.14,1.75-3.43,2.07c0-1.04-5.72-3.11-17.17-6.19l1.37,7.56l-0.69,0.69h-0.69c-1.51,0-2.66-2.75-3.45-8.24
			c-0.6-5.04-1.05-10.76-1.37-17.17L254.92,415.2z M249.44,423.45v2.07v0.69v3.43l0.69,0.69c2.66-1.07,6.32-4.27,10.99-9.62v-1.37
			h-1.37C252.87,419.33,249.44,420.7,249.44,423.45z"/>
	</g>
	<g>
		<path d="M-22.06,464.28c1.39,0.69,3.53,5.34,6.4,13.96l0.58,0.58h0.58l-0.58,2.92l2.34,9.32v1.16l-1.16,1.16
			c-1.32,0-2.68-3.3-4.08-9.9c-5.04,0.73-7.56,2.67-7.56,5.82c0,2.72-0.39,4.08-1.18,4.08c-0.88,0-1.46-2.52-1.74-7.56
			c1.7-9.84,3.64-17.02,5.82-21.53H-22.06z M-22.64,470.68c-1.16,4.51-1.74,8.39-1.74,11.64l4.66-1.74v-2.34
			C-20.9,473.2-21.87,470.68-22.64,470.68z"/>
		<path d="M1.26,465.06h0.47c0.62,0,0.93,0.46,0.93,1.39l-0.93,13.46l0.93,8.35v0.47l-0.93,0.93l-10.69-14.4h-0.93v5.12
			c0,3.79,0.47,7.19,1.41,10.21v1.85l-0.93,0.93c-2.17-1.05-3.25-5.08-3.25-12.08v-11.13c0-1.66,0.62-2.75,1.86-3.25
			c0.77,2.7,4.02,7.49,9.74,14.38v-0.91C-0.62,470.16,0.15,465.06,1.26,465.06z"/>
		<path d="M16.22,465.2c8.05,0.57,12.08,3.04,12.08,7.38c-1.99,5.91-7.58,12.84-16.77,20.79h-1.35c-2.68-3.39-4.03-10.77-4.03-22.15
			l-0.67-2C5.48,466.54,9.06,465.2,16.22,465.2z M9.51,471.91c0.59,10.28,1.71,15.42,3.36,15.42c7.61-9.07,11.41-14.44,11.41-16.1
			l-8.05-2.67H12.2C11.27,468.75,10.38,469.87,9.51,471.91z"/>
		<path d="M51.15,465.2c2.45,1.04,3.79,2.12,4.03,3.22v1.62l-0.81,4.03c3.22,1.25,4.83,2.33,4.83,3.22v5.64
			c0,4.11-4.03,7.6-12.08,10.46h-4.83c-2.05,0-3.39-5.37-4.03-16.1c0.84-7.51,1.65-11.27,2.41-11.27L51.15,465.2z M41.48,476.46
			c6.98-3.07,10.48-5.48,10.48-7.24v-0.81C44.98,468.41,41.48,471.1,41.48,476.46z M41.48,482.11v4.03l1.62,3.22
			c9.66-2.68,14.48-6.17,14.48-10.46c-2.14,0-3.22-0.54-3.22-1.62C49.69,477.27,45.4,478.88,41.48,482.11z"/>
		<path d="M79.79,466.02l0.6,0.6v0.6c0,1.15-4.96,2.93-14.87,5.34l-0.6,4.17v0.6c5.27-1.59,9.63-2.39,13.08-2.39l0.6,0.6v1.2
			c0,1.49-4.36,2.88-13.08,4.17v6.54l0.6,1.18l13.08-4.75l1.2,1.78c-5.84,5.16-11.19,7.73-16.07,7.73
			c-1.18-4.36-1.97-9.71-2.37-16.05l1.2-5.96l-0.6-1.78C65.57,467.21,71.31,466.02,79.79,466.02z"/>
		<path d="M110,464.53v2.14c0,1.22-2.15,2.3-6.45,3.23l-2.16,21.52l1.07,4.31l-1.07,1.07h-1.07c-2.16,0-3.23-3.23-3.23-9.69
			l1.07-16.14h-7.52v-3.22L110,464.53z"/>
		<path d="M114.05,465.23l1.41,2.11v1.41c0,5.47,0.47,9.22,1.41,11.25l11.27-3.52v-2.11l0.7-4.22l-0.7-0.7v-0.7l2.11-2.81l1.41,1.41
			v7.03l3.52,3.52l-2.81,2.11l0.7,11.27l-0.7,0.7h-0.7c-1.56,0-2.5-3.76-2.81-11.27V480c-2.13,0-6.12,1.18-11.97,3.53v0.7l1.41,7.73
			v1.41h-1.41c-2.51,0-3.91-9.15-4.22-27.44l0.7-0.7H114.05z"/>
		<path d="M155.23,466.02l0.6,0.6v0.6c0,1.15-4.96,2.93-14.87,5.34l-0.6,4.17v0.6c5.27-1.59,9.63-2.39,13.08-2.39l0.6,0.6v1.2
			c0,1.49-4.36,2.88-13.08,4.17v6.54l0.6,1.18l13.08-4.75l1.2,1.78c-5.84,5.16-11.19,7.73-16.07,7.73
			c-1.18-4.36-1.97-9.71-2.37-16.05l1.2-5.96l-0.6-1.78C141.01,467.21,146.76,466.02,155.23,466.02z"/>
		<path d="M167.36,465.23l1.41,2.11v1.41c0,5.47,0.47,9.22,1.41,11.25l11.27-3.52v-2.11l0.7-4.22l-0.7-0.7v-0.7l2.11-2.81l1.41,1.41
			v7.03l3.52,3.52l-2.81,2.11l0.7,11.27l-0.7,0.7h-0.7c-1.56,0-2.5-3.76-2.81-11.27V480c-2.13,0-6.12,1.18-11.97,3.53v0.7l1.41,7.73
			v1.41h-1.41c-2.51,0-3.91-9.15-4.22-27.44l0.7-0.7H167.36z"/>
		<path d="M208.55,466.02l0.6,0.6v0.6c0,1.15-4.96,2.93-14.87,5.34l-0.6,4.17v0.6c5.27-1.59,9.63-2.39,13.08-2.39l0.6,0.6v1.2
			c0,1.49-4.36,2.88-13.08,4.17v6.54l0.6,1.18l13.08-4.75l1.2,1.78c-5.84,5.16-11.19,7.73-16.07,7.73
			c-1.18-4.36-1.97-9.71-2.37-16.05l1.2-5.96l-0.6-1.78C194.33,467.21,200.07,466.02,208.55,466.02z"/>
		<path d="M221.52,466.64h1.53l3.83,3.81l-0.77,0.77l0.77,0.76v0.76c0,1.93-3.06,4.99-9.19,9.18v0.76
			c8.17,3.22,12.25,6.03,12.25,8.42l-2.3,0.76c-5.93-3.56-10.52-5.34-13.78-5.34l1.53,6.12l-0.76,0.76h-0.77
			c-2.12,0-3.65-5.09-4.59-15.28c0-6.62,2.3-9.93,6.89-9.93C216.16,467.3,217.94,466.79,221.52,466.64z M213.1,479.63h0.76
			c4.23-2,7.29-4.55,9.19-7.65v-1.53h-0.77c-6.12,0-9.18,1.78-9.18,5.34V479.63z"/>
		<path d="M243.98,465.85c4.91,5.6,7.37,10.24,7.37,13.9v4.92c-4.27,5.45-8.36,8.17-12.27,8.17c-5.03,0-8.03-3.54-9-10.63v-2.46
			C232.06,470.48,236.69,465.85,243.98,465.85z M233.35,487.12l3.27,1.63c4.09,0,7.91-2.46,11.46-7.37v-4.9l-4.9-6.54
			C236.62,471.81,233.35,477.53,233.35,487.12z"/>
		<path d="M280.9,464.53v2.14c0,1.22-2.15,2.3-6.45,3.23l-2.16,21.52l1.07,4.31l-1.07,1.07h-1.07c-2.16,0-3.23-3.23-3.23-9.69
			l1.07-16.14h-7.52v-3.22L280.9,464.53z"/>
		<path d="M284.94,465.23l1.41,2.11v1.41c0,5.47,0.47,9.22,1.41,11.25l11.27-3.52v-2.11l0.7-4.22l-0.7-0.7v-0.7l2.11-2.81l1.41,1.41
			v7.03l3.52,3.52l-2.81,2.11l0.7,11.27l-0.7,0.7h-0.7c-1.56,0-2.5-3.76-2.81-11.27V480c-2.13,0-6.12,1.18-11.97,3.53v0.7l1.41,7.73
			v1.41h-1.41c-2.51,0-3.91-9.15-4.22-27.44l0.7-0.7H284.94z"/>
		<path d="M312.73,464.28c1.39,0.69,3.53,5.34,6.4,13.96l0.58,0.58h0.58l-0.58,2.92l2.34,9.32v1.16l-1.16,1.16
			c-1.32,0-2.68-3.3-4.08-9.9c-5.04,0.73-7.56,2.67-7.56,5.82c0,2.72-0.39,4.08-1.18,4.08c-0.88,0-1.46-2.52-1.74-7.56
			c1.7-9.84,3.64-17.02,5.82-21.53H312.73z M312.15,470.68c-1.16,4.51-1.74,8.39-1.74,11.64l4.66-1.74v-2.34
			C313.9,473.2,312.92,470.68,312.15,470.68z"/>
		<path d="M338.85,464.53v2.14c0,1.22-2.15,2.3-6.45,3.23l-2.16,21.52l1.07,4.31l-1.07,1.07h-1.07c-2.16,0-3.23-3.23-3.23-9.69
			l1.07-16.14h-7.52v-3.22L338.85,464.53z"/>
	</g>
	<g>
		<path d="M-10.46,516c6.88,0,10.32,1.61,10.32,4.82c0,2.55-2.98,6.45-8.95,11.67v0.7c9.62,1.59,14.43,3.88,14.43,6.86
			c0,1.05-1.14,1.75-3.43,2.07c0-1.04-5.72-3.11-17.17-6.19l1.37,7.56l-0.69,0.69h-0.69c-1.51,0-2.66-2.75-3.45-8.24
			c-0.6-5.04-1.05-10.76-1.37-17.17L-10.46,516z M-15.94,524.25v2.07v0.69v3.43l0.69,0.69c2.66-1.07,6.32-4.27,10.99-9.62v-1.37
			h-1.37C-12.51,520.13-15.94,521.51-15.94,524.25z"/>
		<path d="M22.62,515.34l1.86,1.86v1.86c-9.75,2.72-14.54,4.32-14.36,4.8l-0.53,3.57v0.93l11.16-3.73l1.86,1.86v1.86L9.6,532.09
			v6.77l11.16-3.04l1.86,1.85v1.86l-15.42,4.9l-1.34-1.07l-0.69-2.5l0.69-1.34l-0.3-7.44c0.54-10.27,2.01-14.31,4.41-12.13l3.32-0.9
			L22.62,515.34z"/>
		<path d="M33.43,516c2.03,0,3.55,4.57,4.57,13.71l0.76,2.29c1.52,0,2.29,0.5,2.29,1.51l-0.77,0.77v0.76
			c1.52,2.6,2.29,5.14,2.29,7.61v1.53h-1.51c-1.25,0-2.53-2.79-3.81-8.38h-6.86c-1.52,0.33-2.29,2.36-2.29,6.1l-2.29,1.53
			l-0.76-0.77v-0.76l6.86-22.85C31.9,517.02,32.41,516,33.43,516z M32.66,525.14l-2.29,7.61h3.81l0.76-0.76h0.77
			C34.58,527.43,33.56,525.14,32.66,525.14z"/>
		<path d="M59.1,519.07c6.35-1.97,10.05-2.47,11.11-1.49s1.73,2.18,2.04,3.61v1.04l-2.07,2.07c-1.21-2.61-3.98-3.3-8.31-2.07
			c-8.31,4.01-12.46,8.16-12.46,12.46c0,2.78,1.39,4.51,4.17,5.2c12.04-1.82,18.61-3.55,19.72-5.2h1.04l2.09,2.07
			c0,3.4-7.27,5.82-21.81,7.28c-7.12-0.57-10.28-4.29-9.47-11.16C48.09,525.65,52.75,521.05,59.1,519.07z"/>
		<path d="M93.29,516.13l1.95,1.95v4.57l-0.65,2.62l0.65,0.65v0.65l-0.65,6.52l1.3,10.44l-0.65,0.65h-0.65
			c-1.37-0.94-2.68-5.29-3.92-13.04h-0.65c-4.82,1.69-7.42,2.99-7.82,3.9v2.62l1.3,1.95c0,2.26-0.65,3.57-1.95,3.92
			c-1.49,0-2.58-4.35-3.27-13.04l0.65-12.41l1.95-1.3c0.88,0,1.32,0.65,1.32,1.95l-0.65,6.54l0.65,0.65v0.65l-0.65,2.6l0.65,0.65
			c6.08-1.44,9.12-2.53,9.12-3.25C91.32,519.61,91.98,516.13,93.29,516.13z"/>
		<path d="M116.05,515.34l1.86,1.86v1.86c-9.75,2.72-14.54,4.32-14.36,4.8l-0.53,3.57v0.93l11.16-3.73l1.86,1.86v1.86l-13.03,3.73
			v6.77l11.16-3.04l1.86,1.85v1.86l-15.42,4.9l-1.34-1.07l-0.69-2.5l0.69-1.34l-0.3-7.44c0.54-10.27,2.01-14.31,4.41-12.13l3.32-0.9
			L116.05,515.34z"/>
		<path d="M128.09,517.41h2.81c1.22,0,1.8,0.91,1.76,2.72c-7.91,0.77-11.73,3.6-11.46,8.49c9.97,0,14.96,1.45,14.96,4.34v1.83
			c-1.42,6.02-4.98,9.04-10.69,9.04l-2.44-3.25c5.86,0.11,9.22-2.22,10.09-6.98l-6.87-0.98h-5.48l-2.6-2.6v-5.36
			C121.59,519.82,124.9,517.41,128.09,517.41z"/>
		<path d="M167.85,515.81l2.27,2.27c-2.44,1.82-5.84,2.95-10.21,3.41v6.8l1.12,12.48l-1.12,3.41h-2.27l-2.27-20.43v-1.14l-7.95,1.14
			l-1.14-1.14v-1.12C146.29,518.92,153.48,517.03,167.85,515.81z"/>
		<path d="M187.19,516.13l1.95,1.95v4.57l-0.65,2.62l0.65,0.65v0.65l-0.65,6.52l1.3,10.44l-0.65,0.65h-0.65
			c-1.37-0.94-2.68-5.29-3.92-13.04h-0.65c-4.82,1.69-7.42,2.99-7.82,3.9v2.62l1.3,1.95c0,2.26-0.65,3.57-1.95,3.92
			c-1.49,0-2.58-4.35-3.27-13.04l0.65-12.41l1.95-1.3c0.88,0,1.32,0.65,1.32,1.95l-0.65,6.54l0.65,0.65v0.65l-0.65,2.6l0.65,0.65
			c6.08-1.44,9.12-2.53,9.12-3.25C185.22,519.61,185.88,516.13,187.19,516.13z"/>
		<path d="M209.95,515.34l1.86,1.86v1.86c-9.75,2.72-14.54,4.32-14.36,4.8l-0.53,3.57v0.93l11.16-3.73l1.86,1.86v1.86l-13.03,3.73
			v6.77l11.16-3.04l1.86,1.85v1.86l-15.42,4.9l-1.34-1.07l-0.69-2.5l0.69-1.34l-0.3-7.44c0.54-10.27,2.01-14.31,4.41-12.13l3.32-0.9
			L209.95,515.34z"/>
		<path d="M228.17,516.92l6.36-0.91c5.45,0.61,8.17,1.82,8.17,3.64v4.54c-4.51,7.28-9.36,10.92-14.54,10.92l0.91,9.09h-2.74
			l-1.81-12.73v-13.64l0.91-0.9C226.58,516.04,227.49,516.04,228.17,516.92z M228.17,524.18c-0.53,1.63-0.53,3.75,0,6.36h0.91
			c5.5-3.32,8.53-5.74,9.09-7.26v-0.91l-0.91-0.91v-0.9C231.19,521.9,228.17,523.11,228.17,524.18z"/>
		<path d="M255.04,516c6.88,0,10.32,1.61,10.32,4.82c0,2.55-2.98,6.45-8.95,11.67v0.7c9.62,1.59,14.43,3.88,14.43,6.86
			c0,1.05-1.14,1.75-3.43,2.07c0-1.04-5.72-3.11-17.17-6.19l1.37,7.56l-0.69,0.69h-0.69c-1.51,0-2.66-2.75-3.45-8.24
			c-0.6-5.04-1.05-10.76-1.37-17.17L255.04,516z M249.56,524.25v2.07v0.69v3.43l0.69,0.69c2.66-1.07,6.32-4.27,10.99-9.62v-1.37
			h-1.37C252.99,520.13,249.56,521.51,249.56,524.25z"/>
		<path d="M275.42,518.59l1.88,2.2l-0.79,10.88l0.56,11l-1.46,1.27c-2.13-2.05-3.07-4.86-2.81-8.42l1.14-15.66L275.42,518.59z"/>
		<path d="M300.31,518.38l0.53,0.53v2.64c-0.35,1.05-2.98,3.86-7.89,8.42c0,1.16-1.76,3.09-5.27,5.8v0.53h1.05
			c2.7-0.09,6.38-1.68,11.06-4.75l1.05,1.58v1.05c-1.18,2.06-3.46,3.81-6.84,5.26c0,0.56-3.33,1.62-10,3.16l-1.05-1.58v-0.53
			c0-3.68,2.59-8.11,7.77-13.29l1.18-2.5h-2.64l-8.95,2.62c-0.8,0-1.32-0.87-1.58-2.62C283.68,520.49,290.87,518.38,300.31,518.38z"
			/>
		<path d="M320.92,515.34l1.86,1.86v1.86c-9.75,2.72-14.54,4.32-14.36,4.8l-0.53,3.57v0.93l11.16-3.73l1.86,1.86v1.86l-13.03,3.73
			v6.77l11.16-3.04l1.86,1.85v1.86l-15.42,4.9l-1.34-1.07l-0.69-2.5l0.69-1.34l-0.3-7.44c0.54-10.27,2.01-14.31,4.41-12.13l3.32-0.9
			L320.92,515.34z"/>
	</g>
	<g>
		<path class="st1" d="M78.58,364.13l1.34,2c-3.05,1.69-8.41,3.03-16.1,4.03v4.71l0.67,0.67v0.67l12.74-2.69l0.69,0.67v0.69
			c-0.76,1.93-5.24,3.72-13.43,5.36l1.35,5.36v5.38l-1.35,1.34c-0.89,0-2.01-4.03-3.36-12.08l-1.34-1.34v-1.35l1.34-2l-0.67-2.69
			l0.67-0.67v-0.67l-0.67-4.03L78.58,364.13z"/>
		<path class="st1" d="M93.63,364.13h0.54l1.11,1.11v0.54c0,1.02-1.84,1.94-5.52,2.76l-0.56,2.78l0.56,3.87v8.84l1.09,1.09
			c0-0.63,2.03-1.73,6.08-3.3l1.11,1.65v0.56c-3.55,3.42-8.34,6.18-14.36,8.28h-0.56l-1.65-1.65v-0.56c0.79-1.17,2.62-2.27,5.52-3.3
			l-0.54-11.06v-0.54l0.54-5.54h-0.54l-6.63,1.67l-1.11-1.67v-0.54C78.71,367.22,83.68,365.56,93.63,364.13z"/>
		<path class="st1" d="M113.97,363.99h0.47c0.62,0,0.93,0.46,0.93,1.39l-0.93,13.46l0.93,8.35v0.47l-0.93,0.93l-10.69-14.4h-0.93
			v5.12c0,3.79,0.47,7.19,1.41,10.21v1.85l-0.93,0.93c-2.17-1.05-3.25-5.08-3.25-12.08V369.1c0-1.66,0.62-2.75,1.86-3.25
			c0.77,2.7,4.02,7.49,9.74,14.38v-0.91C112.08,369.1,112.85,363.99,113.97,363.99z"/>
		<path class="st1" d="M128.93,364.13c8.05,0.57,12.08,3.04,12.08,7.38c-1.99,5.91-7.58,12.84-16.77,20.79h-1.35
			c-2.68-3.39-4.03-10.77-4.03-22.15l-0.67-2C118.19,365.47,121.77,364.13,128.93,364.13z M122.21,370.84
			c0.59,10.28,1.71,15.42,3.36,15.42c7.61-9.07,11.41-14.44,11.41-16.1l-8.05-2.67h-4.03C123.98,367.68,123.08,368.8,122.21,370.84z
			"/>
		<path class="st1" d="M157.47,364.13h0.54c0.71,0,1.07,0.54,1.07,1.62c-2.17,3.62-4.15,7.96-5.96,13.01h1.09
			c1.79,0,6.49-4.69,14.08-14.08l1.09,1.07v2.18c-4.7,5.47-7.05,11.79-7.05,18.97c0,3.61-0.54,5.41-1.62,5.41l-1.09-2.71l0.54-3.8
			v-5.41h-0.54c-3.5,2.53-6.03,3.8-7.58,3.8l-1.09-3.25C150.97,374.37,153.14,368.77,157.47,364.13z"/>
		<path class="st1" d="M181.34,364.78c4.91,5.6,7.37,10.24,7.37,13.9v4.92c-4.27,5.45-8.36,8.17-12.27,8.17
			c-5.03,0-8.03-3.54-9-10.63v-2.46C169.42,369.41,174.06,364.78,181.34,364.78z M170.71,386.05l3.27,1.63
			c4.09,0,7.91-2.46,11.46-7.37v-4.9l-4.9-6.54C173.99,370.74,170.71,376.46,170.71,386.05z"/>
		<path class="st1" d="M205.22,364.13l1.16,1.76v13.5l0.65,6.73c-0.19,1-0.79,1.85-1.81,2.57l-1.12,0.25l-0.05-1.92
			c-5.81,3.53-9.53,5.29-11.16,5.29h-0.58l-1.18-1.18v-5.87c1.31-12.91,2.68-19.37,4.11-19.37l1.76,1.76l-2.94,17.03l0.58,3.52
			c1.54,0,4.28-1.56,8.23-4.69v-9.39C202.86,367.46,203.65,364.13,205.22,364.13z"/>
		<path class="st1" d="M222.06,365.57h1.53l3.83,3.81l-0.77,0.77l0.77,0.76v0.76c0,1.93-3.06,4.99-9.19,9.18v0.76
			c8.17,3.22,12.25,6.03,12.25,8.42l-2.3,0.76c-5.93-3.56-10.52-5.34-13.78-5.34l1.53,6.12l-0.76,0.76h-0.77
			c-2.12,0-3.65-5.09-4.59-15.28c0-6.62,2.3-9.93,6.89-9.93C216.69,366.23,218.48,365.72,222.06,365.57z M213.64,378.56h0.76
			c4.23-2,7.29-4.55,9.19-7.65v-1.53h-0.77c-6.12,0-9.18,1.78-9.18,5.34V378.56z"/>
	</g>
	<g>
		<path class="st1" d="M34.42,412.29c0.49,0,1.2,0.86,2.13,2.57l4.27-1.71l2.57,2.55c-0.08,0.69-2.36,1.83-6.84,3.41v1.28h2.14
			c4.89,0,7.45,0.86,7.68,2.57c0,2.71-2.99,5.13-8.96,7.26v4.25l-0.86,0.86h-1.27c-0.86,0-1.28-0.86-1.28-2.57l-2.99,0.86
			c-1.14-0.43-1.71-0.86-1.71-1.28v-1.28l1.28-1.28l1.71,0.44l0.84-1.28v-2.99h-2.99c-1.55,0-2.68-0.57-3.41-1.71v-1.28
			c0.2-0.83,2.47-3.11,6.82-6.84l-0.42-0.42v-0.84C33.31,413.14,33.74,412.29,34.42,412.29z M36.55,425.08v1.71h0.44
			c1.92-0.77,3.2-1.62,3.83-2.55H40.4L36.55,425.08z"/>
		<path class="st1" d="M59.24,413.69h2.81c1.22,0,1.8,0.91,1.76,2.72c-7.91,0.77-11.73,3.6-11.46,8.49c9.97,0,14.96,1.45,14.96,4.34
			v1.83c-1.42,6.02-4.98,9.04-10.69,9.04l-2.44-3.25c5.86,0.11,9.22-2.22,10.09-6.98l-6.87-0.98h-5.48l-2.6-2.6v-5.36
			C52.74,416.11,56.05,413.69,59.24,413.69z"/>
		<path class="st1" d="M85.1,412.29l1.88,1.88v2.81l0.93,14.1c0.43,5.88-0.5,8.07-2.81,6.57c0.09-3.2-0.18-4.45-0.83-3.76
			c-5.52,4.38-9.32,6.57-11.39,6.57c-1.88-0.39-2.81-2.89-2.81-7.51v-15.98l2.81-2.81l0.95,0.93l-0.95,6.57v8.46l0.95,4.69
			l10.34-5.62l-0.95-9.4v-5.62L85.1,412.29z"/>
		<path class="st1" d="M94.06,413.2l6.36-0.91c5.45,0.61,8.17,1.82,8.17,3.64v4.54c-4.51,7.28-9.36,10.92-14.54,10.92l0.91,9.09
			h-2.74l-1.81-12.73V414.1l0.91-0.9C92.47,412.32,93.38,412.32,94.06,413.2z M94.06,420.46c-0.53,1.63-0.53,3.75,0,6.36h0.91
			c5.5-3.32,8.53-5.74,9.09-7.26v-0.91l-0.91-0.91v-0.9C97.09,418.19,94.06,419.39,94.06,420.46z"/>
		<path class="st1" d="M126.02,411.62l1.86,1.86v1.86c-9.75,2.72-14.54,4.32-14.36,4.8l-0.53,3.57v0.93l11.16-3.73l1.86,1.86v1.86
			l-13.03,3.73v6.77l11.16-3.04l1.86,1.85v1.86l-15.42,4.9l-1.34-1.07l-0.69-2.5l0.69-1.34l-0.3-7.44
			c0.54-10.27,2.01-14.31,4.41-12.13l3.32-0.9L126.02,411.62z"/>
		<path class="st1" d="M140.2,412.29c6.88,0,10.32,1.61,10.32,4.82c0,2.55-2.98,6.45-8.95,11.67v0.7
			c9.62,1.59,14.43,3.88,14.43,6.86c0,1.05-1.14,1.75-3.43,2.07c0-1.04-5.72-3.11-17.17-6.19l1.37,7.56l-0.69,0.69h-0.69
			c-1.51,0-2.66-2.75-3.45-8.24c-0.6-5.04-1.05-10.76-1.37-17.17L140.2,412.29z M134.72,420.53v2.07v0.69v3.43l0.69,0.69
			c2.66-1.07,6.32-4.27,10.99-9.62v-1.37h-1.37C138.15,416.42,134.72,417.79,134.72,420.53z"/>
		<path class="st1" d="M159.5,413.2l6.36-0.91c5.45,0.61,8.17,1.82,8.17,3.64v4.54c-4.51,7.28-9.36,10.92-14.54,10.92l0.91,9.09
			h-2.74l-1.81-12.73V414.1l0.91-0.9C157.92,412.32,158.83,412.32,159.5,413.2z M159.5,420.46c-0.53,1.63-0.53,3.75,0,6.36h0.91
			c5.5-3.32,8.53-5.74,9.09-7.26v-0.91l-0.91-0.91v-0.9C162.53,418.19,159.5,419.39,159.5,420.46z"/>
		<path class="st1" d="M187.01,413.99h3.45c3.46,2.66,5.19,6.97,5.19,12.94c-3.63,8.06-9.96,12.09-18.98,12.09
			c-2.88-2.98-4.32-5.57-4.32-7.77v-0.86C176.45,419.46,181.34,413.99,187.01,413.99z M174.92,432.98l2.6,1.72h0.86
			c5.51,0,10.11-2.59,13.82-7.77v-3.45c0-4.03-1.73-6.05-5.19-6.05C180.79,420.45,176.76,425.63,174.92,432.98z"/>
		<path class="st1" d="M220.91,412.29l0.97,0.98h0.97l-4.85,22.34h-0.97l-8.75-11.67c-0.64,11.02-1.94,16.52-3.88,16.52
			c-2.59-2.43-5.5-10.85-8.74-25.26l0.97-0.97h0.98c1.93,0,3.55,5.18,4.85,15.54c1.29,0,2.58-4.86,3.88-14.57h1.93l5.84,10.69h1.95
			C217.34,416.82,218.96,412.29,220.91,412.29z"/>
		<path class="st1" d="M238.62,411.62l1.86,1.86v1.86c-9.75,2.72-14.54,4.32-14.36,4.8l-0.53,3.57v0.93l11.16-3.73l1.86,1.86v1.86
			l-13.03,3.73v6.77l11.16-3.04l1.86,1.85v1.86l-15.42,4.9l-1.34-1.07l-0.69-2.5l0.69-1.34l-0.3-7.44
			c0.54-10.27,2.01-14.31,4.41-12.13l3.32-0.9L238.62,411.62z"/>
		<path class="st1" d="M252.81,412.29c6.88,0,10.32,1.61,10.32,4.82c0,2.55-2.98,6.45-8.95,11.67v0.7
			c9.62,1.59,14.43,3.88,14.43,6.86c0,1.05-1.14,1.75-3.43,2.07c0-1.04-5.72-3.11-17.17-6.19l1.37,7.56l-0.69,0.69h-0.69
			c-1.51,0-2.66-2.75-3.45-8.24c-0.6-5.04-1.05-10.76-1.37-17.17L252.81,412.29z M247.33,420.53v2.07v0.69v3.43l0.69,0.69
			c2.66-1.07,6.32-4.27,10.99-9.62v-1.37h-1.37C250.76,416.42,247.33,417.79,247.33,420.53z"/>
	</g>
	<g>
		<path class="st1" d="M-24.17,461.36c1.39,0.69,3.53,5.34,6.4,13.96l0.58,0.58h0.58l-0.58,2.92l2.34,9.32v1.16l-1.16,1.16
			c-1.32,0-2.68-3.3-4.08-9.9c-5.04,0.73-7.56,2.67-7.56,5.82c0,2.72-0.39,4.08-1.18,4.08c-0.88,0-1.46-2.52-1.74-7.56
			c1.7-9.84,3.64-17.02,5.82-21.53H-24.17z M-24.75,467.76c-1.16,4.51-1.74,8.39-1.74,11.64l4.66-1.74v-2.34
			C-23.01,470.28-23.98,467.76-24.75,467.76z"/>
		<path class="st1" d="M-0.85,462.14h0.47c0.62,0,0.93,0.46,0.93,1.39l-0.93,13.46l0.93,8.35v0.47l-0.93,0.93l-10.69-14.4h-0.93
			v5.12c0,3.79,0.47,7.19,1.41,10.21v1.85l-0.93,0.93c-2.17-1.05-3.25-5.08-3.25-12.08v-11.13c0-1.66,0.62-2.75,1.86-3.25
			c0.77,2.7,4.02,7.49,9.74,14.38v-0.91C-2.74,467.25-1.96,462.14-0.85,462.14z"/>
		<path class="st1" d="M14.11,462.28c8.05,0.57,12.08,3.04,12.08,7.38c-1.99,5.91-7.58,12.84-16.77,20.79H8.06
			c-2.68-3.39-4.03-10.77-4.03-22.15l-0.67-2C3.37,463.62,6.95,462.28,14.11,462.28z M7.4,468.99c0.59,10.28,1.71,15.42,3.36,15.42
			c7.61-9.07,11.41-14.44,11.41-16.1l-8.05-2.67h-4.03C9.16,465.84,8.26,466.95,7.4,468.99z"/>
		<path class="st1" d="M49.04,462.28c2.45,1.04,3.79,2.12,4.03,3.22v1.62l-0.81,4.03c3.22,1.25,4.83,2.33,4.83,3.22V480
			c0,4.11-4.03,7.6-12.08,10.46h-4.83c-2.05,0-3.39-5.37-4.03-16.1c0.84-7.51,1.65-11.27,2.41-11.27L49.04,462.28z M39.37,473.55
			c6.98-3.07,10.48-5.48,10.48-7.24v-0.81C42.86,465.5,39.37,468.18,39.37,473.55z M39.37,479.19v4.03l1.62,3.22
			c9.66-2.68,14.48-6.17,14.48-10.46c-2.14,0-3.22-0.54-3.22-1.62C47.58,474.35,43.28,475.97,39.37,479.19z"/>
		<path class="st1" d="M77.67,463.1l0.6,0.6v0.6c0,1.15-4.96,2.93-14.87,5.34l-0.6,4.17v0.6c5.27-1.59,9.63-2.39,13.08-2.39l0.6,0.6
			v1.2c0,1.49-4.36,2.88-13.08,4.17v6.54l0.6,1.18l13.08-4.75l1.2,1.78c-5.84,5.16-11.19,7.73-16.07,7.73
			c-1.18-4.36-1.97-9.71-2.37-16.05l1.2-5.96l-0.6-1.78C63.45,464.29,69.2,463.1,77.67,463.1z"/>
		<path class="st1" d="M107.89,461.61v2.14c0,1.22-2.15,2.3-6.45,3.23l-2.16,21.52l1.07,4.31l-1.07,1.07H98.2
			c-2.16,0-3.23-3.23-3.23-9.69l1.07-16.14h-7.52v-3.22L107.89,461.61z"/>
		<path class="st1" d="M111.93,462.31l1.41,2.11v1.41c0,5.47,0.47,9.22,1.41,11.25l11.27-3.52v-2.11l0.7-4.22l-0.7-0.7v-0.7
			l2.11-2.81l1.41,1.41v7.03l3.52,3.52l-2.81,2.11l0.7,11.27l-0.7,0.7h-0.7c-1.56,0-2.5-3.76-2.81-11.27v-0.7
			c-2.13,0-6.12,1.18-11.97,3.53v0.7l1.41,7.73v1.41h-1.41c-2.51,0-3.91-9.15-4.22-27.44l0.7-0.7H111.93z"/>
		<path class="st1" d="M153.12,463.1l0.6,0.6v0.6c0,1.15-4.96,2.93-14.87,5.34l-0.6,4.17v0.6c5.27-1.59,9.63-2.39,13.08-2.39
			l0.6,0.6v1.2c0,1.49-4.36,2.88-13.08,4.17v6.54l0.6,1.18l13.08-4.75l1.2,1.78c-5.84,5.16-11.19,7.73-16.07,7.73
			c-1.18-4.36-1.97-9.71-2.37-16.05l1.2-5.96l-0.6-1.78C138.9,464.29,144.65,463.1,153.12,463.1z"/>
		<path class="st1" d="M165.25,462.31l1.41,2.11v1.41c0,5.47,0.47,9.22,1.41,11.25l11.27-3.52v-2.11l0.7-4.22l-0.7-0.7v-0.7
			l2.11-2.81l1.41,1.41v7.03l3.52,3.52l-2.81,2.11l0.7,11.27l-0.7,0.7h-0.7c-1.56,0-2.5-3.76-2.81-11.27v-0.7
			c-2.13,0-6.12,1.18-11.97,3.53v0.7l1.41,7.73v1.41h-1.41c-2.51,0-3.91-9.15-4.22-27.44l0.7-0.7H165.25z"/>
		<path class="st1" d="M206.43,463.1l0.6,0.6v0.6c0,1.15-4.96,2.93-14.87,5.34l-0.6,4.17v0.6c5.27-1.59,9.63-2.39,13.08-2.39
			l0.6,0.6v1.2c0,1.49-4.36,2.88-13.08,4.17v6.54l0.6,1.18l13.08-4.75l1.2,1.78c-5.84,5.16-11.19,7.73-16.07,7.73
			c-1.18-4.36-1.97-9.71-2.37-16.05l1.2-5.96l-0.6-1.78C192.21,464.29,197.96,463.1,206.43,463.1z"/>
		<path class="st1" d="M219.41,463.72h1.53l3.83,3.81l-0.77,0.77l0.77,0.76v0.76c0,1.93-3.06,4.99-9.19,9.18v0.76
			c8.17,3.22,12.25,6.03,12.25,8.42l-2.3,0.76c-5.93-3.56-10.52-5.34-13.78-5.34l1.53,6.12l-0.76,0.76h-0.77
			c-2.12,0-3.65-5.09-4.59-15.28c0-6.62,2.3-9.93,6.89-9.93C214.04,464.38,215.83,463.87,219.41,463.72z M210.99,476.71h0.76
			c4.23-2,7.29-4.55,9.19-7.65v-1.53h-0.77c-6.12,0-9.18,1.78-9.18,5.34V476.71z"/>
		<path class="st1" d="M241.87,462.93c4.91,5.6,7.37,10.24,7.37,13.9v4.92c-4.27,5.45-8.36,8.17-12.27,8.17
			c-5.03,0-8.03-3.54-9-10.63v-2.46C229.95,467.56,234.58,462.93,241.87,462.93z M231.24,484.2l3.27,1.63
			c4.09,0,7.91-2.46,11.46-7.37v-4.9l-4.9-6.54C234.51,468.89,231.24,474.61,231.24,484.2z"/>
		<path class="st1" d="M278.78,461.61v2.14c0,1.22-2.15,2.3-6.45,3.23l-2.16,21.52l1.07,4.31l-1.07,1.07h-1.07
			c-2.16,0-3.23-3.23-3.23-9.69l1.07-16.14h-7.52v-3.22L278.78,461.61z"/>
		<path class="st1" d="M282.83,462.31l1.41,2.11v1.41c0,5.47,0.47,9.22,1.41,11.25l11.27-3.52v-2.11l0.7-4.22l-0.7-0.7v-0.7
			l2.11-2.81l1.41,1.41v7.03l3.52,3.52l-2.81,2.11l0.7,11.27l-0.7,0.7h-0.7c-1.56,0-2.5-3.76-2.81-11.27v-0.7
			c-2.13,0-6.12,1.18-11.97,3.53v0.7l1.41,7.73v1.41h-1.41c-2.51,0-3.91-9.15-4.22-27.44l0.7-0.7H282.83z"/>
		<path class="st1" d="M310.62,461.36c1.39,0.69,3.53,5.34,6.4,13.96l0.58,0.58h0.58l-0.58,2.92l2.34,9.32v1.16l-1.16,1.16
			c-1.32,0-2.68-3.3-4.08-9.9c-5.04,0.73-7.56,2.67-7.56,5.82c0,2.72-0.39,4.08-1.18,4.08c-0.88,0-1.46-2.52-1.74-7.56
			c1.7-9.84,3.64-17.02,5.82-21.53H310.62z M310.04,467.76c-1.16,4.51-1.74,8.39-1.74,11.64l4.66-1.74v-2.34
			C311.78,470.28,310.81,467.76,310.04,467.76z"/>
		<path class="st1" d="M336.74,461.61v2.14c0,1.22-2.15,2.3-6.45,3.23l-2.16,21.52l1.07,4.31l-1.07,1.07h-1.07
			c-2.16,0-3.23-3.23-3.23-9.69l1.07-16.14h-7.52v-3.22L336.74,461.61z"/>
	</g>
	<g>
		<path class="st1" d="M-12.57,513.09c6.88,0,10.32,1.61,10.32,4.82c0,2.55-2.98,6.45-8.95,11.67v0.7
			c9.62,1.59,14.43,3.88,14.43,6.86c0,1.05-1.14,1.75-3.43,2.07c0-1.04-5.72-3.11-17.17-6.19l1.37,7.56l-0.69,0.69h-0.69
			c-1.51,0-2.66-2.75-3.45-8.24c-0.6-5.04-1.05-10.76-1.37-17.17L-12.57,513.09z M-18.06,521.33v2.07v0.69v3.43l0.69,0.69
			c2.66-1.07,6.32-4.27,10.99-9.62v-1.37h-1.37C-14.62,517.22-18.06,518.59-18.06,521.33z"/>
		<path class="st1" d="M20.51,512.42l1.86,1.86v1.86c-9.75,2.72-14.54,4.32-14.36,4.8l-0.53,3.57v0.93l11.16-3.73l1.86,1.86v1.86
			l-13.03,3.73v6.77l11.16-3.04l1.86,1.85v1.86l-15.42,4.9l-1.34-1.07l-0.69-2.5l0.69-1.34l-0.3-7.44
			C4,518.9,5.47,514.86,7.87,517.04l3.32-0.9L20.51,512.42z"/>
		<path class="st1" d="M31.32,513.09c2.03,0,3.55,4.57,4.57,13.71l0.76,2.29c1.52,0,2.29,0.5,2.29,1.51l-0.77,0.77v0.76
			c1.52,2.6,2.29,5.14,2.29,7.61v1.53h-1.51c-1.25,0-2.53-2.79-3.81-8.38h-6.86c-1.52,0.33-2.29,2.36-2.29,6.1l-2.29,1.53
			l-0.76-0.77v-0.76l6.86-22.85C29.79,514.1,30.3,513.09,31.32,513.09z M30.55,522.23l-2.29,7.61h3.81l0.76-0.76h0.77
			C32.47,524.51,31.45,522.23,30.55,522.23z"/>
		<path class="st1" d="M56.98,516.15c6.35-1.97,10.05-2.47,11.11-1.49s1.73,2.18,2.04,3.61v1.04l-2.07,2.07
			c-1.21-2.61-3.98-3.3-8.31-2.07c-8.31,4.01-12.46,8.16-12.46,12.46c0,2.78,1.39,4.51,4.17,5.2c12.04-1.82,18.61-3.55,19.72-5.2
			h1.04l2.09,2.07c0,3.4-7.27,5.82-21.81,7.28c-7.12-0.57-10.28-4.29-9.47-11.16C45.98,522.73,50.63,518.13,56.98,516.15z"/>
		<path class="st1" d="M91.17,513.21l1.95,1.95v4.57l-0.65,2.62l0.65,0.65v0.65l-0.65,6.52l1.3,10.44l-0.65,0.65h-0.65
			c-1.37-0.94-2.68-5.29-3.92-13.04H87.9c-4.82,1.69-7.42,2.99-7.82,3.9v2.62l1.3,1.95c0,2.26-0.65,3.57-1.95,3.92
			c-1.49,0-2.58-4.35-3.27-13.04l0.65-12.41l1.95-1.3c0.88,0,1.32,0.65,1.32,1.95l-0.65,6.54l0.65,0.65v0.65l-0.65,2.6l0.65,0.65
			c6.08-1.44,9.12-2.53,9.12-3.25C89.21,516.69,89.86,513.21,91.17,513.21z"/>
		<path class="st1" d="M113.94,512.42l1.86,1.86v1.86c-9.75,2.72-14.54,4.32-14.36,4.8l-0.53,3.57v0.93l11.16-3.73l1.86,1.86v1.86
			l-13.03,3.73v6.77l11.16-3.04l1.86,1.85v1.86l-15.42,4.9l-1.34-1.07l-0.69-2.5l0.69-1.34l-0.3-7.44
			c0.54-10.27,2.01-14.31,4.41-12.13l3.32-0.9L113.94,512.42z"/>
		<path class="st1" d="M125.98,514.49h2.81c1.22,0,1.8,0.91,1.76,2.72c-7.91,0.77-11.73,3.6-11.46,8.49
			c9.97,0,14.96,1.45,14.96,4.34v1.83c-1.42,6.02-4.98,9.04-10.69,9.04l-2.44-3.25c5.86,0.11,9.22-2.22,10.09-6.98l-6.87-0.98h-5.48
			l-2.6-2.6v-5.36C119.48,516.91,122.79,514.49,125.98,514.49z"/>
		<path class="st1" d="M165.74,512.89l2.27,2.27c-2.44,1.82-5.84,2.95-10.21,3.41v6.8l1.12,12.48l-1.12,3.41h-2.27l-2.27-20.43
			v-1.14l-7.95,1.14l-1.14-1.14v-1.12C144.17,516,151.36,514.11,165.74,512.89z"/>
		<path class="st1" d="M185.08,513.21l1.95,1.95v4.57l-0.65,2.62l0.65,0.65v0.65l-0.65,6.52l1.3,10.44l-0.65,0.65h-0.65
			c-1.37-0.94-2.68-5.29-3.92-13.04h-0.65c-4.82,1.69-7.42,2.99-7.82,3.9v2.62l1.3,1.95c0,2.26-0.65,3.57-1.95,3.92
			c-1.49,0-2.58-4.35-3.27-13.04l0.65-12.41l1.95-1.3c0.88,0,1.32,0.65,1.32,1.95l-0.65,6.54l0.65,0.65v0.65l-0.65,2.6l0.65,0.65
			c6.08-1.44,9.12-2.53,9.12-3.25C183.11,516.69,183.76,513.21,185.08,513.21z"/>
		<path class="st1" d="M207.84,512.42l1.86,1.86v1.86c-9.75,2.72-14.54,4.32-14.36,4.8l-0.53,3.57v0.93l11.16-3.73l1.86,1.86v1.86
			l-13.03,3.73v6.77l11.16-3.04l1.86,1.85v1.86l-15.42,4.9l-1.34-1.07l-0.69-2.5l0.69-1.34l-0.3-7.44
			c0.54-10.27,2.01-14.31,4.41-12.13l3.32-0.9L207.84,512.42z"/>
		<path class="st1" d="M226.05,514l6.36-0.91c5.45,0.61,8.17,1.82,8.17,3.64v4.54c-4.51,7.28-9.36,10.92-14.54,10.92l0.91,9.09
			h-2.74l-1.81-12.73V514.9l0.91-0.9C224.46,513.12,225.37,513.12,226.05,514z M226.05,521.26c-0.53,1.63-0.53,3.75,0,6.36h0.91
			c5.5-3.32,8.53-5.74,9.09-7.26v-0.91l-0.91-0.91v-0.9C229.08,518.99,226.05,520.19,226.05,521.26z"/>
		<path class="st1" d="M252.93,513.09c6.88,0,10.32,1.61,10.32,4.82c0,2.55-2.98,6.45-8.95,11.67v0.7
			c9.62,1.59,14.43,3.88,14.43,6.86c0,1.05-1.14,1.75-3.43,2.07c0-1.04-5.72-3.11-17.17-6.19l1.37,7.56l-0.69,0.69h-0.69
			c-1.51,0-2.66-2.75-3.45-8.24c-0.6-5.04-1.05-10.76-1.37-17.17L252.93,513.09z M247.44,521.33v2.07v0.69v3.43l0.69,0.69
			c2.66-1.07,6.32-4.27,10.99-9.62v-1.37h-1.37C250.88,517.22,247.44,518.59,247.44,521.33z"/>
		<path class="st1" d="M273.3,515.67l1.88,2.2l-0.79,10.88l0.56,11l-1.46,1.27c-2.13-2.05-3.07-4.86-2.81-8.42l1.14-15.66
			L273.3,515.67z"/>
		<path class="st1" d="M298.19,515.46l0.53,0.53v2.64c-0.35,1.05-2.98,3.86-7.89,8.42c0,1.16-1.76,3.09-5.27,5.8v0.53h1.05
			c2.7-0.09,6.38-1.68,11.06-4.75l1.05,1.58v1.05c-1.18,2.06-3.46,3.81-6.84,5.26c0,0.56-3.33,1.62-10,3.16l-1.05-1.58v-0.53
			c0-3.68,2.59-8.11,7.77-13.29l1.18-2.5h-2.64l-8.95,2.62c-0.8,0-1.32-0.87-1.58-2.62C281.56,517.57,288.76,515.46,298.19,515.46z"
			/>
		<path class="st1" d="M318.81,512.42l1.86,1.86v1.86c-9.75,2.72-14.54,4.32-14.36,4.8l-0.53,3.57v0.93l11.16-3.73l1.86,1.86v1.86
			l-13.03,3.73v6.77l11.16-3.04l1.86,1.85v1.86l-15.42,4.9l-1.34-1.07l-0.69-2.5l0.69-1.34l-0.3-7.44
			c0.54-10.27,2.01-14.31,4.41-12.13l3.32-0.9L318.81,512.42z"/>
	</g>
</g>
<g>
	<g>
		<rect x="-211.2" y="345" class="st2" width="353.87" height="61.28"/>
		<path class="st0" d="M-194.49,344.85l4.92,3.93l-1.97,1.97l-5.9-1.97c-3.02,0.8-6.3,4.4-9.84,10.82v7.86h6.89l8.85-5.9l1.97,1.97
			c0,3.27-5.25,6.22-15.74,8.85c-3.45,0-5.42-3.28-5.9-9.83C-207.92,350.75-202.35,344.85-194.49,344.85z"/>
		<path class="st0" d="M-172.84,346.64h3.35c3.36,2.59,5.04,6.78,5.04,12.58c-3.53,7.84-9.68,11.76-18.46,11.76
			c-2.8-2.89-4.2-5.41-4.2-7.55v-0.84C-183.11,351.96-178.35,346.64-172.84,346.64z M-184.59,365.1l2.53,1.67h0.84
			c5.35,0,9.83-2.52,13.43-7.55v-3.35c0-3.92-1.68-5.88-5.04-5.88C-178.89,352.92-182.81,357.96-184.59,365.1z"/>
		<path class="st0" d="M-157.35,345.88h0.85c1.79,0,4.35,4.84,7.67,14.51c0.89,0,3.45-3.7,7.69-11.11l2.55-1.69h0.85
			c2.12,0,4.68,7.11,7.69,21.33v0.85l-1.71,1.71h-0.85c-1.26,0-3.26-5.69-5.98-17.07c-1.58,0.78-4.43,5.33-8.53,13.65h-1.71
			c-1.71,0-3.7-3.98-5.98-11.95h-1.69c-1.14,8.53-2.56,12.8-4.27,12.8l-1.71-1.71v-3.4C-162.48,357.61-160.77,351.63-157.35,345.88z
			"/>
		<path class="st0" d="M-125.52,347.5l1.83,2.14l-0.77,10.58l0.55,10.7l-1.42,1.23c-2.07-1.99-2.99-4.72-2.73-8.19l1.11-15.23
			L-125.52,347.5z"/>
		<path class="st0" d="M-104.75,345.11l0.77,0.79l-0.77,7.79v7.01v1.55v0.79c-0.52,3.11-1.3,4.67-2.34,4.67h-1.56
			c0-2.79-3.38-6.94-10.13-12.46h-0.79l2.34,16.35l-0.77,0.79h-0.79c-2.6-4.24-3.9-9.7-3.9-16.37v-6.22l1.56-1.57h1.56
			c6.24,5.72,9.37,9.1,9.37,10.13h1.56v-0.77C-108.31,349.27-107.01,345.11-104.75,345.11z"/>
		<path class="st0" d="M-86.04,344.87h2.84v1.88c-11.34,7.3-17,13.29-17,17.96l2.84,2.84h3.78c6.93-1.89,10.39-3.78,10.39-5.67
			h-1.88l-12.29,1.88v-0.94c0-2.27,5.35-4.47,16.06-6.61c2.52,0.95,3.78,1.89,3.78,2.84v2.84c-6.06,6.93-11.42,10.39-16.06,10.39
			h-2.84h-0.94c-4.41-1.27-6.61-3.78-6.61-7.55C-103.98,356.41-98,349.8-86.04,344.87z"/>
		<path class="st0" d="M-57.86,346.35h2.73c1.18,0,1.75,0.88,1.71,2.65c-7.69,0.75-11.4,3.5-11.14,8.25c9.7,0,14.54,1.41,14.54,4.22
			v1.78c-1.38,5.86-4.84,8.78-10.39,8.78l-2.38-3.16c5.7,0.1,8.97-2.16,9.81-6.78l-6.68-0.96h-5.33l-2.53-2.53v-5.21
			C-64.17,348.7-60.96,346.35-57.86,346.35z"/>
		<path class="st0" d="M-33.06,346.64h3.35c3.36,2.59,5.04,6.78,5.04,12.58c-3.53,7.84-9.68,11.76-18.46,11.76
			c-2.8-2.89-4.2-5.41-4.2-7.55v-0.84C-43.33,351.96-38.57,346.64-33.06,346.64z M-44.82,365.1l2.53,1.67h0.84
			c5.35,0,9.83-2.52,13.43-7.55v-3.35c0-3.92-1.68-5.88-5.04-5.88C-39.11,352.92-43.03,357.96-44.82,365.1z"/>
		<path class="st0" d="M-10.02,346.64h3.35c3.36,2.59,5.04,6.78,5.04,12.58c-3.53,7.84-9.68,11.76-18.46,11.76
			c-2.8-2.89-4.2-5.41-4.2-7.55v-0.84C-20.29,351.96-15.54,346.64-10.02,346.64z M-21.78,365.1l2.53,1.67h0.84
			c5.35,0,9.83-2.52,13.43-7.55v-3.35c0-3.92-1.68-5.88-5.04-5.88C-16.07,352.92-19.99,357.96-21.78,365.1z"/>
		<path class="st0" d="M18.81,345.11l0.77,0.79l-0.77,7.79v7.01v1.55v0.79c-0.52,3.11-1.3,4.67-2.34,4.67h-1.56
			c0-2.79-3.38-6.94-10.13-12.46H3.99l2.34,16.35l-0.77,0.79H4.78c-2.6-4.24-3.9-9.7-3.9-16.37v-6.22l1.56-1.57h1.56
			c6.24,5.72,9.37,9.1,9.37,10.13h1.56v-0.77C15.25,349.27,16.55,345.11,18.81,345.11z"/>
		<path class="st0" d="M24.52,366.06l1.4,2.1v0.7c0,1.41-2.11,2.59-6.32,3.52l-1.4-1.4v-0.7C18.19,369.11,20.3,367.7,24.52,366.06z
			 M27.32,344.99l-4.9,18.97H20.3c0.35-6.25,2.23-12.58,5.62-18.97H27.32z"/>
	</g>
	<g>
		<rect x="-213.09" y="342.41" class="st2" width="353.87" height="61.28"/>
		<path d="M-196.38,342.25l4.92,3.93l-1.97,1.97l-5.9-1.97c-3.02,0.8-6.3,4.4-9.84,10.82v7.86h6.89l8.85-5.9l1.97,1.97
			c0,3.27-5.25,6.22-15.74,8.85c-3.45,0-5.42-3.28-5.9-9.83C-209.81,348.15-204.24,342.25-196.38,342.25z"/>
		<path d="M-174.72,344.05h3.35c3.36,2.59,5.04,6.78,5.04,12.58c-3.53,7.84-9.68,11.76-18.46,11.76c-2.8-2.89-4.2-5.41-4.2-7.55
			v-0.84C-184.99,349.36-180.24,344.05-174.72,344.05z M-186.48,362.5l2.53,1.67h0.84c5.35,0,9.83-2.52,13.43-7.55v-3.35
			c0-3.92-1.68-5.88-5.04-5.88C-180.77,350.33-184.69,355.36-186.48,362.5z"/>
		<path d="M-159.24,343.28h0.85c1.79,0,4.35,4.84,7.67,14.51c0.89,0,3.45-3.7,7.69-11.11l2.55-1.69h0.85
			c2.12,0,4.68,7.11,7.69,21.33v0.85l-1.71,1.71h-0.85c-1.26,0-3.26-5.69-5.98-17.07c-1.58,0.78-4.43,5.33-8.53,13.65h-1.71
			c-1.71,0-3.7-3.98-5.98-11.95h-1.69c-1.14,8.53-2.56,12.8-4.27,12.8l-1.71-1.71v-3.4C-164.37,355.01-162.66,349.03-159.24,343.28z
			"/>
		<path d="M-127.4,344.9l1.83,2.14l-0.77,10.58l0.55,10.7l-1.42,1.23c-2.07-1.99-2.99-4.72-2.73-8.19l1.11-15.23L-127.4,344.9z"/>
		<path d="M-106.64,342.51l0.77,0.79l-0.77,7.79v7.01v1.55v0.79c-0.52,3.11-1.3,4.67-2.34,4.67h-1.56c0-2.79-3.38-6.94-10.13-12.46
			h-0.79l2.34,16.35l-0.77,0.79h-0.79c-2.6-4.24-3.9-9.7-3.9-16.37v-6.22l1.56-1.57h1.56c6.24,5.72,9.37,9.1,9.37,10.13h1.56v-0.77
			C-110.19,346.67-108.89,342.51-106.64,342.51z"/>
		<path d="M-87.92,342.27h2.84v1.88c-11.34,7.3-17,13.29-17,17.96l2.84,2.84h3.78c6.93-1.89,10.39-3.78,10.39-5.67h-1.88
			l-12.29,1.88v-0.94c0-2.27,5.35-4.47,16.06-6.61c2.52,0.95,3.78,1.89,3.78,2.84v2.84c-6.06,6.93-11.42,10.39-16.06,10.39h-2.84
			h-0.94c-4.41-1.27-6.61-3.78-6.61-7.55C-105.87,353.82-99.89,347.2-87.92,342.27z"/>
		<path d="M-59.74,343.76h2.73c1.18,0,1.75,0.88,1.71,2.65c-7.69,0.75-11.4,3.5-11.14,8.25c9.7,0,14.54,1.41,14.54,4.22v1.78
			c-1.38,5.86-4.84,8.78-10.39,8.78l-2.38-3.16c5.7,0.1,8.97-2.16,9.81-6.78l-6.68-0.96h-5.33l-2.53-2.53v-5.21
			C-66.06,346.1-62.84,343.76-59.74,343.76z"/>
		<path d="M-34.95,344.05h3.35c3.36,2.59,5.04,6.78,5.04,12.58c-3.53,7.84-9.68,11.76-18.46,11.76c-2.8-2.89-4.2-5.41-4.2-7.55
			v-0.84C-45.22,349.36-40.46,344.05-34.95,344.05z M-46.7,362.5l2.53,1.67h0.84c5.35,0,9.83-2.52,13.43-7.55v-3.35
			c0-3.92-1.68-5.88-5.04-5.88C-41,350.33-44.92,355.36-46.7,362.5z"/>
		<path d="M-11.91,344.05h3.35c3.36,2.59,5.04,6.78,5.04,12.58c-3.53,7.84-9.68,11.76-18.46,11.76c-2.8-2.89-4.2-5.41-4.2-7.55
			v-0.84C-22.18,349.36-17.42,344.05-11.91,344.05z M-23.67,362.5l2.53,1.67h0.84c5.35,0,9.83-2.52,13.43-7.55v-3.35
			c0-3.92-1.68-5.88-5.04-5.88C-17.96,350.33-21.88,355.36-23.67,362.5z"/>
		<path d="M16.92,342.51l0.77,0.79l-0.77,7.79v7.01v1.55v0.79c-0.52,3.11-1.3,4.67-2.34,4.67h-1.56c0-2.79-3.38-6.94-10.13-12.46
			H2.1L4.45,369l-0.77,0.79H2.89c-2.6-4.24-3.9-9.7-3.9-16.37v-6.22l1.56-1.57H2.1c6.24,5.72,9.37,9.1,9.37,10.13h1.56v-0.77
			C13.37,346.67,14.67,342.51,16.92,342.51z"/>
		<path d="M22.63,363.46l1.4,2.1v0.7c0,1.41-2.11,2.59-6.32,3.52l-1.4-1.4v-0.7C16.31,366.51,18.41,365.1,22.63,363.46z
			 M25.43,342.39l-4.9,18.97h-2.12c0.35-6.25,2.23-12.58,5.62-18.97H25.43z"/>
	</g>
	<g>
		<rect x="-215.13" y="338.32" class="st2" width="353.87" height="61.28"/>
		<path class="st1" d="M-198.41,338.17l4.92,3.93l-1.97,1.97l-5.9-1.97c-3.02,0.8-6.3,4.4-9.84,10.82v7.86h6.89l8.85-5.9l1.97,1.97
			c0,3.27-5.25,6.22-15.74,8.85c-3.45,0-5.42-3.28-5.9-9.83C-211.85,344.07-206.28,338.17-198.41,338.17z"/>
		<path class="st1" d="M-176.76,339.96h3.35c3.36,2.59,5.04,6.78,5.04,12.58c-3.53,7.84-9.68,11.76-18.46,11.76
			c-2.8-2.89-4.2-5.41-4.2-7.55v-0.84C-187.03,345.28-182.28,339.96-176.76,339.96z M-188.52,358.42l2.53,1.67h0.84
			c5.35,0,9.83-2.52,13.43-7.55v-3.35c0-3.92-1.68-5.88-5.04-5.88C-182.81,346.24-186.73,351.28-188.52,358.42z"/>
		<path class="st1" d="M-161.28,339.19h0.85c1.79,0,4.35,4.84,7.67,14.51c0.89,0,3.45-3.7,7.69-11.11l2.55-1.69h0.85
			c2.12,0,4.68,7.11,7.69,21.33v0.85l-1.71,1.71h-0.85c-1.26,0-3.26-5.69-5.98-17.07c-1.58,0.78-4.43,5.33-8.53,13.65h-1.71
			c-1.71,0-3.7-3.98-5.98-11.95h-1.69c-1.14,8.53-2.56,12.8-4.27,12.8l-1.71-1.71v-3.4C-166.41,350.92-164.7,344.95-161.28,339.19z"
			/>
		<path class="st1" d="M-129.44,340.82l1.83,2.14l-0.77,10.58l0.55,10.7l-1.42,1.23c-2.07-1.99-2.99-4.72-2.73-8.19l1.11-15.23
			L-129.44,340.82z"/>
		<path class="st1" d="M-108.68,338.42l0.77,0.79l-0.77,7.79v7.01v1.55v0.79c-0.52,3.11-1.3,4.67-2.34,4.67h-1.56
			c0-2.79-3.38-6.94-10.13-12.46h-0.79l2.34,16.35l-0.77,0.79h-0.79c-2.6-4.24-3.9-9.7-3.9-16.37v-6.22l1.56-1.57h1.56
			c6.24,5.72,9.37,9.1,9.37,10.13h1.56v-0.77C-112.23,342.58-110.93,338.42-108.68,338.42z"/>
		<path class="st1" d="M-89.96,338.18h2.84v1.88c-11.34,7.3-17,13.29-17,17.96l2.84,2.84h3.78c6.93-1.89,10.39-3.78,10.39-5.67
			h-1.88l-12.29,1.88v-0.94c0-2.27,5.35-4.47,16.06-6.61c2.52,0.95,3.78,1.89,3.78,2.84v2.84c-6.06,6.93-11.42,10.39-16.06,10.39
			h-2.84h-0.94c-4.41-1.27-6.61-3.78-6.61-7.55C-107.91,349.73-101.93,343.12-89.96,338.18z"/>
		<path class="st1" d="M-61.78,339.67h2.73c1.18,0,1.75,0.88,1.71,2.65c-7.69,0.75-11.4,3.5-11.14,8.25c9.7,0,14.54,1.41,14.54,4.22
			v1.78c-1.38,5.86-4.84,8.78-10.39,8.78l-2.38-3.16c5.7,0.1,8.97-2.16,9.81-6.78l-6.68-0.96h-5.33l-2.53-2.53v-5.21
			C-68.1,342.02-64.88,339.67-61.78,339.67z"/>
		<path class="st1" d="M-36.98,339.96h3.35c3.36,2.59,5.04,6.78,5.04,12.58c-3.53,7.84-9.68,11.76-18.46,11.76
			c-2.8-2.89-4.2-5.41-4.2-7.55v-0.84C-47.25,345.28-42.5,339.96-36.98,339.96z M-48.74,358.42l2.53,1.67h0.84
			c5.35,0,9.83-2.52,13.43-7.55v-3.35c0-3.92-1.68-5.88-5.04-5.88C-43.03,346.24-46.95,351.28-48.74,358.42z"/>
		<path class="st1" d="M-13.95,339.96h3.35c3.36,2.59,5.04,6.78,5.04,12.58c-3.53,7.84-9.68,11.76-18.46,11.76
			c-2.8-2.89-4.2-5.41-4.2-7.55v-0.84C-24.22,345.28-19.46,339.96-13.95,339.96z M-25.7,358.42l2.53,1.67h0.84
			c5.35,0,9.83-2.52,13.43-7.55v-3.35c0-3.92-1.68-5.88-5.04-5.88C-20,346.24-23.92,351.28-25.7,358.42z"/>
		<path class="st1" d="M14.88,338.42l0.77,0.79L14.88,347v7.01v1.55v0.79c-0.52,3.11-1.3,4.67-2.34,4.67h-1.56
			c0-2.79-3.38-6.94-10.13-12.46H0.07l2.34,16.35l-0.77,0.79H0.85c-2.6-4.24-3.9-9.7-3.9-16.37v-6.22l1.56-1.57h1.56
			c6.24,5.72,9.37,9.1,9.37,10.13h1.56v-0.77C11.33,342.58,12.63,338.42,14.88,338.42z"/>
		<path class="st1" d="M20.59,359.38l1.4,2.1v0.7c0,1.41-2.11,2.59-6.32,3.52l-1.4-1.4v-0.7C14.27,362.42,16.38,361.02,20.59,359.38
			z M23.39,338.3l-4.9,18.97h-2.12c0.35-6.25,2.23-12.58,5.62-18.97H23.39z"/>
	</g>
</g>
<g>
	<g>
		<path class="st0" d="M51.19,112.88c2.3,0,4.21,13.03,5.75,39.1l-1.15,1.15h-1.15c-2.3,0-3.45-6.9-3.45-20.71v-6.9
			c-1.92,0.97-5.76,9.02-11.52,24.16h-2.3c-1.8,0-2.95-2.68-3.45-8.05l-1.15-1.15c-0.5-5.38-1.65-8.07-3.45-8.07
			c-0.98,13.81-2.52,20.71-4.6,20.71h-2.3v-1.15c2.76-24.54,5.06-36.8,6.9-36.8c2.9,4.5,5.58,12.55,8.05,24.16h2.3L51.19,112.88z"/>
		<path class="st0" d="M84.32,112.12l2.65,2.65v2.65c-13.86,3.86-20.66,6.14-20.41,6.82l-0.75,5.07v1.32l15.86-5.3l2.65,2.65v2.65
			l-18.51,5.3v9.62l15.86-4.32l2.65,2.62v2.65l-21.91,6.97l-1.9-1.52l-0.98-3.55l0.98-1.9l-0.43-10.57
			c0.77-14.59,2.86-20.34,6.27-17.24l4.72-1.27L84.32,112.12z"/>
		<path class="st0" d="M112.53,112.12l2.65,2.65v2.65c-13.86,3.86-20.66,6.14-20.41,6.82l-0.75,5.07v1.32l15.87-5.3l2.65,2.65v2.65
			l-18.51,5.3v9.62l15.87-4.32l2.65,2.62v2.65l-21.91,6.97l-1.9-1.52l-0.97-3.55l0.97-1.9l-0.42-10.57
			c0.77-14.59,2.86-20.34,6.27-17.24l4.72-1.27L112.53,112.12z"/>
		<path class="st0" d="M146.96,112.8l3.22,3.22c-3.47,2.58-8.3,4.2-14.52,4.85v9.67l1.6,17.74l-1.6,4.85h-3.22l-3.22-29.03v-1.62
			l-11.29,1.62l-1.62-1.62v-1.6C116.3,117.22,126.52,114.53,146.96,112.8z"/>
		<path class="st0" d="M195.06,112.8l3.22,3.22c-3.47,2.58-8.3,4.2-14.52,4.85v9.67l1.6,17.74l-1.6,4.85h-3.22l-3.22-29.03v-1.62
			l-11.29,1.62l-1.62-1.62v-1.6C164.4,117.22,174.62,114.53,195.06,112.8z"/>
		<path class="st0" d="M222.54,113.25l2.77,2.77v6.5l-0.93,3.72l0.93,0.93v0.92l-0.93,9.27l1.85,14.84l-0.92,0.93h-0.93
			c-1.95-1.33-3.81-7.51-5.57-18.54h-0.93c-6.85,2.4-10.55,4.25-11.12,5.55v3.72l1.85,2.77c0,3.22-0.93,5.07-2.77,5.57
			c-2.12,0-3.66-6.18-4.65-18.54l0.93-17.64l2.77-1.85c1.25,0,1.87,0.92,1.87,2.77l-0.93,9.29l0.93,0.93v0.92l-0.93,3.7l0.93,0.92
			c8.64-2.05,12.97-3.59,12.97-4.62C219.74,118.2,220.67,113.25,222.54,113.25z"/>
		<path class="st0" d="M254.9,112.12l2.65,2.65v2.65c-13.86,3.86-20.66,6.14-20.41,6.82l-0.75,5.07v1.32l15.87-5.3l2.65,2.65v2.65
			l-18.51,5.3v9.62l15.87-4.32l2.65,2.62v2.65l-21.91,6.97l-1.9-1.52l-0.97-3.55l0.97-1.9l-0.42-10.57
			c0.77-14.59,2.86-20.34,6.27-17.24l4.72-1.27L254.9,112.12z"/>
		<path class="st0" d="M306.26,112.8l3.22,3.22c-3.47,2.58-8.3,4.2-14.52,4.85v9.67l1.6,17.74l-1.6,4.85h-3.22l-3.22-29.03v-1.62
			l-11.29,1.62l-1.62-1.62v-1.6C275.61,117.22,285.83,114.53,306.26,112.8z"/>
		<path class="st0" d="M329.3,112.12l2.65,2.65v2.65c-13.86,3.86-20.66,6.14-20.41,6.82l-0.75,5.07v1.32l15.87-5.3l2.65,2.65v2.65
			l-18.51,5.3v9.62l15.87-4.32l2.65,2.62v2.65l-21.91,6.97l-1.9-1.52l-0.97-3.55l0.97-1.9l-0.42-10.57
			c0.77-14.59,2.86-20.34,6.27-17.24l4.72-1.27L329.3,112.12z"/>
		<path class="st0" d="M344.67,113.08c2.88,0,5.05,6.5,6.5,19.49l1.08,3.25c2.16,0,3.25,0.72,3.25,2.15l-1.1,1.1v1.07
			c2.16,3.7,3.25,7.3,3.25,10.82v2.17h-2.15c-1.78,0-3.59-3.97-5.42-11.92h-9.74c-2.17,0.47-3.25,3.36-3.25,8.67l-3.25,2.17
			l-1.07-1.1v-1.08l9.74-32.48C342.49,114.52,343.22,113.08,344.67,113.08z M343.57,126.07l-3.25,10.82h5.42l1.07-1.08h1.1
			C346.3,129.31,344.85,126.07,343.57,126.07z"/>
		<path class="st0" d="M368.38,114.37h1.25c2.61,0,6.35,7.07,11.22,21.21c1.3,0,5.05-5.41,11.24-16.24l3.72-2.47h1.25
			c3.1,0,6.85,10.39,11.24,31.18v1.25l-2.5,2.5h-1.25c-1.85,0-4.76-8.32-8.74-24.96c-2.32,1.13-6.47,7.79-12.47,19.96h-2.5
			c-2.5,0-5.41-5.82-8.74-17.46h-2.47c-1.67,12.48-3.75,18.71-6.25,18.71l-2.5-2.5v-4.97C360.88,131.52,363.38,122.79,368.38,114.37
			z"/>
	</g>
	<g>
		<path d="M48.44,109.08c2.3,0,4.21,13.03,5.75,39.1l-1.15,1.15h-1.15c-2.3,0-3.45-6.9-3.45-20.71v-6.9
			c-1.92,0.97-5.76,9.02-11.52,24.16h-2.3c-1.8,0-2.95-2.68-3.45-8.05l-1.15-1.15c-0.5-5.38-1.65-8.07-3.45-8.07
			c-0.98,13.81-2.52,20.71-4.6,20.71h-2.3v-1.15c2.76-24.54,5.06-36.8,6.9-36.8c2.9,4.5,5.58,12.55,8.05,24.16h2.3L48.44,109.08z"/>
		<path d="M81.57,108.33l2.65,2.65v2.65c-13.86,3.86-20.66,6.14-20.41,6.82l-0.75,5.07v1.32l15.86-5.3l2.65,2.65v2.65l-18.51,5.3
			v9.62l15.86-4.32l2.65,2.62v2.65l-21.91,6.97l-1.9-1.52l-0.98-3.55l0.98-1.9l-0.43-10.57c0.77-14.59,2.86-20.34,6.27-17.24
			l4.72-1.27L81.57,108.33z"/>
		<path d="M109.77,108.33l2.65,2.65v2.65c-13.86,3.86-20.66,6.14-20.41,6.82l-0.75,5.07v1.32l15.87-5.3l2.65,2.65v2.65l-18.51,5.3
			v9.62l15.87-4.32l2.65,2.62v2.65l-21.91,6.97l-1.9-1.52l-0.97-3.55l0.97-1.9l-0.42-10.57c0.77-14.59,2.86-20.34,6.27-17.24
			l4.72-1.27L109.77,108.33z"/>
		<path d="M144.2,109l3.22,3.22c-3.47,2.58-8.3,4.2-14.52,4.85v9.67l1.6,17.74l-1.6,4.85h-3.22l-3.22-29.03v-1.62l-11.29,1.62
			l-1.62-1.62v-1.6C113.55,113.42,123.77,110.74,144.2,109z"/>
		<path d="M192.3,109l3.22,3.22c-3.47,2.58-8.3,4.2-14.52,4.85v9.67l1.6,17.74l-1.6,4.85h-3.22l-3.22-29.03v-1.62l-11.29,1.62
			l-1.62-1.62v-1.6C161.64,113.42,171.86,110.74,192.3,109z"/>
		<path d="M219.78,109.45l2.77,2.77v6.5l-0.93,3.72l0.93,0.93v0.92l-0.93,9.27l1.85,14.84l-0.92,0.93h-0.93
			c-1.95-1.33-3.81-7.51-5.57-18.54h-0.93c-6.85,2.4-10.55,4.25-11.12,5.55v3.72l1.85,2.77c0,3.22-0.93,5.07-2.77,5.57
			c-2.12,0-3.66-6.18-4.65-18.54l0.93-17.64l2.77-1.85c1.25,0,1.87,0.92,1.87,2.77l-0.93,9.29l0.93,0.93v0.92l-0.93,3.7l0.93,0.92
			c8.64-2.05,12.97-3.59,12.97-4.62C216.98,114.4,217.92,109.45,219.78,109.45z"/>
		<path d="M252.14,108.33l2.65,2.65v2.65c-13.86,3.86-20.66,6.14-20.41,6.82l-0.75,5.07v1.32l15.87-5.3l2.65,2.65v2.65l-18.51,5.3
			v9.62l15.87-4.32l2.65,2.62v2.65l-21.91,6.97l-1.9-1.52l-0.97-3.55l0.97-1.9l-0.42-10.57c0.77-14.59,2.86-20.34,6.27-17.24
			l4.72-1.27L252.14,108.33z"/>
		<path d="M303.51,109l3.22,3.22c-3.47,2.58-8.3,4.2-14.52,4.85v9.67l1.6,17.74l-1.6,4.85h-3.22l-3.22-29.03v-1.62l-11.29,1.62
			l-1.62-1.62v-1.6C272.85,113.42,283.07,110.74,303.51,109z"/>
		<path d="M326.54,108.33l2.65,2.65v2.65c-13.86,3.86-20.66,6.14-20.41,6.82l-0.75,5.07v1.32l15.87-5.3l2.65,2.65v2.65l-18.51,5.3
			v9.62l15.87-4.32l2.65,2.62v2.65l-21.91,6.97l-1.9-1.52l-0.97-3.55l0.97-1.9l-0.42-10.57c0.77-14.59,2.86-20.34,6.27-17.24
			l4.72-1.27L326.54,108.33z"/>
		<path d="M341.91,109.28c2.88,0,5.05,6.5,6.5,19.49l1.08,3.25c2.16,0,3.25,0.72,3.25,2.15l-1.1,1.1v1.07
			c2.16,3.7,3.25,7.3,3.25,10.82v2.17h-2.15c-1.78,0-3.59-3.97-5.42-11.92h-9.74c-2.17,0.47-3.25,3.36-3.25,8.67l-3.25,2.17
			l-1.07-1.1v-1.08l9.74-32.48C339.73,110.72,340.46,109.28,341.91,109.28z M340.81,122.27l-3.25,10.82h5.42l1.07-1.08h1.1
			C343.54,125.52,342.09,122.27,340.81,122.27z"/>
		<path d="M365.62,110.58h1.25c2.61,0,6.35,7.07,11.22,21.21c1.3,0,5.05-5.41,11.24-16.24l3.72-2.47h1.25
			c3.1,0,6.85,10.39,11.24,31.18v1.25l-2.5,2.5h-1.25c-1.85,0-4.76-8.32-8.74-24.96c-2.32,1.13-6.47,7.79-12.47,19.96h-2.5
			c-2.5,0-5.41-5.82-8.74-17.46h-2.47c-1.67,12.48-3.75,18.71-6.25,18.71l-2.5-2.5v-4.97C358.12,127.73,360.62,118.99,365.62,110.58
			z"/>
	</g>
	<g>
		<path class="st1" d="M45.46,103.11c2.3,0,4.21,13.03,5.75,39.1l-1.15,1.15H48.9c-2.3,0-3.45-6.9-3.45-20.71v-6.9
			c-1.92,0.97-5.76,9.02-11.52,24.16h-2.3c-1.8,0-2.95-2.68-3.45-8.05l-1.15-1.15c-0.5-5.38-1.65-8.07-3.45-8.07
			c-0.98,13.81-2.52,20.71-4.6,20.71h-2.3v-1.15c2.77-24.54,5.06-36.8,6.9-36.8c2.9,4.5,5.58,12.55,8.05,24.16h2.3L45.46,103.11z"/>
		<path class="st1" d="M78.59,102.35l2.65,2.65v2.65c-13.86,3.86-20.66,6.14-20.41,6.82l-0.75,5.07v1.32l15.87-5.3l2.65,2.65v2.65
			l-18.51,5.3v9.62l15.87-4.32l2.65,2.62v2.65l-21.91,6.97l-1.9-1.52l-0.97-3.55l0.97-1.9l-0.42-10.57
			c0.77-14.59,2.86-20.34,6.27-17.24l4.72-1.27L78.59,102.35z"/>
		<path class="st1" d="M106.79,102.35l2.65,2.65v2.65c-13.86,3.86-20.66,6.14-20.41,6.82l-0.75,5.07v1.32l15.86-5.3l2.65,2.65v2.65
			l-18.51,5.3v9.62l15.86-4.32l2.65,2.62v2.65l-21.91,6.97l-1.9-1.52l-0.98-3.55l0.98-1.9l-0.43-10.57
			c0.77-14.59,2.86-20.34,6.27-17.24l4.72-1.27L106.79,102.35z"/>
		<path class="st1" d="M141.22,103.03l3.22,3.22c-3.47,2.58-8.3,4.2-14.52,4.85v9.67l1.6,17.74l-1.6,4.85h-3.22l-3.22-29.03v-1.62
			l-11.29,1.62l-1.62-1.62v-1.6C110.57,107.45,120.78,104.76,141.22,103.03z"/>
		<path class="st1" d="M189.32,103.03l3.22,3.22c-3.47,2.58-8.3,4.2-14.52,4.85v9.67l1.6,17.74l-1.6,4.85h-3.22l-3.22-29.03v-1.62
			l-11.29,1.62l-1.62-1.62v-1.6C158.66,107.45,168.88,104.76,189.32,103.03z"/>
		<path class="st1" d="M216.8,103.48l2.77,2.77v6.5l-0.92,3.72l0.92,0.93v0.92l-0.92,9.27l1.85,14.84l-0.93,0.93h-0.92
			c-1.95-1.33-3.81-7.51-5.57-18.54h-0.92c-6.85,2.4-10.55,4.25-11.12,5.55v3.72l1.85,2.77c0,3.22-0.92,5.07-2.77,5.57
			c-2.12,0-3.66-6.18-4.65-18.54l0.92-17.64l2.77-1.85c1.25,0,1.87,0.92,1.87,2.77l-0.92,9.29l0.92,0.93v0.92l-0.92,3.7l0.92,0.92
			c8.64-2.05,12.97-3.59,12.97-4.62C214,108.43,214.94,103.48,216.8,103.48z"/>
		<path class="st1" d="M249.16,102.35l2.65,2.65v2.65c-13.86,3.86-20.66,6.14-20.41,6.82l-0.75,5.07v1.32l15.86-5.3l2.65,2.65v2.65
			l-18.51,5.3v9.62l15.86-4.32l2.65,2.62v2.65l-21.91,6.97l-1.9-1.52l-0.98-3.55l0.98-1.9l-0.43-10.57
			c0.77-14.59,2.86-20.34,6.27-17.24l4.72-1.27L249.16,102.35z"/>
		<path class="st1" d="M300.53,103.03l3.22,3.22c-3.47,2.58-8.3,4.2-14.52,4.85v9.67l1.6,17.74l-1.6,4.85h-3.22l-3.22-29.03v-1.62
			l-11.29,1.62l-1.62-1.62v-1.6C269.87,107.45,280.09,104.76,300.53,103.03z"/>
		<path class="st1" d="M323.56,102.35l2.65,2.65v2.65c-13.86,3.86-20.66,6.14-20.41,6.82l-0.75,5.07v1.32l15.86-5.3l2.65,2.65v2.65
			l-18.51,5.3v9.62l15.86-4.32l2.65,2.62v2.65l-21.91,6.97l-1.9-1.52l-0.98-3.55l0.98-1.9l-0.43-10.57
			c0.77-14.59,2.86-20.34,6.27-17.24l4.72-1.27L323.56,102.35z"/>
		<path class="st1" d="M338.93,103.31c2.88,0,5.05,6.5,6.5,19.49l1.07,3.25c2.17,0,3.25,0.72,3.25,2.15l-1.1,1.1v1.07
			c2.17,3.7,3.25,7.3,3.25,10.82v2.17h-2.15c-1.78,0-3.59-3.97-5.42-11.92h-9.74c-2.17,0.47-3.25,3.36-3.25,8.67l-3.25,2.17
			l-1.08-1.1v-1.08l9.74-32.48C336.75,104.75,337.48,103.31,338.93,103.31z M337.83,116.3l-3.25,10.82H340l1.08-1.08h1.1
			C340.56,119.54,339.11,116.3,337.83,116.3z"/>
		<path class="st1" d="M362.64,104.6h1.25c2.62,0,6.35,7.07,11.22,21.21c1.3,0,5.05-5.41,11.24-16.24l3.72-2.47h1.25
			c3.1,0,6.85,10.39,11.24,31.18v1.25l-2.5,2.5h-1.25c-1.85,0-4.76-8.32-8.74-24.96c-2.32,1.13-6.47,7.79-12.47,19.96h-2.5
			c-2.5,0-5.41-5.82-8.74-17.46h-2.47c-1.67,12.48-3.75,18.71-6.25,18.71l-2.5-2.5v-4.97C355.14,121.75,357.64,113.02,362.64,104.6z
			"/>
	</g>
</g>
<g>
</g>
<g>
</g>
<g>
</g>
<g>
</g>
<g>
</g>
<g>
</g>
</svg>
