<?xml version="1.0" encoding="utf-8"?>
<!-- Generator: Adobe Illustrator 26.5.0, SVG Export Plug-In . SVG Version: 6.00 Build 0)  -->
<svg version="1.1" id="Layer_1" xmlns="http://www.w3.org/2000/svg" xmlns:xlink="http://www.w3.org/1999/xlink" x="0px" y="0px"
	 viewBox="0 0 1348.09 220.6" style="enable-background:new 0 0 1348.09 220.6;" xml:space="preserve">
<style type="text/css">
	.st0{fill:none;}
	.st1{fill:#FFFFFF;}
</style>
<g>
	<rect x="23.12" y="22.55" class="st0" width="1301.84" height="175.49"/>
	<path class="st1" d="M154.78,63.31h5.51l5.51,5.51v49.75c0.47,9.22,2.32,13.83,5.57,13.83l19.34-2.75l2.75,2.75v5.51
		c0,5.51-19.34,11.95-58.01,19.34l-2.81-2.75v-5.51c0-4.41,7.38-8.1,22.15-11.07l-5.57-44.18h-2.75l-13.83,11.02l-8.26-8.26v-2.75
		L154.78,63.31z"/>
	<path class="st1" d="M268.98,63.72l5.16,5.21v5.16c-6.76,10.39-12.81,15.59-18.16,15.59v5.21h15.59
		c6.91,2.81,10.37,8.87,10.37,18.16v5.21c-20.66,25.98-41.45,38.96-62.34,38.96c-12.11-1.33-18.16-7.38-18.16-18.16v-2.64l5.21-5.16
		h2.58c0,6.91,1.74,10.37,5.21,10.37c16.25,0,35.29-9.53,57.13-28.59l-5.21-5.16h-2.58l-13.01,2.58v-2.58l-25.96,7.79l-2.58-2.64
		v-10.37l25.96-23.38h-2.58l-33.81,5.21l-2.58-2.64V71.51C226.6,66.31,246.52,63.72,268.98,63.72z"/>
	<path class="st1" d="M364.43,96.24l2.52,2.52v2.46c0,3.79-10,7.13-30,10.02l-2.52,2.52h-10.02l-7.5-7.5
		C330.47,99.58,346.31,96.24,364.43,96.24z"/>
	<path class="st1" d="M436.71,63.74c14.47-0.29,20.69,5.32,18.66,16.85c0,13.98-9.12,30.41-27.36,49.28v5.45l38.32-10.9l5.45,5.45
		v5.45l-65.68,21.91l-5.45-5.45v-5.51l43.77-54.73V75.14c-13.28-4.69-24.22,0.78-32.81,16.41h-5.51V86.1
		C412.03,71.49,422.24,64.04,436.71,63.74z"/>
	<path class="st1" d="M530.43,63.31h6.04l3.63,4.8l-31.29,32.87l19.16-3.87h2.17c7.69,0,14.16,3.13,19.39,9.38
		c-2.23,32.07-17.7,48.65-46.41,49.75c-14.49-4.41-21.74-9.14-21.74-14.18v-6.15C481.39,120.47,497.73,96.27,530.43,63.31z
		 M493.81,125.36c-0.59,11.72,5.82,16.46,19.22,14.24c15.04-5.31,22.56-12.67,22.56-22.09c0-4.92-2.56-7.38-7.68-7.38
		C511.23,107.62,499.86,112.7,493.81,125.36z"/>
	<path class="st1" d="M644.34,63.72l2.64,2.7l-2.64,26.72v24.02v5.33v2.7c-1.8,10.66-4.47,16-8.03,16h-5.33
		c0-9.57-11.58-23.81-34.75-42.71h-2.7l8.03,56.07l-2.64,2.7h-2.7c-8.91-14.53-13.36-33.24-13.36-56.13V79.77l5.33-5.39h5.33
		c21.41,19.61,32.11,31.19,32.11,34.75h5.33v-2.64C632.15,77.97,636.6,63.72,644.34,63.72z"/>
	<path class="st1" d="M696.31,68.99h11.48c11.52,8.87,17.29,23.24,17.29,43.12c-12.11,26.88-33.2,40.31-63.28,40.31
		c-9.61-9.92-14.41-18.55-14.41-25.9v-2.87C661.09,87.21,677.4,68.99,696.31,68.99z M656,132.27l8.67,5.74h2.87
		c18.36,0,33.71-8.63,46.05-25.9v-11.48c0-13.44-5.76-20.16-17.29-20.16C675.57,90.51,662.13,107.78,656,132.27z"/>
	<path class="st1" d="M797.97,63.48l6.97,6.91c-11.56,26.09-20.82,55.04-27.77,86.84h-6.97c-7.38-2.66-22.42-25.8-45.12-69.43V73.91
		c10.74,6.02,23.48,25.68,38.2,59h6.91C779.26,90.77,788.51,67.62,797.97,63.48z"/>
	<path class="st1" d="M855.45,61.08l6.21,6.21v6.21c-32.5,9.06-48.46,14.4-47.87,16l-1.76,11.89v3.11l37.21-12.42l6.21,6.21v6.21
		l-43.42,12.42v22.56l37.21-10.14l6.21,6.15v6.21l-51.39,16.35l-4.45-3.57l-2.29-8.32l2.29-4.45l-1-24.79
		c1.8-34.22,6.7-47.7,14.71-40.43l11.07-2.99L855.45,61.08z"/>
	<path class="st1" d="M882.99,66.35h2.93c6.13,0,14.9,16.58,26.31,49.75c3.05,0,11.84-12.69,26.37-38.09l8.73-5.8h2.93
		c7.27,0,16.05,24.38,26.37,73.12v2.93l-5.86,5.86h-2.93c-4.34,0-11.17-19.51-20.51-58.54c-5.43,2.66-15.18,18.26-29.24,46.82h-5.86
		c-5.86,0-12.7-13.65-20.51-40.96h-5.8c-3.91,29.26-8.79,43.89-14.65,43.89l-5.86-5.86v-11.66
		C865.41,106.57,871.27,86.08,882.99,66.35z"/>
	<path class="st1" d="M1024.49,65.47h2.99c19.73,2.42,29.59,6.37,29.59,11.84v2.99c0,7.11-3.95,15-11.84,23.67l11.84,14.77v17.75
		c0,8.59-13.81,15.51-41.43,20.74h-11.84l-2.99-2.99l-2.93,2.99h-2.99c-7.89,0-11.84-26.64-11.84-79.92
		C992.13,69.42,1005.94,65.47,1024.49,65.47z M991.97,86.22v23.67c13.16,0,30.92-8.89,53.26-26.66V80.3l-14.82-2.99h-20.68
		L991.97,86.22z M991.97,124.65c1.21,11.84,4.16,17.75,8.85,17.75h23.67l23.67-14.77v-8.91h-20.68L991.97,124.65z"/>
	<path class="st1" d="M1123.75,61.08l6.21,6.21v6.21c-32.5,9.06-48.46,14.4-47.87,16l-1.76,11.89v3.11l37.21-12.42l6.21,6.21v6.21
		l-43.42,12.42v22.56l37.21-10.14l6.21,6.15v6.21l-51.39,16.35l-4.45-3.57l-2.29-8.32l2.29-4.45l-1-24.79
		c1.8-34.22,6.7-47.7,14.71-40.43l11.07-2.99L1123.75,61.08z"/>
	<path class="st1" d="M1171.03,63.31c22.93,0,34.39,5.35,34.39,16.05c0,8.52-9.94,21.48-29.82,38.91v2.34
		c32.07,5.31,48.11,12.93,48.11,22.85c0,3.52-3.81,5.82-11.43,6.91c0-3.48-19.08-10.35-57.25-20.62l4.57,25.2l-2.29,2.29h-2.29
		c-5.04,0-8.87-9.16-11.48-27.48c-1.99-16.8-3.52-35.88-4.57-57.25L1171.03,63.31z M1152.75,90.79v6.91v2.29v11.43l2.29,2.29
		c8.87-3.55,21.07-14.24,36.62-32.05v-4.57h-4.57C1164.2,77.08,1152.75,81.65,1152.75,90.79z"/>
</g>
<g>
</g>
<g>
</g>
<g>
</g>
<g>
</g>
<g>
</g>
</svg>
