<?xml version="1.0" encoding="utf-8"?>
<!-- Generator: Adobe Illustrator 26.5.0, SVG Export Plug-In . SVG Version: 6.00 Build 0)  -->
<svg version="1.1" id="Layer_1" xmlns="http://www.w3.org/2000/svg" xmlns:xlink="http://www.w3.org/1999/xlink" x="0px" y="0px"
	 viewBox="0 0 425 255.83" style="enable-background:new 0 0 425 255.83;" xml:space="preserve">
<style type="text/css">
	.st0{fill:#F300E6;}
	.st1{fill:#FFFFFF;}
</style>
<g>
	<g>
		<g>
			<path class="st0" d="M96.85,91.13c0.49,0,1.2,0.86,2.13,2.57l4.27-1.71l2.57,2.55c-0.08,0.69-2.36,1.83-6.84,3.41v1.28h2.14
				c4.89,0,7.45,0.86,7.68,2.57c0,2.71-2.99,5.13-8.96,7.26v4.25l-0.86,0.86h-1.27c-0.86,0-1.28-0.86-1.28-2.57l-2.99,0.86
				c-1.14-0.43-1.71-0.86-1.71-1.28v-1.28l1.28-1.28l1.71,0.44l0.84-1.28v-2.99h-2.99c-1.55,0-2.68-0.57-3.41-1.71v-1.28
				c0.2-0.83,2.47-3.11,6.82-6.84l-0.42-0.42V93.7C95.74,91.99,96.17,91.13,96.85,91.13z M98.98,103.93v1.71h0.44
				c1.92-0.77,3.2-1.62,3.83-2.55h-0.42L98.98,103.93z"/>
			<path class="st0" d="M121.67,92.54h2.81c1.22,0,1.8,0.91,1.76,2.72c-7.91,0.77-11.73,3.6-11.46,8.49
				c9.97,0,14.96,1.45,14.96,4.34v1.83c-1.42,6.02-4.98,9.04-10.69,9.04l-2.44-3.25c5.86,0.11,9.22-2.22,10.09-6.98l-6.87-0.98
				h-5.48l-2.6-2.6v-5.36C115.17,94.95,118.48,92.54,121.67,92.54z"/>
			<path class="st0" d="M147.53,91.13l1.88,1.88v2.81l0.93,14.1c0.43,5.88-0.5,8.07-2.81,6.57c0.09-3.2-0.18-4.45-0.83-3.76
				c-5.52,4.38-9.32,6.57-11.39,6.57c-1.88-0.39-2.81-2.89-2.81-7.51V95.83l2.81-2.81l0.95,0.93l-0.95,6.57v8.46l0.95,4.69
				l10.34-5.62l-0.95-9.4v-5.62L147.53,91.13z"/>
			<path class="st0" d="M156.49,92.05l6.36-0.91c5.45,0.61,8.17,1.82,8.17,3.64v4.54c-4.51,7.28-9.36,10.92-14.54,10.92l0.91,9.09
				h-2.74l-1.81-12.73V92.94l0.91-0.9C154.9,91.17,155.81,91.17,156.49,92.05z M156.49,99.31c-0.53,1.63-0.53,3.75,0,6.36h0.91
				c5.5-3.32,8.53-5.74,9.09-7.26V97.5l-0.91-0.91v-0.9C159.52,97.03,156.49,98.24,156.49,99.31z"/>
			<path class="st0" d="M188.45,90.47l1.86,1.86v1.86c-9.75,2.72-14.54,4.32-14.36,4.8l-0.53,3.57v0.93l11.16-3.73l1.86,1.86v1.86
				l-13.03,3.73v6.77l11.16-3.04l1.86,1.85v1.86l-15.42,4.9l-1.34-1.07l-0.69-2.5l0.69-1.34l-0.3-7.44
				c0.54-10.27,2.01-14.31,4.41-12.13l3.32-0.9L188.45,90.47z"/>
			<path class="st0" d="M202.64,91.13c6.88,0,10.32,1.61,10.32,4.82c0,2.55-2.98,6.45-8.95,11.67v0.7
				c9.62,1.59,14.43,3.88,14.43,6.86c0,1.05-1.14,1.75-3.43,2.07c0-1.04-5.72-3.11-17.17-6.19l1.37,7.56l-0.69,0.69h-0.69
				c-1.51,0-2.66-2.75-3.45-8.24c-0.6-5.04-1.05-10.76-1.37-17.17L202.64,91.13z M197.15,99.38v2.07v0.69v3.43l0.69,0.69
				c2.66-1.07,6.32-4.27,10.99-9.62v-1.37h-1.37C200.58,95.27,197.15,96.64,197.15,99.38z"/>
			<path class="st0" d="M221.94,92.05l6.36-0.91c5.45,0.61,8.17,1.82,8.17,3.64v4.54c-4.51,7.28-9.36,10.92-14.54,10.92l0.91,9.09
				h-2.74l-1.81-12.73V92.94l0.91-0.9C220.35,91.17,221.26,91.17,221.94,92.05z M221.94,99.31c-0.53,1.63-0.53,3.75,0,6.36h0.91
				c5.5-3.32,8.53-5.74,9.09-7.26V97.5l-0.91-0.91v-0.9C224.97,97.03,221.94,98.24,221.94,99.31z"/>
			<path class="st0" d="M249.45,92.84h3.45c3.46,2.66,5.19,6.97,5.19,12.94c-3.63,8.06-9.96,12.09-18.98,12.09
				c-2.88-2.98-4.32-5.57-4.32-7.77v-0.86C238.88,98.31,243.77,92.84,249.45,92.84z M237.35,111.82l2.6,1.72h0.86
				c5.51,0,10.11-2.59,13.82-7.77v-3.45c0-4.03-1.73-6.05-5.19-6.05C243.22,99.3,239.19,104.48,237.35,111.82z"/>
			<path class="st0" d="M283.34,91.13l0.97,0.98h0.97l-4.85,22.34h-0.97l-8.75-11.67c-0.64,11.02-1.94,16.52-3.88,16.52
				c-2.59-2.43-5.5-10.85-8.74-25.26l0.97-0.97h0.98c1.93,0,3.55,5.18,4.85,15.54c1.29,0,2.58-4.86,3.88-14.57h1.93l5.84,10.69h1.95
				C279.77,95.67,281.39,91.13,283.34,91.13z"/>
			<path class="st0" d="M301.06,90.47l1.86,1.86v1.86c-9.75,2.72-14.54,4.32-14.36,4.8l-0.53,3.57v0.93l11.16-3.73l1.86,1.86v1.86
				l-13.03,3.73v6.77l11.16-3.04l1.86,1.85v1.86l-15.42,4.9l-1.34-1.07l-0.69-2.5l0.69-1.34l-0.3-7.44
				c0.54-10.27,2.01-14.31,4.41-12.13l3.32-0.9L301.06,90.47z"/>
			<path class="st0" d="M315.24,91.13c6.88,0,10.32,1.61,10.32,4.82c0,2.55-2.98,6.45-8.95,11.67v0.7
				c9.62,1.59,14.43,3.88,14.43,6.86c0,1.05-1.14,1.75-3.43,2.07c0-1.04-5.72-3.11-17.17-6.19l1.37,7.56l-0.69,0.69h-0.69
				c-1.51,0-2.66-2.75-3.45-8.24c-0.6-5.04-1.05-10.76-1.37-17.17L315.24,91.13z M309.76,99.38v2.07v0.69v3.43l0.69,0.69
				c2.66-1.07,6.32-4.27,10.99-9.62v-1.37h-1.37C313.19,95.27,309.76,96.64,309.76,99.38z"/>
		</g>
	</g>
	<g>
		<path d="M139.06,40.75l1.34,2c-3.05,1.69-8.41,3.03-16.1,4.03v4.71l0.67,0.67v0.67l12.74-2.69l0.69,0.67v0.69
			c-0.76,1.93-5.24,3.72-13.43,5.36l1.35,5.36v5.38l-1.35,1.34c-0.89,0-2.01-4.03-3.36-12.08l-1.34-1.34v-1.35l1.34-2l-0.67-2.69
			l0.67-0.67v-0.67l-0.67-4.03L139.06,40.75z"/>
		<path d="M154.1,40.75h0.54l1.11,1.11v0.54c0,1.02-1.84,1.94-5.52,2.76l-0.56,2.78l0.56,3.87v8.84l1.09,1.09
			c0-0.63,2.03-1.73,6.08-3.3l1.11,1.65v0.56c-3.55,3.42-8.34,6.18-14.36,8.28h-0.56l-1.65-1.65v-0.56c0.79-1.17,2.62-2.27,5.52-3.3
			l-0.54-11.06v-0.54l0.54-5.54h-0.54l-6.63,1.67l-1.11-1.67v-0.54C139.18,43.84,144.15,42.18,154.1,40.75z"/>
		<path d="M174.44,40.61h0.47c0.62,0,0.93,0.46,0.93,1.39l-0.93,13.46l0.93,8.35v0.47l-0.93,0.93l-10.69-14.4h-0.93v5.12
			c0,3.79,0.47,7.19,1.41,10.21V68l-0.93,0.93c-2.17-1.05-3.25-5.08-3.25-12.08V45.73c0-1.66,0.62-2.75,1.86-3.25
			c0.77,2.7,4.02,7.49,9.74,14.38v-0.91C172.55,45.72,173.33,40.61,174.44,40.61z"/>
		<path d="M189.4,40.75c8.05,0.57,12.08,3.04,12.08,7.38c-1.99,5.91-7.58,12.84-16.77,20.79h-1.35c-2.68-3.39-4.03-10.77-4.03-22.15
			l-0.67-2C178.66,42.09,182.24,40.75,189.4,40.75z M182.69,47.47c0.59,10.28,1.71,15.42,3.36,15.42
			c7.61-9.07,11.41-14.44,11.41-16.1l-8.05-2.67h-4.03C184.45,44.31,183.55,45.43,182.69,47.47z"/>
		<path d="M217.95,40.75h0.54c0.71,0,1.07,0.54,1.07,1.62c-2.17,3.62-4.15,7.96-5.96,13.01h1.09c1.79,0,6.49-4.69,14.08-14.08
			l1.09,1.07v2.18c-4.7,5.47-7.05,11.79-7.05,18.97c0,3.61-0.54,5.41-1.62,5.41l-1.09-2.71l0.54-3.8v-5.41h-0.54
			c-3.5,2.53-6.03,3.8-7.58,3.8l-1.09-3.25C211.44,51,213.61,45.39,217.95,40.75z"/>
		<path d="M241.82,41.4c4.91,5.6,7.37,10.24,7.37,13.9v4.92c-4.27,5.45-8.36,8.17-12.27,8.17c-5.03,0-8.03-3.54-9-10.63v-2.46
			C229.89,46.04,234.53,41.4,241.82,41.4z M231.18,62.67l3.27,1.63c4.09,0,7.91-2.46,11.46-7.37v-4.9l-4.9-6.54
			C234.46,47.36,231.18,53.09,231.18,62.67z"/>
		<path d="M265.69,40.75l1.16,1.76v13.5l0.65,6.73c-0.19,1-0.79,1.85-1.81,2.57l-1.12,0.25l-0.05-1.92
			c-5.81,3.53-9.53,5.29-11.16,5.29h-0.58l-1.18-1.18v-5.87c1.31-12.91,2.68-19.37,4.11-19.37l1.76,1.76l-2.94,17.03l0.58,3.52
			c1.54,0,4.28-1.56,8.23-4.69v-9.39C263.33,44.08,264.12,40.75,265.69,40.75z"/>
		<path d="M282.53,42.19h1.53l3.83,3.81l-0.77,0.77l0.77,0.76v0.76c0,1.93-3.06,4.99-9.19,9.18v0.76
			c8.17,3.22,12.25,6.03,12.25,8.42l-2.3,0.76c-5.93-3.56-10.52-5.34-13.78-5.34l1.53,6.12l-0.76,0.76h-0.77
			c-2.12,0-3.65-5.09-4.59-15.28c0-6.62,2.3-9.93,6.89-9.93C277.17,42.86,278.96,42.35,282.53,42.19z M274.11,55.18h0.76
			c4.23-2,7.29-4.55,9.19-7.65v-1.53h-0.77c-6.12,0-9.18,1.78-9.18,5.34V55.18z"/>
	</g>
	<g>
		<path d="M94.89,88.91c0.49,0,1.2,0.86,2.13,2.57l4.27-1.71l2.57,2.55c-0.08,0.69-2.36,1.83-6.84,3.41v1.28h2.14
			c4.89,0,7.45,0.86,7.68,2.57c0,2.71-2.99,5.13-8.96,7.26v4.25l-0.86,0.86h-1.27c-0.86,0-1.28-0.86-1.28-2.57l-2.99,0.86
			c-1.14-0.43-1.71-0.86-1.71-1.28v-1.28l1.28-1.28l1.71,0.44l0.84-1.28v-2.99h-2.99c-1.55,0-2.68-0.57-3.41-1.71v-1.28
			c0.2-0.83,2.47-3.11,6.82-6.84l-0.42-0.42v-0.84C93.79,89.77,94.21,88.91,94.89,88.91z M97.02,101.71v1.71h0.44
			c1.92-0.77,3.2-1.62,3.83-2.55h-0.42L97.02,101.71z"/>
		<path d="M119.71,90.32h2.81c1.22,0,1.8,0.91,1.76,2.72c-7.91,0.77-11.73,3.6-11.46,8.49c9.97,0,14.96,1.45,14.96,4.34v1.83
			c-1.42,6.02-4.98,9.04-10.69,9.04l-2.44-3.25c5.86,0.11,9.22-2.22,10.09-6.98l-6.87-0.98h-5.48l-2.6-2.6v-5.36
			C113.21,92.73,116.53,90.32,119.71,90.32z"/>
		<path d="M145.57,88.91l1.88,1.88v2.81l0.93,14.1c0.43,5.88-0.5,8.07-2.81,6.57c0.09-3.2-0.18-4.45-0.83-3.76
			c-5.52,4.38-9.32,6.57-11.39,6.57c-1.88-0.39-2.81-2.89-2.81-7.51V93.6l2.81-2.81l0.95,0.93l-0.95,6.57v8.46l0.95,4.69l10.34-5.62
			l-0.95-9.4v-5.62L145.57,88.91z"/>
		<path d="M154.54,89.82l6.36-0.91c5.45,0.61,8.17,1.82,8.17,3.64v4.54c-4.51,7.28-9.36,10.92-14.54,10.92l0.91,9.09h-2.74
			l-1.81-12.73V90.72l0.91-0.9C152.95,88.95,153.86,88.95,154.54,89.82z M154.54,97.08c-0.53,1.63-0.53,3.75,0,6.36h0.91
			c5.5-3.32,8.53-5.74,9.09-7.26v-0.91l-0.91-0.91v-0.9C157.56,94.81,154.54,96.02,154.54,97.08z"/>
		<path d="M186.49,88.24l1.86,1.86v1.86c-9.75,2.72-14.54,4.32-14.36,4.8l-0.53,3.57v0.93l11.16-3.73l1.86,1.86v1.86l-13.03,3.73
			v6.77l11.16-3.04l1.86,1.85v1.86l-15.42,4.9l-1.34-1.07l-0.69-2.5l0.69-1.34l-0.3-7.44c0.54-10.27,2.01-14.31,4.41-12.13l3.32-0.9
			L186.49,88.24z"/>
		<path d="M200.68,88.91c6.88,0,10.32,1.61,10.32,4.82c0,2.55-2.98,6.45-8.95,11.67v0.7c9.62,1.59,14.43,3.88,14.43,6.86
			c0,1.05-1.14,1.75-3.43,2.07c0-1.04-5.72-3.11-17.17-6.19l1.37,7.56l-0.69,0.69h-0.69c-1.51,0-2.66-2.75-3.45-8.24
			c-0.6-5.04-1.05-10.76-1.37-17.17L200.68,88.91z M195.19,97.15v2.07v0.69v3.43l0.69,0.69c2.66-1.07,6.32-4.27,10.99-9.62v-1.37
			h-1.37C198.63,93.04,195.19,94.41,195.19,97.15z"/>
		<path d="M219.98,89.82l6.36-0.91c5.45,0.61,8.17,1.82,8.17,3.64v4.54C230,104.36,225.16,108,219.98,108l0.91,9.09h-2.74
			l-1.81-12.73V90.72l0.91-0.9C218.39,88.95,219.3,88.95,219.98,89.82z M219.98,97.08c-0.53,1.63-0.53,3.75,0,6.36h0.91
			c5.5-3.32,8.53-5.74,9.09-7.26v-0.91l-0.91-0.91v-0.9C223.01,94.81,219.98,96.02,219.98,97.08z"/>
		<path d="M247.49,90.62h3.45c3.46,2.66,5.19,6.97,5.19,12.94c-3.63,8.06-9.96,12.09-18.98,12.09c-2.88-2.98-4.32-5.57-4.32-7.77
			v-0.86C236.92,96.08,241.82,90.62,247.49,90.62z M235.39,109.6l2.6,1.72h0.86c5.51,0,10.11-2.59,13.82-7.77v-3.45
			c0-4.03-1.73-6.05-5.19-6.05C241.27,97.07,237.23,102.25,235.39,109.6z"/>
		<path d="M281.38,88.91l0.97,0.98h0.97l-4.85,22.34h-0.97l-8.75-11.67c-0.64,11.02-1.94,16.52-3.88,16.52
			c-2.59-2.43-5.5-10.85-8.74-25.26l0.97-0.97h0.98c1.93,0,3.55,5.18,4.85,15.54c1.29,0,2.58-4.86,3.88-14.57h1.93l5.84,10.69h1.95
			C277.82,93.45,279.43,88.91,281.38,88.91z"/>
		<path d="M299.1,88.24l1.86,1.86v1.86c-9.75,2.72-14.54,4.32-14.36,4.8l-0.53,3.57v0.93l11.16-3.73l1.86,1.86v1.86l-13.03,3.73
			v6.77l11.16-3.04l1.86,1.85v1.86l-15.42,4.9l-1.34-1.07l-0.69-2.5l0.69-1.34l-0.3-7.44c0.54-10.27,2.01-14.31,4.41-12.13l3.32-0.9
			L299.1,88.24z"/>
		<path d="M313.28,88.91c6.88,0,10.32,1.61,10.32,4.82c0,2.55-2.98,6.45-8.95,11.67v0.7c9.62,1.59,14.43,3.88,14.43,6.86
			c0,1.05-1.14,1.75-3.43,2.07c0-1.04-5.72-3.11-17.17-6.19l1.37,7.56l-0.69,0.69h-0.69c-1.51,0-2.66-2.75-3.45-8.24
			c-0.6-5.04-1.05-10.76-1.37-17.17L313.28,88.91z M307.8,97.15v2.07v0.69v3.43l0.69,0.69c2.66-1.07,6.32-4.27,10.99-9.62v-1.37
			h-1.37C311.23,93.04,307.8,94.41,307.8,97.15z"/>
	</g>
	<g>
		<path d="M36.3,137.99c1.39,0.69,3.53,5.34,6.4,13.96l0.58,0.58h0.58l-0.58,2.92l2.34,9.32v1.16l-1.16,1.16
			c-1.32,0-2.68-3.3-4.08-9.9c-5.04,0.73-7.56,2.67-7.56,5.82c0,2.72-0.39,4.08-1.18,4.08c-0.88,0-1.46-2.52-1.74-7.56
			c1.7-9.84,3.64-17.02,5.82-21.53H36.3z M35.72,144.39c-1.16,4.51-1.74,8.39-1.74,11.64l4.66-1.74v-2.34
			C37.46,146.91,36.49,144.39,35.72,144.39z"/>
		<path d="M59.62,138.76h0.47c0.62,0,0.93,0.46,0.93,1.39l-0.93,13.46l0.93,8.35v0.47l-0.93,0.93l-10.69-14.4h-0.93v5.12
			c0,3.79,0.47,7.19,1.41,10.21v1.85l-0.93,0.93C46.79,166.03,45.7,162,45.7,155v-11.13c0-1.66,0.62-2.75,1.86-3.25
			c0.77,2.7,4.02,7.49,9.74,14.38v-0.91C57.74,143.87,58.51,138.76,59.62,138.76z"/>
		<path d="M74.58,138.9c8.05,0.57,12.08,3.04,12.08,7.38c-1.99,5.91-7.58,12.84-16.77,20.79h-1.35c-2.68-3.39-4.03-10.77-4.03-22.15
			l-0.67-2C63.84,140.25,67.42,138.9,74.58,138.9z M67.87,145.62c0.59,10.28,1.71,15.42,3.36,15.42
			c7.61-9.07,11.41-14.44,11.41-16.1l-8.05-2.67h-4.03C69.63,142.46,68.74,143.58,67.87,145.62z"/>
		<path d="M109.51,138.9c2.45,1.04,3.79,2.12,4.03,3.22v1.62l-0.81,4.03c3.22,1.25,4.83,2.33,4.83,3.22v5.64
			c0,4.11-4.03,7.6-12.08,10.46h-4.83c-2.05,0-3.39-5.37-4.03-16.1c0.84-7.51,1.65-11.27,2.41-11.27L109.51,138.9z M99.84,150.17
			c6.98-3.07,10.48-5.48,10.48-7.24v-0.81C103.34,142.12,99.84,144.8,99.84,150.17z M99.84,155.81v4.03l1.62,3.22
			c9.66-2.68,14.48-6.17,14.48-10.46c-2.14,0-3.22-0.54-3.22-1.62C108.05,150.98,103.76,152.59,99.84,155.81z"/>
		<path d="M138.15,139.73l0.6,0.6v0.6c0,1.15-4.96,2.93-14.87,5.34l-0.6,4.17v0.6c5.27-1.59,9.63-2.39,13.08-2.39l0.6,0.6v1.2
			c0,1.49-4.36,2.88-13.08,4.17v6.54l0.6,1.18l13.08-4.75l1.2,1.78c-5.84,5.16-11.19,7.73-16.07,7.73
			c-1.18-4.36-1.97-9.71-2.37-16.05l1.2-5.96l-0.6-1.78C123.93,140.92,129.67,139.73,138.15,139.73z"/>
		<path d="M168.36,138.24v2.14c0,1.22-2.15,2.3-6.45,3.23l-2.16,21.52l1.07,4.31l-1.07,1.07h-1.07c-2.16,0-3.23-3.23-3.23-9.69
			l1.07-16.14h-7.52v-3.22L168.36,138.24z"/>
		<path d="M172.41,138.94l1.41,2.11v1.41c0,5.47,0.47,9.22,1.41,11.25l11.27-3.52v-2.11l0.7-4.22l-0.7-0.7v-0.7l2.11-2.81l1.41,1.41
			v7.03l3.52,3.52l-2.81,2.11l0.7,11.27l-0.7,0.7H190c-1.56,0-2.5-3.76-2.81-11.27v-0.7c-2.13,0-6.12,1.18-11.97,3.53v0.7l1.41,7.73
			v1.41h-1.41c-2.51,0-3.91-9.15-4.22-27.44l0.7-0.7H172.41z"/>
		<path d="M213.59,139.73l0.6,0.6v0.6c0,1.15-4.96,2.93-14.87,5.34l-0.6,4.17v0.6c5.27-1.59,9.63-2.39,13.08-2.39l0.6,0.6v1.2
			c0,1.49-4.36,2.88-13.08,4.17v6.54l0.6,1.18l13.08-4.75l1.2,1.78c-5.84,5.16-11.19,7.73-16.07,7.73
			c-1.18-4.36-1.97-9.71-2.37-16.05l1.2-5.96l-0.6-1.78C199.37,140.92,205.12,139.73,213.59,139.73z"/>
		<path d="M225.72,138.94l1.41,2.11v1.41c0,5.47,0.47,9.22,1.41,11.25l11.27-3.52v-2.11l0.7-4.22l-0.7-0.7v-0.7l2.11-2.81l1.41,1.41
			v7.03l3.52,3.52l-2.81,2.11l0.7,11.27l-0.7,0.7h-0.7c-1.56,0-2.5-3.76-2.81-11.27v-0.7c-2.13,0-6.12,1.18-11.97,3.53v0.7
			l1.41,7.73v1.41h-1.41c-2.51,0-3.91-9.15-4.22-27.44l0.7-0.7H225.72z"/>
		<path d="M266.91,139.73l0.6,0.6v0.6c0,1.15-4.96,2.93-14.87,5.34l-0.6,4.17v0.6c5.27-1.59,9.63-2.39,13.08-2.39l0.6,0.6v1.2
			c0,1.49-4.36,2.88-13.08,4.17v6.54l0.6,1.18l13.08-4.75l1.2,1.78c-5.84,5.16-11.19,7.73-16.07,7.73
			c-1.18-4.36-1.97-9.71-2.37-16.05l1.2-5.96l-0.6-1.78C252.69,140.92,258.43,139.73,266.91,139.73z"/>
		<path d="M279.88,140.34h1.53l3.83,3.81l-0.77,0.77l0.77,0.76v0.76c0,1.93-3.06,4.99-9.19,9.18v0.76
			c8.17,3.22,12.25,6.03,12.25,8.42l-2.3,0.76c-5.93-3.56-10.52-5.34-13.78-5.34l1.53,6.12l-0.76,0.76h-0.77
			c-2.12,0-3.65-5.09-4.59-15.28c0-6.62,2.3-9.93,6.89-9.93C274.52,141.01,276.3,140.5,279.88,140.34z M271.46,153.33h0.76
			c4.23-2,7.29-4.55,9.19-7.65v-1.53h-0.77c-6.12,0-9.18,1.78-9.18,5.34V153.33z"/>
		<path d="M302.34,139.55c4.91,5.6,7.37,10.24,7.37,13.9v4.92c-4.27,5.45-8.36,8.17-12.27,8.17c-5.03,0-8.03-3.54-9-10.63v-2.46
			C290.42,144.19,295.05,139.55,302.34,139.55z M291.71,160.82l3.27,1.63c4.09,0,7.91-2.46,11.46-7.37v-4.9l-4.9-6.54
			C294.98,145.51,291.71,151.24,291.71,160.82z"/>
		<path d="M339.26,138.24v2.14c0,1.22-2.15,2.3-6.45,3.23l-2.16,21.52l1.07,4.31l-1.07,1.07h-1.07c-2.16,0-3.23-3.23-3.23-9.69
			l1.07-16.14h-7.52v-3.22L339.26,138.24z"/>
		<path d="M343.3,138.94l1.41,2.11v1.41c0,5.47,0.47,9.22,1.41,11.25l11.27-3.52v-2.11l0.7-4.22l-0.7-0.7v-0.7l2.11-2.81l1.41,1.41
			v7.03l3.52,3.52l-2.81,2.11l0.7,11.27l-0.7,0.7h-0.7c-1.56,0-2.5-3.76-2.81-11.27v-0.7c-2.13,0-6.12,1.18-11.97,3.53v0.7
			l1.41,7.73v1.41h-1.41c-2.51,0-3.91-9.15-4.22-27.44l0.7-0.7H343.3z"/>
		<path d="M371.09,137.99c1.39,0.69,3.53,5.34,6.4,13.96l0.58,0.58h0.58l-0.58,2.92l2.34,9.32v1.16l-1.16,1.16
			c-1.32,0-2.68-3.3-4.08-9.9c-5.04,0.73-7.56,2.67-7.56,5.82c0,2.72-0.39,4.08-1.18,4.08c-0.88,0-1.46-2.52-1.74-7.56
			c1.7-9.84,3.64-17.02,5.82-21.53H371.09z M370.51,144.39c-1.16,4.51-1.74,8.39-1.74,11.64l4.66-1.74v-2.34
			C372.26,146.91,371.29,144.39,370.51,144.39z"/>
		<path d="M397.21,138.24v2.14c0,1.22-2.15,2.3-6.45,3.23l-2.16,21.52l1.07,4.31l-1.07,1.07h-1.07c-2.16,0-3.23-3.23-3.23-9.69
			l1.07-16.14h-7.52v-3.22L397.21,138.24z"/>
	</g>
	<g>
		<path d="M47.9,189.71c6.88,0,10.32,1.61,10.32,4.82c0,2.55-2.98,6.45-8.95,11.67v0.7c9.62,1.59,14.43,3.88,14.43,6.86
			c0,1.05-1.14,1.75-3.43,2.07c0-1.04-5.72-3.11-17.17-6.19l1.37,7.56l-0.69,0.69H43.1c-1.51,0-2.66-2.75-3.45-8.24
			c-0.6-5.04-1.05-10.76-1.37-17.17L47.9,189.71z M42.42,197.96v2.07v0.69v3.43l0.69,0.69c2.66-1.07,6.32-4.27,10.99-9.62v-1.37
			h-1.37C45.85,193.84,42.42,195.21,42.42,197.96z"/>
		<path d="M80.98,189.04l1.86,1.86v1.86c-9.75,2.72-14.54,4.32-14.36,4.8l-0.53,3.57v0.93l11.16-3.73l1.86,1.86v1.86l-13.03,3.73
			v6.77l11.16-3.04l1.86,1.85v1.86l-15.42,4.9l-1.34-1.07l-0.69-2.5l0.69-1.34l-0.3-7.44c0.54-10.27,2.01-14.31,4.41-12.13l3.32-0.9
			L80.98,189.04z"/>
		<path d="M91.79,189.71c2.03,0,3.55,4.57,4.57,13.71l0.76,2.29c1.52,0,2.29,0.5,2.29,1.51l-0.77,0.77v0.76
			c1.52,2.6,2.29,5.14,2.29,7.61v1.53h-1.51c-1.25,0-2.53-2.79-3.81-8.38h-6.86c-1.52,0.33-2.29,2.36-2.29,6.1l-2.29,1.53
			l-0.76-0.77v-0.76l6.86-22.85C90.27,190.72,90.77,189.71,91.79,189.71z M91.02,198.85l-2.29,7.61h3.81l0.76-0.76h0.77
			C92.94,201.14,91.92,198.85,91.02,198.85z"/>
		<path d="M117.46,192.78c6.35-1.97,10.05-2.47,11.11-1.49s1.73,2.18,2.04,3.61v1.04l-2.07,2.07c-1.21-2.61-3.98-3.3-8.31-2.07
			c-8.31,4.01-12.46,8.16-12.46,12.46c0,2.78,1.39,4.51,4.17,5.2c12.04-1.82,18.61-3.55,19.72-5.2h1.04l2.09,2.07
			c0,3.4-7.27,5.82-21.81,7.28c-7.12-0.57-10.28-4.29-9.47-11.16C106.45,199.36,111.11,194.75,117.46,192.78z"/>
		<path d="M151.65,189.83l1.95,1.95v4.57l-0.65,2.62l0.65,0.65v0.65l-0.65,6.52l1.3,10.44l-0.65,0.65h-0.65
			c-1.37-0.94-2.68-5.29-3.92-13.04h-0.65c-4.82,1.69-7.42,2.99-7.82,3.9v2.62l1.3,1.95c0,2.26-0.65,3.57-1.95,3.92
			c-1.49,0-2.58-4.35-3.27-13.04l0.65-12.41l1.95-1.3c0.88,0,1.32,0.65,1.32,1.95l-0.65,6.54l0.65,0.65v0.65l-0.65,2.6l0.65,0.65
			c6.08-1.44,9.12-2.53,9.12-3.25C149.68,193.31,150.34,189.83,151.65,189.83z"/>
		<path d="M174.41,189.04l1.86,1.86v1.86c-9.75,2.72-14.54,4.32-14.36,4.8l-0.53,3.57v0.93l11.16-3.73l1.86,1.86v1.86l-13.03,3.73
			v6.77l11.16-3.04l1.86,1.85v1.86l-15.42,4.9l-1.34-1.07l-0.69-2.5l0.69-1.34l-0.3-7.44c0.54-10.27,2.01-14.31,4.41-12.13l3.32-0.9
			L174.41,189.04z"/>
		<path d="M186.45,191.12h2.81c1.22,0,1.8,0.91,1.76,2.72c-7.91,0.77-11.73,3.6-11.46,8.49c9.97,0,14.96,1.45,14.96,4.34v1.83
			c-1.42,6.02-4.98,9.04-10.69,9.04l-2.44-3.25c5.86,0.11,9.22-2.22,10.09-6.98l-6.87-0.98h-5.48l-2.6-2.6v-5.36
			C179.95,193.53,183.27,191.12,186.45,191.12z"/>
		<path d="M226.21,189.52l2.27,2.27c-2.44,1.82-5.84,2.95-10.21,3.41v6.8l1.12,12.48l-1.12,3.41H216l-2.27-20.43v-1.14l-7.95,1.14
			l-1.14-1.14v-1.12C204.65,192.63,211.84,190.74,226.21,189.52z"/>
		<path d="M245.55,189.83l1.95,1.95v4.57l-0.65,2.62l0.65,0.65v0.65l-0.65,6.52l1.3,10.44l-0.65,0.65h-0.65
			c-1.37-0.94-2.68-5.29-3.92-13.04h-0.65c-4.82,1.69-7.42,2.99-7.82,3.9v2.62l1.3,1.95c0,2.26-0.65,3.57-1.95,3.92
			c-1.49,0-2.58-4.35-3.27-13.04l0.65-12.41l1.95-1.3c0.88,0,1.32,0.65,1.32,1.95l-0.65,6.54l0.65,0.65v0.65l-0.65,2.6l0.65,0.65
			c6.08-1.44,9.12-2.53,9.12-3.25C243.58,193.31,244.24,189.83,245.55,189.83z"/>
		<path d="M268.31,189.04l1.86,1.86v1.86c-9.75,2.72-14.54,4.32-14.36,4.8l-0.53,3.57v0.93l11.16-3.73l1.86,1.86v1.86l-13.03,3.73
			v6.77l11.16-3.04l1.86,1.85v1.86l-15.42,4.9l-1.34-1.07l-0.69-2.5l0.69-1.34l-0.3-7.44c0.54-10.27,2.01-14.31,4.41-12.13l3.32-0.9
			L268.31,189.04z"/>
		<path d="M286.53,190.62l6.36-0.91c5.45,0.61,8.17,1.82,8.17,3.64v4.54c-4.51,7.28-9.36,10.92-14.54,10.92l0.91,9.09h-2.74
			l-1.81-12.73v-13.64l0.91-0.9C284.94,189.75,285.85,189.75,286.53,190.62z M286.53,197.88c-0.53,1.63-0.53,3.75,0,6.36h0.91
			c5.5-3.32,8.53-5.74,9.09-7.26v-0.91l-0.91-0.91v-0.9C289.55,195.61,286.53,196.82,286.53,197.88z"/>
		<path d="M313.4,189.71c6.88,0,10.32,1.61,10.32,4.82c0,2.55-2.98,6.45-8.95,11.67v0.7c9.62,1.59,14.43,3.88,14.43,6.86
			c0,1.05-1.14,1.75-3.43,2.07c0-1.04-5.72-3.11-17.17-6.19l1.37,7.56l-0.69,0.69h-0.69c-1.51,0-2.66-2.75-3.45-8.24
			c-0.6-5.04-1.05-10.76-1.37-17.17L313.4,189.71z M307.92,197.96v2.07v0.69v3.43l0.69,0.69c2.66-1.07,6.32-4.27,10.99-9.62v-1.37
			h-1.37C311.35,193.84,307.92,195.21,307.92,197.96z"/>
		<path d="M333.78,192.29l1.88,2.2l-0.79,10.88l0.56,11l-1.46,1.27c-2.13-2.05-3.07-4.86-2.81-8.42l1.14-15.66L333.78,192.29z"/>
		<path d="M358.67,192.08l0.53,0.53v2.64c-0.35,1.05-2.98,3.86-7.89,8.42c0,1.16-1.76,3.09-5.27,5.8V210h1.05
			c2.7-0.09,6.38-1.68,11.06-4.75l1.05,1.58v1.05c-1.18,2.06-3.46,3.81-6.84,5.26c0,0.56-3.33,1.62-10,3.16l-1.05-1.58v-0.53
			c0-3.68,2.59-8.11,7.77-13.29l1.18-2.5h-2.64l-8.95,2.62c-0.8,0-1.32-0.87-1.58-2.62C342.04,194.19,349.23,192.08,358.67,192.08z"
			/>
		<path d="M379.29,189.04l1.86,1.86v1.86c-9.75,2.72-14.54,4.32-14.36,4.8l-0.53,3.57v0.93l11.16-3.73l1.86,1.86v1.86l-13.03,3.73
			v6.77l11.16-3.04l1.86,1.85v1.86l-15.42,4.9l-1.34-1.07l-0.69-2.5l0.69-1.34l-0.3-7.44c0.54-10.27,2.01-14.31,4.41-12.13l3.32-0.9
			L379.29,189.04z"/>
	</g>
	<g>
		<path class="st1" d="M136.94,37.84l1.34,2c-3.05,1.69-8.41,3.03-16.1,4.03v4.71l0.67,0.67v0.67l12.74-2.69l0.69,0.67v0.69
			c-0.76,1.93-5.24,3.72-13.43,5.36l1.35,5.36v5.38l-1.35,1.34c-0.89,0-2.01-4.03-3.36-12.08l-1.34-1.34v-1.35l1.34-2l-0.67-2.69
			l0.67-0.67v-0.67l-0.67-4.03L136.94,37.84z"/>
		<path class="st1" d="M151.99,37.84h0.54l1.11,1.11v0.54c0,1.02-1.84,1.94-5.52,2.76l-0.56,2.78l0.56,3.87v8.84l1.09,1.09
			c0-0.63,2.03-1.73,6.08-3.3l1.11,1.65v0.56c-3.55,3.42-8.34,6.18-14.36,8.28h-0.56l-1.65-1.65V63.8c0.79-1.17,2.62-2.27,5.52-3.3
			l-0.54-11.06v-0.54l0.54-5.54h-0.54l-6.63,1.67l-1.11-1.67v-0.54C137.07,40.92,142.04,39.27,151.99,37.84z"/>
		<path class="st1" d="M172.33,37.7h0.47c0.62,0,0.93,0.46,0.93,1.39l-0.93,13.46l0.93,8.35v0.47l-0.93,0.93l-10.69-14.4h-0.93v5.12
			c0,3.79,0.47,7.19,1.41,10.21v1.85l-0.93,0.93c-2.17-1.05-3.25-5.08-3.25-12.08V42.81c0-1.66,0.62-2.75,1.86-3.25
			c0.77,2.7,4.02,7.49,9.74,14.38v-0.91C170.44,42.8,171.21,37.7,172.33,37.7z"/>
		<path class="st1" d="M187.29,37.84c8.05,0.57,12.08,3.04,12.08,7.38c-1.99,5.91-7.58,12.84-16.77,20.79h-1.35
			c-2.68-3.39-4.03-10.77-4.03-22.15l-0.67-2C176.55,39.18,180.13,37.84,187.29,37.84z M180.57,44.55
			c0.59,10.28,1.71,15.42,3.36,15.42c7.61-9.07,11.41-14.44,11.41-16.1l-8.05-2.67h-4.03C182.34,41.39,181.44,42.51,180.57,44.55z"
			/>
		<path class="st1" d="M215.83,37.84h0.54c0.71,0,1.07,0.54,1.07,1.62c-2.17,3.62-4.15,7.96-5.96,13.01h1.09
			c1.79,0,6.49-4.69,14.08-14.08l1.09,1.07v2.18c-4.7,5.47-7.05,11.79-7.05,18.97c0,3.61-0.54,5.41-1.62,5.41L218,63.31l0.54-3.8
			V54.1H218c-3.5,2.53-6.03,3.8-7.58,3.8l-1.09-3.25C209.33,48.08,211.5,42.48,215.83,37.84z"/>
		<path class="st1" d="M239.71,38.49c4.91,5.6,7.37,10.24,7.37,13.9v4.92c-4.27,5.45-8.36,8.17-12.27,8.17
			c-5.03,0-8.03-3.54-9-10.63v-2.46C227.78,43.12,232.42,38.49,239.71,38.49z M229.07,59.76l3.27,1.63c4.09,0,7.91-2.46,11.46-7.37
			v-4.9l-4.9-6.54C232.35,44.45,229.07,50.17,229.07,59.76z"/>
		<path class="st1" d="M263.58,37.84l1.16,1.76v13.5l0.65,6.73c-0.19,1-0.79,1.85-1.81,2.57l-1.12,0.25l-0.05-1.92
			c-5.81,3.53-9.53,5.29-11.16,5.29h-0.58l-1.18-1.18v-5.87c1.31-12.91,2.68-19.37,4.11-19.37l1.76,1.76l-2.94,17.03l0.58,3.52
			c1.54,0,4.28-1.56,8.23-4.69v-9.39C261.22,41.16,262.01,37.84,263.58,37.84z"/>
		<path class="st1" d="M280.42,39.28h1.53l3.83,3.81L285,43.86l0.77,0.76v0.76c0,1.93-3.06,4.99-9.19,9.18v0.76
			c8.17,3.22,12.25,6.03,12.25,8.42l-2.3,0.76c-5.93-3.56-10.52-5.34-13.78-5.34l1.53,6.12l-0.76,0.76h-0.77
			c-2.12,0-3.65-5.09-4.59-15.28c0-6.62,2.3-9.93,6.89-9.93C275.05,39.94,276.84,39.43,280.42,39.28z M272,52.27h0.76
			c4.23-2,7.29-4.55,9.19-7.65v-1.53h-0.77c-6.12,0-9.18,1.78-9.18,5.34V52.27z"/>
	</g>
	<g>
		<path class="st1" d="M92.78,85.99c0.49,0,1.2,0.86,2.13,2.57l4.27-1.71l2.57,2.55c-0.08,0.69-2.36,1.83-6.84,3.41v1.28h2.14
			c4.89,0,7.45,0.86,7.68,2.57c0,2.71-2.99,5.13-8.96,7.26v4.25l-0.86,0.86h-1.27c-0.86,0-1.28-0.86-1.28-2.57l-2.99,0.86
			c-1.14-0.43-1.71-0.86-1.71-1.28v-1.28l1.28-1.28l1.71,0.44l0.84-1.28v-2.99h-2.99c-1.55,0-2.68-0.57-3.41-1.71v-1.28
			c0.2-0.83,2.47-3.11,6.82-6.84L91.5,89.4v-0.84C91.67,86.85,92.1,85.99,92.78,85.99z M94.91,98.79v1.71h0.44
			c1.92-0.77,3.2-1.62,3.83-2.55h-0.42L94.91,98.79z"/>
		<path class="st1" d="M117.6,87.4h2.81c1.22,0,1.8,0.91,1.76,2.72c-7.91,0.77-11.73,3.6-11.46,8.49c9.97,0,14.96,1.45,14.96,4.34
			v1.83c-1.42,6.02-4.98,9.04-10.69,9.04l-2.44-3.25c5.86,0.11,9.22-2.22,10.09-6.98l-6.87-0.98h-5.48l-2.6-2.6v-5.36
			C111.1,89.81,114.41,87.4,117.6,87.4z"/>
		<path class="st1" d="M143.46,85.99l1.88,1.88v2.81l0.93,14.1c0.43,5.88-0.5,8.07-2.81,6.57c0.09-3.2-0.18-4.45-0.83-3.76
			c-5.52,4.38-9.32,6.57-11.39,6.57c-1.88-0.39-2.81-2.89-2.81-7.51V90.69l2.81-2.81l0.95,0.93l-0.95,6.57v8.46l0.95,4.69
			l10.34-5.62l-0.95-9.4v-5.62L143.46,85.99z"/>
		<path class="st1" d="M152.42,86.91l6.36-0.91c5.45,0.61,8.17,1.82,8.17,3.64v4.54c-4.51,7.28-9.36,10.92-14.54,10.92l0.91,9.09
			h-2.74l-1.81-12.73V87.8l0.91-0.9C150.83,86.03,151.74,86.03,152.42,86.91z M152.42,94.17c-0.53,1.63-0.53,3.75,0,6.36h0.91
			c5.5-3.32,8.53-5.74,9.09-7.26v-0.91l-0.91-0.91v-0.9C155.45,91.89,152.42,93.1,152.42,94.17z"/>
		<path class="st1" d="M184.38,85.33l1.86,1.86v1.86c-9.75,2.72-14.54,4.32-14.36,4.8l-0.53,3.57v0.93l11.16-3.73l1.86,1.86v1.86
			l-13.03,3.73v6.77l11.16-3.04l1.86,1.85v1.86l-15.42,4.9l-1.34-1.07l-0.69-2.5l0.69-1.34l-0.3-7.44
			c0.54-10.27,2.01-14.31,4.41-12.13l3.32-0.9L184.38,85.33z"/>
		<path class="st1" d="M198.56,85.99c6.88,0,10.32,1.61,10.32,4.82c0,2.55-2.98,6.45-8.95,11.67v0.7
			c9.62,1.59,14.43,3.88,14.43,6.86c0,1.05-1.14,1.75-3.43,2.07c0-1.04-5.72-3.11-17.17-6.19l1.37,7.56l-0.69,0.69h-0.69
			c-1.51,0-2.66-2.75-3.45-8.24c-0.6-5.04-1.05-10.76-1.37-17.17L198.56,85.99z M193.08,94.24v2.07V97v3.43l0.69,0.69
			c2.66-1.07,6.32-4.27,10.99-9.62v-1.37h-1.37C196.51,90.12,193.08,91.5,193.08,94.24z"/>
		<path class="st1" d="M217.87,86.91l6.36-0.91c5.45,0.61,8.17,1.82,8.17,3.64v4.54c-4.51,7.28-9.36,10.92-14.54,10.92l0.91,9.09
			h-2.74l-1.81-12.73V87.8l0.91-0.9C216.28,86.03,217.19,86.03,217.87,86.91z M217.87,94.17c-0.53,1.63-0.53,3.75,0,6.36h0.91
			c5.5-3.32,8.53-5.74,9.09-7.26v-0.91l-0.91-0.91v-0.9C220.89,91.89,217.87,93.1,217.87,94.17z"/>
		<path class="st1" d="M245.38,87.7h3.45c3.46,2.66,5.19,6.97,5.19,12.94c-3.63,8.06-9.96,12.09-18.98,12.09
			c-2.88-2.98-4.32-5.57-4.32-7.77v-0.86C234.81,93.17,239.7,87.7,245.38,87.7z M233.28,106.68l2.6,1.72h0.86
			c5.51,0,10.11-2.59,13.82-7.77v-3.45c0-4.03-1.73-6.05-5.19-6.05C239.15,94.16,235.12,99.34,233.28,106.68z"/>
		<path class="st1" d="M279.27,85.99l0.97,0.98h0.97l-4.85,22.34h-0.97l-8.75-11.67c-0.64,11.02-1.94,16.52-3.88,16.52
			c-2.59-2.43-5.5-10.85-8.74-25.26l0.97-0.97h0.98c1.93,0,3.55,5.18,4.85,15.54c1.29,0,2.58-4.86,3.88-14.57h1.93l5.84,10.69h1.95
			C275.7,90.53,277.32,85.99,279.27,85.99z"/>
		<path class="st1" d="M296.98,85.33l1.86,1.86v1.86c-9.75,2.72-14.54,4.32-14.36,4.8l-0.53,3.57v0.93l11.16-3.73l1.86,1.86v1.86
			l-13.03,3.73v6.77l11.16-3.04l1.86,1.85v1.86l-15.42,4.9l-1.34-1.07l-0.69-2.5l0.69-1.34l-0.3-7.44
			c0.54-10.27,2.01-14.31,4.41-12.13l3.32-0.9L296.98,85.33z"/>
		<path class="st1" d="M311.17,85.99c6.88,0,10.32,1.61,10.32,4.82c0,2.55-2.98,6.45-8.95,11.67v0.7
			c9.62,1.59,14.43,3.88,14.43,6.86c0,1.05-1.14,1.75-3.43,2.07c0-1.04-5.72-3.11-17.17-6.19l1.37,7.56l-0.69,0.69h-0.69
			c-1.51,0-2.66-2.75-3.45-8.24c-0.6-5.04-1.05-10.76-1.37-17.17L311.17,85.99z M305.69,94.24v2.07V97v3.43l0.69,0.69
			c2.66-1.07,6.32-4.27,10.99-9.62v-1.37h-1.37C309.12,90.12,305.69,91.5,305.69,94.24z"/>
	</g>
	<g>
		<path class="st1" d="M34.19,135.07c1.39,0.69,3.53,5.34,6.4,13.96l0.58,0.58h0.58l-0.58,2.92l2.34,9.32V163l-1.16,1.16
			c-1.32,0-2.68-3.3-4.08-9.9c-5.04,0.73-7.56,2.67-7.56,5.82c0,2.72-0.39,4.08-1.18,4.08c-0.88,0-1.46-2.52-1.74-7.56
			c1.7-9.84,3.64-17.02,5.82-21.53H34.19z M33.61,141.47c-1.16,4.51-1.74,8.39-1.74,11.64l4.66-1.74v-2.34
			C35.35,143.99,34.38,141.47,33.61,141.47z"/>
		<path class="st1" d="M57.51,135.85h0.47c0.62,0,0.93,0.46,0.93,1.39l-0.93,13.46l0.93,8.35v0.47l-0.93,0.93l-10.69-14.4h-0.93
			v5.12c0,3.79,0.47,7.19,1.41,10.21v1.85l-0.93,0.93c-2.17-1.05-3.25-5.08-3.25-12.08v-11.13c0-1.66,0.62-2.75,1.86-3.25
			c0.77,2.7,4.02,7.49,9.74,14.38v-0.91C55.62,140.95,56.4,135.85,57.51,135.85z"/>
		<path class="st1" d="M72.47,135.99c8.05,0.57,12.08,3.04,12.08,7.38c-1.99,5.91-7.58,12.84-16.77,20.79h-1.35
			c-2.68-3.39-4.03-10.77-4.03-22.15l-0.67-2C61.73,137.33,65.31,135.99,72.47,135.99z M65.76,142.7
			c0.59,10.28,1.71,15.42,3.36,15.42c7.61-9.07,11.41-14.44,11.41-16.1l-8.05-2.67h-4.03C67.52,139.54,66.62,140.66,65.76,142.7z"/>
		<path class="st1" d="M107.4,135.99c2.45,1.04,3.79,2.12,4.03,3.22v1.62l-0.81,4.03c3.22,1.25,4.83,2.33,4.83,3.22v5.64
			c0,4.11-4.03,7.6-12.08,10.46h-4.83c-2.05,0-3.39-5.37-4.03-16.1c0.84-7.51,1.65-11.27,2.41-11.27L107.4,135.99z M97.73,147.25
			c6.98-3.07,10.48-5.48,10.48-7.24v-0.81C101.22,139.2,97.73,141.89,97.73,147.25z M97.73,152.9v4.03l1.62,3.22
			c9.66-2.68,14.48-6.17,14.48-10.46c-2.14,0-3.22-0.54-3.22-1.62C105.94,148.06,101.64,149.67,97.73,152.9z"/>
		<path class="st1" d="M136.03,136.81l0.6,0.6v0.6c0,1.15-4.96,2.93-14.87,5.34l-0.6,4.17v0.6c5.27-1.59,9.63-2.39,13.08-2.39
			l0.6,0.6v1.2c0,1.49-4.36,2.88-13.08,4.17v6.54l0.6,1.18l13.08-4.75l1.2,1.78c-5.84,5.16-11.19,7.73-16.07,7.73
			c-1.18-4.36-1.97-9.71-2.37-16.05l1.2-5.96l-0.6-1.78C121.81,138,127.56,136.81,136.03,136.81z"/>
		<path class="st1" d="M166.25,135.32v2.14c0,1.22-2.15,2.3-6.45,3.23l-2.16,21.52l1.07,4.31l-1.07,1.07h-1.07
			c-2.16,0-3.23-3.23-3.23-9.69l1.07-16.14h-7.52v-3.22L166.25,135.32z"/>
		<path class="st1" d="M170.29,136.02l1.41,2.11v1.41c0,5.47,0.47,9.22,1.41,11.25l11.27-3.52v-2.11l0.7-4.22l-0.7-0.7v-0.7
			l2.11-2.81l1.41,1.41v7.03l3.52,3.52l-2.81,2.11l0.7,11.27l-0.7,0.7h-0.7c-1.56,0-2.5-3.76-2.81-11.27v-0.7
			c-2.13,0-6.12,1.18-11.97,3.53v0.7l1.41,7.73v1.41h-1.41c-2.51,0-3.91-9.15-4.22-27.44l0.7-0.7H170.29z"/>
		<path class="st1" d="M211.48,136.81l0.6,0.6v0.6c0,1.15-4.96,2.93-14.87,5.34l-0.6,4.17v0.6c5.27-1.59,9.63-2.39,13.08-2.39
			l0.6,0.6v1.2c0,1.49-4.36,2.88-13.08,4.17v6.54l0.6,1.18l13.08-4.75l1.2,1.78c-5.84,5.16-11.19,7.73-16.07,7.73
			c-1.18-4.36-1.97-9.71-2.37-16.05l1.2-5.96l-0.6-1.78C197.26,138,203.01,136.81,211.48,136.81z"/>
		<path class="st1" d="M223.61,136.02l1.41,2.11v1.41c0,5.47,0.47,9.22,1.41,11.25l11.27-3.52v-2.11l0.7-4.22l-0.7-0.7v-0.7
			l2.11-2.81l1.41,1.41v7.03l3.52,3.52l-2.81,2.11l0.7,11.27l-0.7,0.7h-0.7c-1.56,0-2.5-3.76-2.81-11.27v-0.7
			c-2.13,0-6.12,1.18-11.97,3.53v0.7l1.41,7.73v1.41h-1.41c-2.51,0-3.91-9.15-4.22-27.44l0.7-0.7H223.61z"/>
		<path class="st1" d="M264.79,136.81l0.6,0.6v0.6c0,1.15-4.96,2.93-14.87,5.34l-0.6,4.17v0.6c5.27-1.59,9.63-2.39,13.08-2.39
			l0.6,0.6v1.2c0,1.49-4.36,2.88-13.08,4.17v6.54l0.6,1.18l13.08-4.75l1.2,1.78c-5.84,5.16-11.19,7.73-16.07,7.73
			c-1.18-4.36-1.97-9.71-2.37-16.05l1.2-5.96l-0.6-1.78C250.57,138,256.32,136.81,264.79,136.81z"/>
		<path class="st1" d="M277.77,137.43h1.53l3.83,3.81l-0.77,0.77l0.77,0.76v0.76c0,1.93-3.06,4.99-9.19,9.18v0.76
			c8.17,3.22,12.25,6.03,12.25,8.42l-2.3,0.76c-5.93-3.56-10.52-5.34-13.78-5.34l1.53,6.12l-0.76,0.76h-0.77
			c-2.12,0-3.65-5.09-4.59-15.28c0-6.62,2.3-9.93,6.89-9.93C272.4,138.09,274.19,137.58,277.77,137.43z M269.35,150.42h0.76
			c4.23-2,7.29-4.55,9.19-7.65v-1.53h-0.77c-6.12,0-9.18,1.78-9.18,5.34V150.42z"/>
		<path class="st1" d="M300.23,136.64c4.91,5.6,7.37,10.24,7.37,13.9v4.92c-4.27,5.45-8.36,8.17-12.27,8.17
			c-5.03,0-8.03-3.54-9-10.63v-2.46C288.31,141.27,292.94,136.64,300.23,136.64z M289.6,157.91l3.27,1.63
			c4.09,0,7.91-2.46,11.46-7.37v-4.9l-4.9-6.54C292.87,142.6,289.6,148.32,289.6,157.91z"/>
		<path class="st1" d="M337.14,135.32v2.14c0,1.22-2.15,2.3-6.45,3.23l-2.16,21.52l1.07,4.31l-1.07,1.07h-1.07
			c-2.16,0-3.23-3.23-3.23-9.69l1.07-16.14h-7.52v-3.22L337.14,135.32z"/>
		<path class="st1" d="M341.19,136.02l1.41,2.11v1.41c0,5.47,0.47,9.22,1.41,11.25l11.27-3.52v-2.11l0.7-4.22l-0.7-0.7v-0.7
			l2.11-2.81l1.41,1.41v7.03l3.52,3.52l-2.81,2.11l0.7,11.27l-0.7,0.7h-0.7c-1.56,0-2.5-3.76-2.81-11.27v-0.7
			c-2.13,0-6.12,1.18-11.97,3.53v0.7l1.41,7.73v1.41H344c-2.51,0-3.91-9.15-4.22-27.44l0.7-0.7H341.19z"/>
		<path class="st1" d="M368.98,135.07c1.39,0.69,3.53,5.34,6.4,13.96l0.58,0.58h0.58l-0.58,2.92l2.34,9.32V163l-1.16,1.16
			c-1.32,0-2.68-3.3-4.08-9.9c-5.04,0.73-7.56,2.67-7.56,5.82c0,2.72-0.39,4.08-1.18,4.08c-0.88,0-1.46-2.52-1.74-7.56
			c1.7-9.84,3.64-17.02,5.82-21.53H368.98z M368.4,141.47c-1.16,4.51-1.74,8.39-1.74,11.64l4.66-1.74v-2.34
			C370.14,143.99,369.17,141.47,368.4,141.47z"/>
		<path class="st1" d="M395.1,135.32v2.14c0,1.22-2.15,2.3-6.45,3.23l-2.16,21.52l1.07,4.31l-1.07,1.07h-1.07
			c-2.16,0-3.23-3.23-3.23-9.69l1.07-16.14h-7.52v-3.22L395.1,135.32z"/>
	</g>
	<g>
		<path class="st1" d="M45.79,186.79c6.88,0,10.32,1.61,10.32,4.82c0,2.55-2.98,6.45-8.95,11.67v0.7
			c9.62,1.59,14.43,3.88,14.43,6.86c0,1.05-1.14,1.75-3.43,2.07c0-1.04-5.72-3.11-17.17-6.19l1.37,7.56l-0.69,0.69h-0.69
			c-1.51,0-2.66-2.75-3.45-8.24c-0.6-5.04-1.05-10.76-1.37-17.17L45.79,186.79z M40.3,195.04v2.07v0.69v3.43l0.69,0.69
			c2.66-1.07,6.32-4.27,10.99-9.62v-1.37H50.6C43.74,190.92,40.3,192.3,40.3,195.04z"/>
		<path class="st1" d="M78.87,186.13l1.86,1.86v1.86c-9.75,2.72-14.54,4.32-14.36,4.8l-0.53,3.57v0.93l11.16-3.73l1.86,1.86v1.86
			l-13.03,3.73v6.77l11.16-3.04l1.86,1.85v1.86l-15.42,4.9l-1.34-1.07l-0.69-2.5l0.69-1.34l-0.3-7.44
			c0.54-10.27,2.01-14.31,4.41-12.13l3.32-0.9L78.87,186.13z"/>
		<path class="st1" d="M89.68,186.79c2.03,0,3.55,4.57,4.57,13.71l0.76,2.29c1.52,0,2.29,0.5,2.29,1.51l-0.77,0.77v0.76
			c1.52,2.6,2.29,5.14,2.29,7.61v1.53h-1.51c-1.25,0-2.53-2.79-3.81-8.38h-6.86c-1.52,0.33-2.29,2.36-2.29,6.1l-2.29,1.53
			l-0.76-0.77v-0.76l6.86-22.85C88.15,187.81,88.66,186.79,89.68,186.79z M88.91,195.93l-2.29,7.61h3.81l0.76-0.76h0.77
			C90.83,198.22,89.81,195.93,88.91,195.93z"/>
		<path class="st1" d="M115.35,189.86c6.35-1.97,10.05-2.47,11.11-1.49s1.73,2.18,2.04,3.61v1.04l-2.07,2.07
			c-1.21-2.61-3.98-3.3-8.31-2.07c-8.31,4.01-12.46,8.16-12.46,12.46c0,2.78,1.39,4.51,4.17,5.2c12.04-1.82,18.61-3.55,19.72-5.2
			h1.04l2.09,2.07c0,3.4-7.27,5.82-21.81,7.28c-7.12-0.57-10.28-4.29-9.47-11.16C104.34,196.44,108.99,191.84,115.35,189.86z"/>
		<path class="st1" d="M149.53,186.92l1.95,1.95v4.57l-0.65,2.62l0.65,0.65v0.65l-0.65,6.52l1.3,10.44l-0.65,0.65h-0.65
			c-1.37-0.94-2.68-5.29-3.92-13.04h-0.65c-4.82,1.69-7.42,2.99-7.82,3.9v2.62l1.3,1.95c0,2.26-0.65,3.57-1.95,3.92
			c-1.49,0-2.58-4.35-3.27-13.04l0.65-12.41l1.95-1.3c0.88,0,1.32,0.65,1.32,1.95l-0.65,6.54l0.65,0.65v0.65l-0.65,2.6l0.65,0.65
			c6.08-1.44,9.12-2.53,9.12-3.25C147.57,190.4,148.22,186.92,149.53,186.92z"/>
		<path class="st1" d="M172.3,186.13l1.86,1.86v1.86c-9.75,2.72-14.54,4.32-14.36,4.8l-0.53,3.57v0.93l11.16-3.73l1.86,1.86v1.86
			l-13.03,3.73v6.77l11.16-3.04l1.86,1.85v1.86l-15.42,4.9l-1.34-1.07l-0.69-2.5l0.69-1.34l-0.3-7.44
			c0.54-10.27,2.01-14.31,4.41-12.13l3.32-0.9L172.3,186.13z"/>
		<path class="st1" d="M184.34,188.2h2.81c1.22,0,1.8,0.91,1.76,2.72c-7.91,0.77-11.73,3.6-11.46,8.49c9.97,0,14.96,1.45,14.96,4.34
			v1.83c-1.42,6.02-4.98,9.04-10.69,9.04l-2.44-3.25c5.86,0.11,9.22-2.22,10.09-6.98l-6.87-0.98h-5.48l-2.6-2.6v-5.36
			C177.84,190.61,181.15,188.2,184.34,188.2z"/>
		<path class="st1" d="M224.1,186.6l2.27,2.27c-2.44,1.82-5.84,2.95-10.21,3.41v6.8l1.12,12.48l-1.12,3.41h-2.27l-2.27-20.43v-1.14
			l-7.95,1.14l-1.14-1.14v-1.12C202.53,189.71,209.72,187.82,224.1,186.6z"/>
		<path class="st1" d="M243.44,186.92l1.95,1.95v4.57l-0.65,2.62l0.65,0.65v0.65l-0.65,6.52l1.3,10.44l-0.65,0.65h-0.65
			c-1.37-0.94-2.68-5.29-3.92-13.04h-0.65c-4.82,1.69-7.42,2.99-7.82,3.9v2.62l1.3,1.95c0,2.26-0.65,3.57-1.95,3.92
			c-1.49,0-2.58-4.35-3.27-13.04l0.65-12.41l1.95-1.3c0.88,0,1.32,0.65,1.32,1.95l-0.65,6.54l0.65,0.65v0.65l-0.65,2.6l0.65,0.65
			c6.08-1.44,9.12-2.53,9.12-3.25C241.47,190.4,242.12,186.92,243.44,186.92z"/>
		<path class="st1" d="M266.2,186.13l1.86,1.86v1.86c-9.75,2.72-14.54,4.32-14.36,4.8l-0.53,3.57v0.93l11.16-3.73l1.86,1.86v1.86
			l-13.03,3.73v6.77l11.16-3.04l1.86,1.85v1.86l-15.42,4.9l-1.34-1.07l-0.69-2.5l0.69-1.34l-0.3-7.44
			c0.54-10.27,2.01-14.31,4.41-12.13l3.32-0.9L266.2,186.13z"/>
		<path class="st1" d="M284.41,187.71l6.36-0.91c5.45,0.61,8.17,1.82,8.17,3.64v4.54c-4.51,7.28-9.36,10.92-14.54,10.92l0.91,9.09
			h-2.74l-1.81-12.73V188.6l0.91-0.9C282.82,186.83,283.73,186.83,284.41,187.71z M284.41,194.97c-0.53,1.63-0.53,3.75,0,6.36h0.91
			c5.5-3.32,8.53-5.74,9.09-7.26v-0.91l-0.91-0.91v-0.9C287.44,192.69,284.41,193.9,284.41,194.97z"/>
		<path class="st1" d="M311.29,186.79c6.88,0,10.32,1.61,10.32,4.82c0,2.55-2.98,6.45-8.95,11.67v0.7
			c9.62,1.59,14.43,3.88,14.43,6.86c0,1.05-1.14,1.75-3.43,2.07c0-1.04-5.72-3.11-17.17-6.19l1.37,7.56l-0.69,0.69h-0.69
			c-1.51,0-2.66-2.75-3.45-8.24c-0.6-5.04-1.05-10.76-1.37-17.17L311.29,186.79z M305.8,195.04v2.07v0.69v3.43l0.69,0.69
			c2.66-1.07,6.32-4.27,10.99-9.62v-1.37h-1.37C309.24,190.92,305.8,192.3,305.8,195.04z"/>
		<path class="st1" d="M331.66,189.38l1.88,2.2l-0.79,10.88l0.56,11l-1.46,1.27c-2.13-2.05-3.07-4.86-2.81-8.42l1.14-15.66
			L331.66,189.38z"/>
		<path class="st1" d="M356.55,189.17l0.53,0.53v2.64c-0.35,1.05-2.98,3.86-7.89,8.42c0,1.16-1.76,3.09-5.27,5.8v0.53h1.05
			c2.7-0.09,6.38-1.68,11.06-4.75l1.05,1.58v1.05c-1.18,2.06-3.46,3.81-6.84,5.26c0,0.56-3.33,1.62-10,3.16l-1.05-1.58v-0.53
			c0-3.68,2.59-8.11,7.77-13.29l1.18-2.5h-2.64l-8.95,2.62c-0.8,0-1.32-0.87-1.58-2.62C339.92,191.28,347.12,189.17,356.55,189.17z"
			/>
		<path class="st1" d="M377.17,186.13l1.86,1.86v1.86c-9.75,2.72-14.54,4.32-14.36,4.8l-0.53,3.57v0.93l11.16-3.73l1.86,1.86v1.86
			l-13.03,3.73v6.77l11.16-3.04l1.86,1.85v1.86l-15.42,4.9l-1.34-1.07l-0.69-2.5l0.69-1.34l-0.3-7.44
			c0.54-10.27,2.01-14.31,4.41-12.13l3.32-0.9L377.17,186.13z"/>
	</g>
</g>
<g>
	<g>
		<path class="st0" d="M494.36,230.61l7.9,6.31l-3.15,3.16l-9.46-3.16c-4.85,1.28-10.11,7.07-15.8,17.37v12.62h11.06l14.21-9.47
			l3.15,3.16c0,5.25-8.42,9.99-25.27,14.21c-5.54,0-8.7-5.26-9.46-15.77C472.8,240.08,481.75,230.61,494.36,230.61z"/>
		<path class="st0" d="M529.12,233.49h5.38c5.39,4.15,8.09,10.88,8.09,20.19c-5.67,12.58-15.55,18.87-29.63,18.87
			c-4.5-4.64-6.75-8.69-6.75-12.13v-1.34C512.63,242.02,520.27,233.49,529.12,233.49z M510.25,263.11l4.06,2.69h1.34
			c8.6,0,15.78-4.04,21.56-12.13v-5.38c0-6.29-2.7-9.44-8.09-9.44C519.41,243.56,513.12,251.65,510.25,263.11z"/>
		<path class="st0" d="M553.98,232.25h1.37c2.87,0,6.98,7.76,12.32,23.29c1.43,0,5.54-5.94,12.34-17.83l4.09-2.72h1.37
			c3.4,0,7.52,11.41,12.34,34.24v1.37l-2.74,2.74h-1.37c-2.03,0-5.23-9.13-9.6-27.4c-2.54,1.24-7.11,8.55-13.69,21.92h-2.74
			c-2.74,0-5.94-6.39-9.6-19.17h-2.72c-1.83,13.7-4.11,20.55-6.86,20.55l-2.74-2.74v-5.46
			C545.75,251.08,548.49,241.49,553.98,232.25z"/>
		<path class="st0" d="M605.08,234.86l2.94,3.43l-1.23,16.98l0.88,17.17l-2.28,1.98c-3.33-3.2-4.79-7.58-4.39-13.14l1.78-24.44
			L605.08,234.86z"/>
		<path class="st0" d="M638.41,231.02l1.23,1.26l-1.23,12.51v11.25v2.5v1.26c-0.84,4.99-2.09,7.49-3.76,7.49h-2.5
			c0-4.48-5.42-11.15-16.27-20h-1.26l3.76,26.25l-1.23,1.26h-1.26c-4.17-6.8-6.25-15.56-6.25-26.28v-9.99l2.5-2.52h2.5
			c10.02,9.18,15.03,14.6,15.03,16.27h2.5v-1.23C632.71,237.69,634.79,231.02,638.41,231.02z"/>
		<path class="st0" d="M668.45,230.63h4.55v3.02c-18.2,11.72-27.3,21.33-27.3,28.83l4.55,4.56h6.06
			c11.12-3.04,16.68-6.07,16.68-9.11h-3.02l-19.72,3.02v-1.51c0-3.64,8.6-7.18,25.79-10.62c4.04,1.52,6.06,3.03,6.06,4.55v4.56
			c-9.73,11.12-18.33,16.68-25.79,16.68h-4.55h-1.51c-7.08-2.03-10.62-6.07-10.62-12.13C639.65,249.17,649.25,238.55,668.45,230.63z
			"/>
		<path class="st0" d="M713.69,233.02h4.39c1.9,0,2.82,1.42,2.74,4.25c-12.34,1.21-18.31,5.62-17.89,13.25
			c15.56,0,23.34,2.26,23.34,6.78v2.85c-2.21,9.4-7.77,14.1-16.68,14.1l-3.81-5.08c9.14,0.17,14.39-3.46,15.75-10.89l-10.73-1.54
			h-8.56l-4.06-4.06v-8.37C703.55,236.79,708.71,233.02,713.69,233.02z"/>
		<path class="st0" d="M753.49,233.49h5.38c5.4,4.15,8.09,10.88,8.09,20.19c-5.67,12.58-15.55,18.87-29.63,18.87
			c-4.5-4.64-6.75-8.69-6.75-12.13v-1.34C737.01,242.02,744.64,233.49,753.49,233.49z M734.62,263.11l4.06,2.69h1.34
			c8.6,0,15.78-4.04,21.56-12.13v-5.38c0-6.29-2.7-9.44-8.09-9.44C743.78,243.56,737.49,251.65,734.62,263.11z"/>
		<path class="st0" d="M790.47,233.49h5.38c5.4,4.15,8.09,10.88,8.09,20.19c-5.67,12.58-15.55,18.87-29.63,18.87
			c-4.5-4.64-6.75-8.69-6.75-12.13v-1.34C773.99,242.02,781.62,233.49,790.47,233.49z M771.6,263.11l4.06,2.69H777
			c8.6,0,15.78-4.04,21.56-12.13v-5.38c0-6.29-2.7-9.44-8.09-9.44C780.76,243.56,774.47,251.65,771.6,263.11z"/>
		<path class="st0" d="M836.75,231.02l1.23,1.26l-1.23,12.51v11.25v2.5v1.26c-0.84,4.99-2.09,7.49-3.76,7.49h-2.5
			c0-4.48-5.42-11.15-16.27-20h-1.26l3.76,26.25l-1.24,1.26h-1.26c-4.17-6.8-6.25-15.56-6.25-26.28v-9.99l2.5-2.52h2.5
			c10.02,9.18,15.03,14.6,15.03,16.27h2.5v-1.23C831.05,237.69,833.13,231.02,836.75,231.02z"/>
		<path class="st0" d="M845.91,264.65l2.25,3.38v1.12c0,2.27-3.38,4.15-10.15,5.65l-2.25-2.25v-1.12
			C835.76,269.54,839.15,267.28,845.91,264.65z M850.41,230.83l-7.87,30.45h-3.4c0.57-10.04,3.58-20.19,9.03-30.45H850.41z"/>
	</g>
	<g>
		<path d="M490.32,225.04l7.9,6.31l-3.15,3.16l-9.46-3.16c-4.85,1.28-10.11,7.07-15.8,17.37v12.62h11.06l14.21-9.47l3.15,3.16
			c0,5.25-8.42,9.99-25.27,14.21c-5.54,0-8.7-5.26-9.46-15.77C468.76,234.51,477.7,225.04,490.32,225.04z"/>
		<path d="M525.08,227.92h5.38c5.39,4.15,8.09,10.88,8.09,20.19c-5.67,12.58-15.55,18.87-29.63,18.87
			c-4.5-4.64-6.75-8.69-6.75-12.13v-1.34C508.59,236.45,516.23,227.92,525.08,227.92z M506.2,257.55l4.06,2.69h1.34
			c8.6,0,15.78-4.04,21.56-12.13v-5.38c0-6.29-2.7-9.44-8.09-9.44C515.37,238,509.07,246.08,506.2,257.55z"/>
		<path d="M549.93,226.69h1.37c2.87,0,6.98,7.76,12.32,23.29c1.43,0,5.54-5.94,12.34-17.83l4.09-2.72h1.37
			c3.4,0,7.52,11.41,12.34,34.24v1.37l-2.74,2.74h-1.37c-2.03,0-5.23-9.13-9.6-27.4c-2.54,1.24-7.11,8.55-13.69,21.92h-2.74
			c-2.74,0-5.94-6.39-9.6-19.17h-2.72c-1.83,13.7-4.11,20.55-6.86,20.55l-2.74-2.74v-5.46C541.7,245.51,544.44,235.92,549.93,226.69
			z"/>
		<path d="M601.04,229.29l2.94,3.43l-1.23,16.98l0.88,17.17l-2.28,1.98c-3.33-3.2-4.79-7.58-4.39-13.14l1.78-24.44L601.04,229.29z"
			/>
		<path d="M634.37,225.45l1.23,1.26l-1.23,12.51v11.25v2.5v1.26c-0.84,4.99-2.09,7.49-3.76,7.49h-2.5c0-4.48-5.42-11.15-16.27-20
			h-1.26l3.76,26.25l-1.23,1.26h-1.26c-4.17-6.8-6.25-15.56-6.25-26.28v-9.99l2.5-2.52h2.5c10.02,9.18,15.03,14.6,15.03,16.27h2.5
			v-1.23C628.66,232.13,630.75,225.45,634.37,225.45z"/>
		<path d="M664.41,225.07h4.55v3.02c-18.2,11.72-27.3,21.33-27.3,28.83l4.55,4.56h6.06c11.12-3.04,16.68-6.07,16.68-9.11h-3.02
			l-19.72,3.02v-1.51c0-3.64,8.6-7.18,25.79-10.62c4.04,1.52,6.06,3.03,6.06,4.55v4.56c-9.73,11.12-18.33,16.68-25.79,16.68h-4.55
			h-1.51c-7.08-2.03-10.62-6.07-10.62-12.13C635.6,243.6,645.2,232.99,664.41,225.07z"/>
		<path d="M709.64,227.45h4.39c1.9,0,2.82,1.42,2.74,4.25c-12.34,1.21-18.31,5.62-17.89,13.25c15.56,0,23.34,2.26,23.34,6.78v2.85
			c-2.21,9.4-7.77,14.1-16.68,14.1l-3.81-5.08c9.14,0.17,14.39-3.46,15.75-10.89l-10.73-1.54h-8.56l-4.06-4.06v-8.37
			C699.5,231.22,704.67,227.45,709.64,227.45z"/>
		<path d="M749.45,227.92h5.38c5.4,4.15,8.09,10.88,8.09,20.19c-5.67,12.58-15.55,18.87-29.63,18.87c-4.5-4.64-6.75-8.69-6.75-12.13
			v-1.34C732.96,236.45,740.6,227.92,749.45,227.92z M730.58,257.55l4.06,2.69h1.34c8.6,0,15.78-4.04,21.56-12.13v-5.38
			c0-6.29-2.7-9.44-8.09-9.44C739.74,238,733.45,246.08,730.58,257.55z"/>
		<path d="M786.43,227.92h5.38c5.4,4.15,8.09,10.88,8.09,20.19c-5.67,12.58-15.55,18.87-29.63,18.87c-4.5-4.64-6.75-8.69-6.75-12.13
			v-1.34C769.94,236.45,777.58,227.92,786.43,227.92z M767.55,257.55l4.06,2.69h1.34c8.6,0,15.78-4.04,21.56-12.13v-5.38
			c0-6.29-2.7-9.44-8.09-9.44C776.72,238,770.43,246.08,767.55,257.55z"/>
		<path d="M832.71,225.45l1.23,1.26l-1.23,12.51v11.25v2.5v1.26c-0.84,4.99-2.09,7.49-3.76,7.49h-2.5c0-4.48-5.42-11.15-16.27-20
			h-1.26l3.76,26.25l-1.24,1.26h-1.26c-4.17-6.8-6.25-15.56-6.25-26.28v-9.99l2.5-2.52h2.5c10.02,9.18,15.03,14.6,15.03,16.27h2.5
			v-1.23C827,232.13,829.09,225.45,832.71,225.45z"/>
		<path d="M841.87,259.08l2.25,3.38v1.12c0,2.27-3.38,4.15-10.15,5.65l-2.25-2.25v-1.12C831.72,263.98,835.1,261.72,841.87,259.08z
			 M846.37,225.26l-7.87,30.45h-3.4c0.57-10.04,3.58-20.19,9.03-30.45H846.37z"/>
	</g>
	<g>
		<path class="st1" d="M485.95,216.28l7.9,6.31l-3.15,3.16l-9.46-3.16c-4.85,1.28-10.11,7.07-15.8,17.37v12.62h11.06l14.21-9.47
			l3.15,3.16c0,5.25-8.42,9.99-25.27,14.21c-5.54,0-8.7-5.26-9.46-15.77C464.39,225.76,473.33,216.28,485.95,216.28z"/>
		<path class="st1" d="M520.71,219.16h5.38c5.39,4.15,8.09,10.88,8.09,20.19c-5.67,12.58-15.55,18.87-29.63,18.87
			c-4.5-4.64-6.75-8.69-6.75-12.13v-1.34C504.22,227.7,511.86,219.16,520.71,219.16z M501.83,248.79l4.06,2.69h1.34
			c8.6,0,15.78-4.04,21.56-12.13v-5.38c0-6.29-2.7-9.44-8.09-9.44C511,229.24,504.71,237.32,501.83,248.79z"/>
		<path class="st1" d="M545.56,217.93h1.37c2.87,0,6.98,7.76,12.32,23.29c1.43,0,5.54-5.94,12.34-17.83l4.09-2.72h1.37
			c3.4,0,7.52,11.41,12.34,34.24v1.37l-2.74,2.74h-1.37c-2.03,0-5.23-9.13-9.6-27.4c-2.54,1.24-7.11,8.55-13.69,21.92h-2.74
			c-2.74,0-5.94-6.39-9.6-19.17h-2.72c-1.83,13.7-4.11,20.55-6.86,20.55l-2.74-2.74v-5.46
			C537.33,236.76,540.08,227.16,545.56,217.93z"/>
		<path class="st1" d="M596.67,220.54l2.94,3.43l-1.23,16.98l0.88,17.17l-2.28,1.98c-3.33-3.2-4.79-7.58-4.39-13.14l1.78-24.44
			L596.67,220.54z"/>
		<path class="st1" d="M630,216.7l1.23,1.26L630,230.47v11.25v2.5v1.26c-0.84,4.99-2.09,7.49-3.76,7.49h-2.5
			c0-4.48-5.42-11.15-16.27-20h-1.26l3.76,26.25l-1.23,1.26h-1.26c-4.17-6.8-6.25-15.56-6.25-26.28v-9.99l2.5-2.52h2.5
			c10.02,9.18,15.03,14.6,15.03,16.27h2.5v-1.23C624.29,223.37,626.38,216.7,630,216.7z"/>
		<path class="st1" d="M660.04,216.31h4.55v3.02c-18.2,11.72-27.3,21.33-27.3,28.83l4.55,4.56h6.06
			c11.12-3.04,16.68-6.07,16.68-9.11h-3.02l-19.72,3.02v-1.51c0-3.64,8.6-7.18,25.79-10.62c4.04,1.52,6.06,3.03,6.06,4.55v4.56
			c-9.73,11.12-18.33,16.68-25.79,16.68h-4.55h-1.51c-7.08-2.03-10.62-6.07-10.62-12.13C631.23,234.85,640.84,224.23,660.04,216.31z
			"/>
		<path class="st1" d="M705.27,218.7h4.39c1.9,0,2.82,1.42,2.74,4.25c-12.34,1.21-18.31,5.62-17.89,13.25
			c15.56,0,23.35,2.26,23.35,6.78v2.85c-2.21,9.4-7.77,14.1-16.68,14.1l-3.81-5.08c9.15,0.17,14.39-3.46,15.75-10.89l-10.73-1.54
			h-8.56l-4.06-4.06V230C695.13,222.47,700.3,218.7,705.27,218.7z"/>
		<path class="st1" d="M745.08,219.16h5.38c5.39,4.15,8.09,10.88,8.09,20.19c-5.67,12.58-15.55,18.87-29.63,18.87
			c-4.5-4.64-6.75-8.69-6.75-12.13v-1.34C728.59,227.7,736.23,219.16,745.08,219.16z M726.21,248.79l4.06,2.69h1.34
			c8.6,0,15.78-4.04,21.56-12.13v-5.38c0-6.29-2.7-9.44-8.09-9.44C735.37,229.24,729.08,237.32,726.21,248.79z"/>
		<path class="st1" d="M782.06,219.16h5.38c5.39,4.15,8.09,10.88,8.09,20.19c-5.67,12.58-15.55,18.87-29.63,18.87
			c-4.5-4.64-6.75-8.69-6.75-12.13v-1.34C765.57,227.7,773.21,219.16,782.06,219.16z M763.19,248.79l4.06,2.69h1.34
			c8.6,0,15.78-4.04,21.56-12.13v-5.38c0-6.29-2.7-9.44-8.09-9.44C772.35,229.24,766.06,237.32,763.19,248.79z"/>
		<path class="st1" d="M828.34,216.7l1.23,1.26l-1.23,12.51v11.25v2.5v1.26c-0.84,4.99-2.09,7.49-3.76,7.49h-2.5
			c0-4.48-5.42-11.15-16.27-20h-1.26l3.76,26.25l-1.23,1.26h-1.26c-4.17-6.8-6.25-15.56-6.25-26.28v-9.99l2.5-2.52h2.5
			c10.02,9.18,15.03,14.6,15.03,16.27h2.5v-1.23C822.63,223.37,824.72,216.7,828.34,216.7z"/>
		<path class="st1" d="M837.5,250.33l2.25,3.37v1.12c0,2.27-3.38,4.15-10.15,5.65l-2.25-2.25v-1.12
			C827.35,255.22,830.73,252.96,837.5,250.33z M842,216.5l-7.87,30.45h-3.4c0.57-10.04,3.57-20.19,9.03-30.45H842z"/>
	</g>
</g>
<g>
	<g>
		<path class="st0" d="M442.8,386.16c2.3,0,4.21,13.03,5.75,39.1l-1.15,1.15h-1.15c-2.3,0-3.45-6.9-3.45-20.71v-6.9
			c-1.92,0.97-5.76,9.02-11.52,24.16h-2.3c-1.8,0-2.95-2.68-3.45-8.05l-1.15-1.15c-0.5-5.38-1.65-8.07-3.45-8.07
			c-0.98,13.81-2.52,20.71-4.6,20.71h-2.3v-1.15c2.76-24.54,5.06-36.8,6.9-36.8c2.9,4.5,5.58,12.55,8.05,24.16h2.3L442.8,386.16z"/>
		<path class="st0" d="M475.93,385.41l2.65,2.65v2.65c-13.86,3.86-20.66,6.14-20.41,6.82l-0.75,5.07v1.32l15.86-5.3l2.65,2.65v2.65
			l-18.51,5.3v9.62l15.86-4.32l2.65,2.62v2.65l-21.91,6.97l-1.9-1.52l-0.98-3.55l0.98-1.9l-0.43-10.57
			c0.77-14.59,2.86-20.34,6.27-17.24l4.72-1.27L475.93,385.41z"/>
		<path class="st0" d="M504.14,385.41l2.65,2.65v2.65c-13.86,3.86-20.66,6.14-20.41,6.82l-0.75,5.07v1.32l15.87-5.3l2.65,2.65v2.65
			l-18.51,5.3v9.62l15.87-4.32l2.65,2.62v2.65l-21.91,6.97l-1.9-1.52l-0.97-3.55l0.97-1.9l-0.42-10.57
			c0.77-14.59,2.86-20.34,6.27-17.24l4.72-1.27L504.14,385.41z"/>
		<path class="st0" d="M538.57,386.09l3.22,3.22c-3.47,2.58-8.3,4.2-14.52,4.85v9.67l1.6,17.74l-1.6,4.85h-3.22l-3.22-29.03v-1.62
			l-11.29,1.62l-1.62-1.62v-1.6C507.91,390.51,518.13,387.82,538.57,386.09z"/>
		<path class="st0" d="M586.66,386.09l3.22,3.22c-3.47,2.58-8.3,4.2-14.52,4.85v9.67l1.6,17.74l-1.6,4.85h-3.22l-3.22-29.03v-1.62
			l-11.29,1.62l-1.62-1.62v-1.6C556.01,390.51,566.22,387.82,586.66,386.09z"/>
		<path class="st0" d="M614.14,386.54l2.77,2.77v6.5l-0.93,3.72l0.93,0.93v0.92l-0.93,9.27l1.85,14.84l-0.92,0.93h-0.93
			c-1.95-1.33-3.81-7.51-5.57-18.54h-0.93c-6.85,2.4-10.55,4.25-11.12,5.55v3.72l1.85,2.77c0,3.22-0.93,5.07-2.77,5.57
			c-2.12,0-3.66-6.18-4.65-18.54l0.93-17.64l2.77-1.85c1.25,0,1.87,0.92,1.87,2.77l-0.93,9.29l0.93,0.93v0.92l-0.93,3.7l0.93,0.92
			c8.64-2.05,12.97-3.59,12.97-4.62C611.35,391.48,612.28,386.54,614.14,386.54z"/>
		<path class="st0" d="M646.5,385.41l2.65,2.65v2.65c-13.86,3.86-20.66,6.14-20.41,6.82l-0.75,5.07v1.32l15.87-5.3l2.65,2.65v2.65
			l-18.51,5.3v9.62l15.87-4.32l2.65,2.62v2.65l-21.91,6.97l-1.9-1.52l-0.97-3.55l0.97-1.9l-0.42-10.57
			c0.77-14.59,2.86-20.34,6.27-17.24l4.72-1.27L646.5,385.41z"/>
		<path class="st0" d="M697.87,386.09l3.22,3.22c-3.47,2.58-8.3,4.2-14.52,4.85v9.67l1.6,17.74l-1.6,4.85h-3.22l-3.22-29.03v-1.62
			l-11.29,1.62l-1.62-1.62v-1.6C667.21,390.51,677.43,387.82,697.87,386.09z"/>
		<path class="st0" d="M720.91,385.41l2.65,2.65v2.65c-13.86,3.86-20.66,6.14-20.41,6.82l-0.75,5.07v1.32l15.87-5.3l2.65,2.65v2.65
			l-18.51,5.3v9.62l15.87-4.32l2.65,2.62v2.65l-21.91,6.97l-1.9-1.52l-0.97-3.55l0.97-1.9l-0.42-10.57
			c0.77-14.59,2.86-20.34,6.27-17.24l4.72-1.27L720.91,385.41z"/>
		<path class="st0" d="M736.27,386.36c2.88,0,5.05,6.5,6.5,19.49l1.08,3.25c2.16,0,3.25,0.72,3.25,2.15l-1.1,1.1v1.07
			c2.16,3.7,3.25,7.3,3.25,10.82v2.17h-2.15c-1.78,0-3.59-3.97-5.42-11.92h-9.74c-2.17,0.47-3.25,3.36-3.25,8.67l-3.25,2.17
			l-1.07-1.1v-1.08l9.74-32.48C734.1,387.8,734.82,386.36,736.27,386.36z M735.17,399.36l-3.25,10.82h5.42l1.07-1.08h1.1
			C737.9,402.6,736.45,399.36,735.17,399.36z"/>
		<path class="st0" d="M759.98,387.66h1.25c2.61,0,6.35,7.07,11.22,21.21c1.3,0,5.05-5.41,11.24-16.24l3.72-2.47h1.25
			c3.1,0,6.85,10.39,11.24,31.18v1.25l-2.5,2.5h-1.25c-1.85,0-4.76-8.32-8.74-24.96c-2.32,1.13-6.47,7.79-12.47,19.96h-2.5
			c-2.5,0-5.41-5.82-8.74-17.46h-2.47c-1.67,12.48-3.75,18.71-6.25,18.71l-2.5-2.5v-4.97C752.49,404.81,754.98,396.07,759.98,387.66
			z"/>
	</g>
	<g>
		<path d="M440.04,382.37c2.3,0,4.21,13.03,5.75,39.1l-1.15,1.15h-1.15c-2.3,0-3.45-6.9-3.45-20.71v-6.9
			c-1.92,0.97-5.76,9.02-11.52,24.16h-2.3c-1.8,0-2.95-2.68-3.45-8.05l-1.15-1.15c-0.5-5.38-1.65-8.07-3.45-8.07
			c-0.98,13.81-2.52,20.71-4.6,20.71h-2.3v-1.15c2.76-24.54,5.06-36.8,6.9-36.8c2.9,4.5,5.58,12.55,8.05,24.16h2.3L440.04,382.37z"
			/>
		<path d="M473.17,381.61l2.65,2.65v2.65c-13.86,3.86-20.66,6.14-20.41,6.82l-0.75,5.07v1.32l15.86-5.3l2.65,2.65v2.65l-18.51,5.3
			v9.62l15.86-4.32l2.65,2.62v2.65l-21.91,6.97l-1.9-1.52l-0.98-3.55l0.98-1.9l-0.43-10.57c0.77-14.59,2.86-20.34,6.27-17.24
			l4.72-1.27L473.17,381.61z"/>
		<path d="M501.38,381.61l2.65,2.65v2.65c-13.86,3.86-20.66,6.14-20.41,6.82l-0.75,5.07v1.32l15.87-5.3l2.65,2.65v2.65l-18.51,5.3
			v9.62l15.87-4.32l2.65,2.62v2.65l-21.91,6.97l-1.9-1.52l-0.97-3.55l0.97-1.9l-0.42-10.57c0.77-14.59,2.86-20.34,6.27-17.24
			l4.72-1.27L501.38,381.61z"/>
		<path d="M535.81,382.29l3.22,3.22c-3.47,2.58-8.3,4.2-14.52,4.85v9.67l1.6,17.74l-1.6,4.85h-3.22l-3.22-29.03v-1.62l-11.29,1.62
			l-1.62-1.62v-1.6C505.15,386.71,515.37,384.02,535.81,382.29z"/>
		<path d="M583.9,382.29l3.22,3.22c-3.47,2.58-8.3,4.2-14.52,4.85v9.67l1.6,17.74l-1.6,4.85h-3.22l-3.22-29.03v-1.62l-11.29,1.62
			l-1.62-1.62v-1.6C553.25,386.71,563.47,384.02,583.9,382.29z"/>
		<path d="M611.39,382.74l2.77,2.77v6.5l-0.93,3.72l0.93,0.93v0.92l-0.93,9.27l1.85,14.84l-0.92,0.93h-0.93
			c-1.95-1.33-3.81-7.51-5.57-18.54h-0.93c-6.85,2.4-10.55,4.25-11.12,5.55v3.72l1.85,2.77c0,3.22-0.93,5.07-2.77,5.57
			c-2.12,0-3.66-6.18-4.65-18.54l0.93-17.64l2.77-1.85c1.25,0,1.87,0.92,1.87,2.77l-0.93,9.29l0.93,0.93v0.92l-0.93,3.7l0.93,0.92
			c8.64-2.05,12.97-3.59,12.97-4.62C608.59,387.69,609.52,382.74,611.39,382.74z"/>
		<path d="M643.74,381.61l2.65,2.65v2.65c-13.86,3.86-20.66,6.14-20.41,6.82l-0.75,5.07v1.32l15.87-5.3l2.65,2.65v2.65l-18.51,5.3
			v9.62l15.87-4.32l2.65,2.62v2.65l-21.91,6.97l-1.9-1.52l-0.97-3.55l0.97-1.9l-0.42-10.57c0.77-14.59,2.86-20.34,6.27-17.24
			l4.72-1.27L643.74,381.61z"/>
		<path d="M695.11,382.29l3.22,3.22c-3.47,2.58-8.3,4.2-14.52,4.85v9.67l1.6,17.74l-1.6,4.85h-3.22l-3.22-29.03v-1.62l-11.29,1.62
			l-1.62-1.62v-1.6C664.45,386.71,674.67,384.02,695.11,382.29z"/>
		<path d="M718.15,381.61l2.65,2.65v2.65c-13.86,3.86-20.66,6.14-20.41,6.82l-0.75,5.07v1.32l15.87-5.3l2.65,2.65v2.65l-18.51,5.3
			v9.62l15.87-4.32l2.65,2.62v2.65l-21.91,6.97l-1.9-1.52l-0.97-3.55l0.97-1.9l-0.42-10.57c0.77-14.59,2.86-20.34,6.27-17.24
			l4.72-1.27L718.15,381.61z"/>
		<path d="M733.51,382.57c2.88,0,5.05,6.5,6.5,19.49l1.08,3.25c2.16,0,3.25,0.72,3.25,2.15l-1.1,1.1v1.07
			c2.16,3.7,3.25,7.3,3.25,10.82v2.17h-2.15c-1.78,0-3.59-3.97-5.42-11.92h-9.74c-2.17,0.47-3.25,3.36-3.25,8.67l-3.25,2.17
			l-1.07-1.1v-1.08l9.74-32.48C731.34,384.01,732.06,382.57,733.51,382.57z M732.41,395.56l-3.25,10.82h5.42l1.07-1.08h1.1
			C735.14,398.8,733.69,395.56,732.41,395.56z"/>
		<path d="M757.22,383.86h1.25c2.61,0,6.35,7.07,11.22,21.21c1.3,0,5.05-5.41,11.24-16.24l3.72-2.47h1.25
			c3.1,0,6.85,10.39,11.24,31.18v1.25l-2.5,2.5h-1.25c-1.85,0-4.76-8.32-8.74-24.96c-2.32,1.13-6.47,7.79-12.47,19.96h-2.5
			c-2.5,0-5.41-5.82-8.74-17.46h-2.47c-1.67,12.48-3.75,18.71-6.25,18.71l-2.5-2.5v-4.97C749.73,401.01,752.23,392.28,757.22,383.86
			z"/>
	</g>
	<g>
		<path class="st1" d="M437.06,376.39c2.3,0,4.21,13.03,5.75,39.1l-1.15,1.15h-1.15c-2.3,0-3.45-6.9-3.45-20.71v-6.9
			c-1.92,0.97-5.76,9.02-11.52,24.16h-2.3c-1.8,0-2.95-2.68-3.45-8.05l-1.15-1.15c-0.5-5.38-1.65-8.07-3.45-8.07
			c-0.98,13.81-2.52,20.71-4.6,20.71h-2.3v-1.15c2.77-24.54,5.06-36.8,6.9-36.8c2.9,4.5,5.58,12.55,8.05,24.16h2.3L437.06,376.39z"
			/>
		<path class="st1" d="M470.19,375.64l2.65,2.65v2.65c-13.86,3.86-20.66,6.14-20.41,6.82l-0.75,5.07v1.32l15.87-5.3l2.65,2.65v2.65
			l-18.51,5.3v9.62l15.87-4.32l2.65,2.62v2.65l-21.91,6.97l-1.9-1.52l-0.97-3.55l0.97-1.9l-0.42-10.57
			c0.77-14.59,2.86-20.34,6.27-17.24l4.72-1.27L470.19,375.64z"/>
		<path class="st1" d="M498.4,375.64l2.65,2.65v2.65c-13.86,3.86-20.66,6.14-20.41,6.82l-0.75,5.07v1.32l15.86-5.3l2.65,2.65v2.65
			l-18.51,5.3v9.62l15.86-4.32l2.65,2.62v2.65l-21.91,6.97l-1.9-1.52l-0.98-3.55l0.98-1.9l-0.43-10.57
			c0.77-14.59,2.86-20.34,6.27-17.24l4.72-1.27L498.4,375.64z"/>
		<path class="st1" d="M532.83,376.32l3.22,3.22c-3.47,2.58-8.3,4.2-14.52,4.85v9.67l1.6,17.74l-1.6,4.85h-3.22l-3.22-29.03v-1.62
			l-11.29,1.62l-1.62-1.62v-1.6C502.17,380.74,512.39,378.05,532.83,376.32z"/>
		<path class="st1" d="M580.92,376.32l3.22,3.22c-3.47,2.58-8.3,4.2-14.52,4.85v9.67l1.6,17.74l-1.6,4.85h-3.22l-3.22-29.03v-1.62
			l-11.29,1.62l-1.62-1.62v-1.6C550.27,380.74,560.49,378.05,580.92,376.32z"/>
		<path class="st1" d="M608.41,376.77l2.77,2.77v6.5l-0.92,3.72l0.92,0.93v0.92l-0.92,9.27l1.85,14.84l-0.93,0.93h-0.92
			c-1.95-1.33-3.81-7.51-5.57-18.54h-0.92c-6.85,2.4-10.55,4.25-11.12,5.55v3.72l1.85,2.77c0,3.22-0.92,5.07-2.77,5.57
			c-2.12,0-3.66-6.18-4.65-18.54l0.92-17.64l2.77-1.85c1.25,0,1.87,0.92,1.87,2.77l-0.92,9.29l0.92,0.93v0.92l-0.92,3.7l0.92,0.92
			c8.64-2.05,12.97-3.59,12.97-4.62C605.61,381.71,606.54,376.77,608.41,376.77z"/>
		<path class="st1" d="M640.76,375.64l2.65,2.65v2.65c-13.86,3.86-20.66,6.14-20.41,6.82l-0.75,5.07v1.32l15.86-5.3l2.65,2.65v2.65
			l-18.51,5.3v9.62l15.86-4.32l2.65,2.62v2.65l-21.91,6.97l-1.9-1.52l-0.98-3.55l0.98-1.9l-0.43-10.57
			c0.77-14.59,2.86-20.34,6.27-17.24l4.72-1.27L640.76,375.64z"/>
		<path class="st1" d="M692.13,376.32l3.22,3.22c-3.47,2.58-8.3,4.2-14.52,4.85v9.67l1.6,17.74l-1.6,4.85h-3.22l-3.22-29.03v-1.62
			l-11.29,1.62l-1.62-1.62v-1.6C661.47,380.74,671.69,378.05,692.13,376.32z"/>
		<path class="st1" d="M715.17,375.64l2.65,2.65v2.65c-13.86,3.86-20.66,6.14-20.41,6.82l-0.75,5.07v1.32l15.86-5.3l2.65,2.65v2.65
			l-18.51,5.3v9.62l15.86-4.32l2.65,2.62v2.65l-21.91,6.97l-1.9-1.52l-0.98-3.55l0.98-1.9l-0.43-10.57
			c0.77-14.59,2.86-20.34,6.27-17.24l4.72-1.27L715.17,375.64z"/>
		<path class="st1" d="M730.53,376.59c2.88,0,5.05,6.5,6.5,19.49l1.07,3.25c2.17,0,3.25,0.72,3.25,2.15l-1.1,1.1v1.07
			c2.17,3.7,3.25,7.3,3.25,10.82v2.17h-2.15c-1.78,0-3.59-3.97-5.42-11.92h-9.74c-2.17,0.47-3.25,3.36-3.25,8.67l-3.25,2.17
			l-1.08-1.1v-1.08l9.74-32.48C728.36,378.03,729.08,376.59,730.53,376.59z M729.43,389.59l-3.25,10.82h5.42l1.08-1.08h1.1
			C732.16,392.83,730.71,389.59,729.43,389.59z"/>
		<path class="st1" d="M754.24,377.89h1.25c2.62,0,6.35,7.07,11.22,21.21c1.3,0,5.05-5.41,11.24-16.24l3.72-2.47h1.25
			c3.1,0,6.85,10.39,11.24,31.18v1.25l-2.5,2.5h-1.25c-1.85,0-4.76-8.32-8.74-24.96c-2.32,1.13-6.47,7.79-12.47,19.96h-2.5
			c-2.5,0-5.41-5.82-8.74-17.46h-2.47c-1.67,12.48-3.75,18.71-6.25,18.71l-2.5-2.5v-4.97C746.75,395.04,749.24,386.3,754.24,377.89z
			"/>
	</g>
</g>
<g>
</g>
<g>
</g>
<g>
</g>
<g>
</g>
<g>
</g>
<g>
</g>
</svg>
