<?xml version="1.0" encoding="utf-8"?>
<!-- Generator: Adobe Illustrator 26.5.0, SVG Export Plug-In . SVG Version: 6.00 Build 0)  -->
<svg version="1.1" id="softwareService" xmlns="http://www.w3.org/2000/svg" xmlns:xlink="http://www.w3.org/1999/xlink" x="0px"
	 y="0px" viewBox="0 0 824.56 481.89" style="enable-background:new 0 0 824.56 481.89;" xml:space="preserve">
<style type="text/css">
	.st0{fill:#0066B3;}
	.st1{fill:#FFFFFF;}
	.st2{fill-rule:evenodd;clip-rule:evenodd;fill:#FFFFFF;}
</style>
<g>
	<path class="st0" d="M481.35,258.7c-1.53-1.12-3.55-2.25-5.44-2.25c-3.15,0-4.91,1.84-4.91,4.27c0,2.25,1.94,3.92,5.99,6.84
		c4.32,3.15,6.84,6.03,6.84,10.08c0,4.99-4.72,8.23-9.76,8.23c-3.02,0-6.62-1.08-8.87-3.29l1.93-2.61c1.85,1.3,3.87,2.74,6.84,2.74
		c3.11,0,5.49-1.66,5.49-5.17c0-3.96-4.72-6.52-7.29-8.41c-2.61-2.03-5.53-3.96-5.53-8.42c0-4.23,4.09-7.42,9-7.42
		c3.29,0,6.03,1.17,7.79,3.15L481.35,258.7z"/>
	<path class="st0" d="M489.76,269.05c0-8.82,6.66-15.75,15.75-15.75s15.75,6.93,15.75,15.75c0,9.4-6.03,16.83-15.75,16.83
		S489.76,278.45,489.76,269.05z M516.45,269.05c0-5.9-3.15-12.6-10.93-12.6c-7.78,0-10.93,6.7-10.93,12.6
		c0,6.16,2.79,13.68,10.93,13.68S516.45,275.21,516.45,269.05z"/>
	<path class="st0" d="M544.12,256.99h-11.16v11.97h10.93v3.15h-10.93v13.23h-4.36v-31.5h15.52V256.99z"/>
	<path class="st0" d="M558.16,285.33v-28.35h-10.08v-3.15h24.57v3.15h-10.12v28.35H558.16z"/>
	<path class="st0" d="M597.09,253.84c2.56,8.5,5.13,17.01,7.65,26.59h0.09c2.56-9.72,5.13-18.4,7.74-27.04l3.51,0.63l-9.76,31.32
		h-3.87c-2.52-8.37-5-16.74-7.47-26.01h-0.09c-2.48,9.27-5.04,17.64-7.56,26.01h-3.87l-9.27-31.05l4.14-0.9
		c2.47,8.64,4.95,17.32,7.38,27.04h0.09c2.52-9.58,5.13-18.09,7.69-26.59H597.09z"/>
	<path class="st0" d="M633.36,253.84l11.74,31.5h-5.04l-3.24-9.27h-12.01l-3.38,9.27h-4.23l12.82-31.5H633.36z M635.79,272.92
		c-1.58-4.36-3.1-8.73-4.68-14.4h-0.09c-1.62,5.67-3.29,10.04-5,14.4H635.79z"/>
	<path class="st0" d="M650.1,253.84h9c5.13,0,9.13,2.66,9.13,8.1c0,4.63-2.25,7.25-5.26,9.18l7.83,13.41l-4.41,1.35l-7.29-13.59
		h-4.63v13.05h-4.36V253.84z M654.46,269.14h2.47c5.58,0,6.62-4.14,6.62-6.79c0-3.87-2.43-5.35-5.35-5.35h-3.74V269.14z"/>
	<path class="st0" d="M692.04,256.99h-11.16v10.17h10.93v3.15h-10.93v11.88h13.09v3.15h-17.46v-31.5h15.52V256.99z"/>
	<path class="st0" d="M481.35,310.7c-1.53-1.12-3.55-2.25-5.44-2.25c-3.15,0-4.91,1.84-4.91,4.27c0,2.25,1.94,3.92,5.99,6.84
		c4.32,3.15,6.84,6.03,6.84,10.08c0,4.99-4.72,8.23-9.76,8.23c-3.02,0-6.62-1.08-8.87-3.29l1.93-2.61c1.85,1.3,3.87,2.74,6.84,2.74
		c3.11,0,5.49-1.66,5.49-5.17c0-3.96-4.72-6.52-7.29-8.41c-2.61-2.03-5.53-3.96-5.53-8.42c0-4.23,4.09-7.42,9-7.42
		c3.29,0,6.03,1.17,7.79,3.15L481.35,310.7z"/>
	<path class="st0" d="M507.76,308.99H496.6v10.17h10.93v3.15H496.6v11.88h13.09v3.15h-17.46v-31.5h15.52V308.99z"/>
	<path class="st0" d="M516.85,305.84h9c5.13,0,9.13,2.66,9.13,8.1c0,4.63-2.25,7.25-5.26,9.18l7.83,13.41l-4.41,1.35l-7.29-13.59
		h-4.63v13.05h-4.36V305.84z M521.22,321.14h2.47c5.58,0,6.62-4.14,6.62-6.79c0-3.87-2.43-5.35-5.35-5.35h-3.74V321.14z"/>
	<path class="st0" d="M551.77,337.33l-11.65-31.14l4.45-0.81c3.06,8.59,6.08,17.23,9.09,26.91h0.09c3.15-9.67,6.39-18.31,9.58-26.91
		l3.92,0.54l-12.55,31.41H551.77z"/>
	<path class="st0" d="M573.06,337.33v-31.5h4.36v31.5H573.06z"/>
	<path class="st0" d="M611.04,311.19c-1.49-1.21-4.86-2.75-8.23-2.75c-7.79,0-12.38,5.58-12.38,12.96c0,7.96,5.49,13.32,12.38,13.32
		c3.42,0,6.12-1.08,7.96-2.34l1.71,2.61c-2.11,1.44-5.85,2.88-9.9,2.88c-11.25,0-16.96-7.69-16.96-16.38c0-7.92,6.21-16.2,17.5-16.2
		c4.5,0,7.65,1.58,9.72,3.2L611.04,311.19z"/>
	<path class="st0" d="M635.79,308.99h-11.16v10.17h10.93v3.15h-10.93v11.88h13.09v3.15h-17.46v-31.5h15.52V308.99z"/>
	<path class="st0" d="M659.64,310.7c-1.53-1.12-3.55-2.25-5.44-2.25c-3.15,0-4.91,1.84-4.91,4.27c0,2.25,1.94,3.92,5.99,6.84
		c4.32,3.15,6.84,6.03,6.84,10.08c0,4.99-4.72,8.23-9.76,8.23c-3.02,0-6.62-1.08-8.87-3.29l1.94-2.61c1.84,1.3,3.87,2.74,6.84,2.74
		c3.11,0,5.49-1.66,5.49-5.17c0-3.96-4.72-6.52-7.29-8.41c-2.61-2.03-5.53-3.96-5.53-8.42c0-4.23,4.09-7.42,9-7.42
		c3.29,0,6.03,1.17,7.79,3.15L659.64,310.7z"/>
</g>
<g>
	<g>
		<path class="st1" d="M105.32,276.1h11.51v33.94c0,11.21,6.7,17.93,15.49,17.93c8.89,0,15.49-6.72,15.49-17.93V276.1h11.52v36.38
			c0,14.13-10.59,26.2-27.01,26.2c-16.42,0-27-12.07-27-26.2V276.1z"/>
	</g>
	<polygon class="st1" points="223.25,337.36 223.25,276.1 211.86,276.1 211.86,314.32 178.44,276.1 172.21,276.1 172.21,337.26 
		183.61,337.26 183.61,299.2 216.96,337.36 	"/>
	<g>
		<rect x="236.88" y="276.1" class="st1" width="11.82" height="61.16"/>
	</g>
	<path class="st2" d="M324.53,306.68c0-17.98-14.71-32.54-32.87-32.54c-18.15,0-32.86,14.57-32.86,32.54
		c0,17.97,14.72,32.54,32.86,32.54c6.91,0,13.31-2.11,18.6-5.71l5.36,5.36l7.5-7.49l-5.17-5.16
		C322.08,320.77,324.53,314.01,324.53,306.68z M291.67,329.01c-11.79,0-21.34-10-21.34-22.32c0-12.34,9.55-22.33,21.34-22.33
		c11.79,0,21.34,9.99,21.34,22.33c0,4.21-1.11,8.15-3.06,11.52l-7.07-7.07l-7.5,7.5l7.23,7.22
		C299.41,327.85,295.67,329.01,291.67,329.01z"/>
	<path class="st1" d="M373.02,337.26h12.61l-26.06-61.16h-7.92l-26.74,61.16h12.27l4.81-11.52h26.35L373.02,337.26z M346.2,315.68
		l9.19-22l8.91,22H346.2z"/>
	<g>
		<path class="st1" d="M202.75,244.94H134.3l7.85-13.98h40.21c1.76,1.63,3.6,3.18,5.5,4.65
			C192.36,239.07,197.36,242.32,202.75,244.94z"/>
		<path class="st1" d="M217.82,143.45c-2.21,1.86-16.35,29.35,1.04,53.54c4.91,6.82,12.07,15.14,20.47,20.01
			c8.74,5.07,14.58,6.36,18.32,7.37c6.6,1.79,16.82,2.54,29.99,3.25c10.66,0.58,32.49,0.7,36.3,0.69l4.06,0.02l9.35,17.81
			c0,0-31.72,0.14-46.46-0.66c-16.58-0.89-29.46-1.83-37.77-4.09c-4.72-1.28-12.07-2.9-23.07-9.28
			c-10.58-6.14-21.43-16.88-27.06-25.84c-13.57-21.61-10.17-36.13-8.38-43.25c3.87-5.37,8.87-10.52,14.27-14.35
			C212.78,145.85,215.23,144.75,217.82,143.45z"/>
		<path class="st1" d="M239.78,243.83c-4.03,0.77-7.96,1.13-11.62,1.12c-13.41-0.03-26.04-6.31-36.46-14.34
			c-12.51-9.62-21.66-23.02-23.97-37.6c-0.34-1.69-0.49-3.42-0.74-5.83c-0.93-9.99,0.5-22.53,7.51-34.55
			c6.06-10.38,15.09-19.37,29.96-25.6c6.21-2.6,19.54-5.51,34.97-1.42c16.22,4.46,30.38,14.53,39.5,27.73
			c0,0-13.98-18.17-37.91-20.25c-1.08-0.09-2.16-0.15-3.25-0.17c-11.82-0.23-23.12,3.83-32.54,10.6
			c-6.02,4.28-11.31,9.66-15.4,15.86c-0.23,0.34-0.95,1.41-1.91,3.11l-0.28,0.51c-0.2,0.37-0.41,0.75-0.63,1.17
			c-2.9,5.55-6.96,15.5-7.12,28.06c-0.2,16.18,7.05,27.84,9.77,31.78c0.07,0.1,6.82,4.67,17.03,6.61c4.14,0.79,8.04,0.92,11.37,0.83
			c2.8,2.26,5.76,4.34,8.82,6.11C231.84,240.43,236.12,242.4,239.78,243.83z"/>
		<path class="st1" d="M265.86,149.07c8.82,5.24,21.53,21.67,22.1,36.6c0.93,14.26-6.22,28.18-10.99,34.99
			c-7.74-0.56-13.6-1.25-17.67-2.36c-1.26-0.34-2.79-0.71-4.6-1.27c5.07-4.67,12.61-13.46,16.43-26.95
			C276.41,171.23,271.21,158.43,265.86,149.07z"/>
	</g>
</g>
<path class="st0" d="M77.12,60.85v337.32h669.95V60.85L77.12,60.85z M742.38,393.49H414.44V65.54h327.94V393.49z"/>
<g>
	<g>
		<path class="st1" d="M105.32,276.1h11.51v33.94c0,11.21,6.7,17.93,15.49,17.93c8.89,0,15.49-6.72,15.49-17.93V276.1h11.52v36.38
			c0,14.13-10.59,26.2-27.01,26.2c-16.42,0-27-12.07-27-26.2V276.1z"/>
	</g>
	<polygon class="st1" points="223.25,337.36 223.25,276.1 211.86,276.1 211.86,314.32 178.44,276.1 172.21,276.1 172.21,337.26 
		183.61,337.26 183.61,299.2 216.96,337.36 	"/>
	<g>
		<rect x="236.88" y="276.1" class="st1" width="11.82" height="61.16"/>
	</g>
	<path class="st2" d="M324.53,306.68c0-17.98-14.71-32.54-32.87-32.54c-18.15,0-32.86,14.57-32.86,32.54
		c0,17.97,14.72,32.54,32.86,32.54c6.91,0,13.31-2.11,18.6-5.71l5.36,5.36l7.5-7.49l-5.17-5.16
		C322.08,320.77,324.53,314.01,324.53,306.68z M291.67,329.01c-11.79,0-21.34-10-21.34-22.32c0-12.34,9.55-22.33,21.34-22.33
		c11.79,0,21.34,9.99,21.34,22.33c0,4.21-1.11,8.15-3.06,11.52l-7.07-7.07l-7.5,7.5l7.23,7.22
		C299.41,327.85,295.67,329.01,291.67,329.01z"/>
	<path class="st1" d="M373.02,337.26h12.61l-26.06-61.16h-7.92l-26.74,61.16h12.27l4.81-11.52h26.35L373.02,337.26z M346.2,315.68
		l9.19-22l8.91,22H346.2z"/>
	<g>
		<path class="st1" d="M202.75,244.94H134.3l7.85-13.98h40.21c1.76,1.63,3.6,3.18,5.5,4.65
			C192.36,239.07,197.36,242.32,202.75,244.94z"/>
		<path class="st1" d="M217.82,143.45c-2.21,1.86-16.35,29.35,1.04,53.54c4.91,6.82,12.07,15.14,20.47,20.01
			c8.74,5.07,14.58,6.36,18.32,7.37c6.6,1.79,16.82,2.54,29.99,3.25c10.66,0.58,32.49,0.7,36.3,0.69l4.06,0.02l9.35,17.81
			c0,0-31.72,0.14-46.46-0.66c-16.58-0.89-29.46-1.83-37.77-4.09c-4.72-1.28-12.07-2.9-23.07-9.28
			c-10.58-6.14-21.43-16.88-27.06-25.84c-13.57-21.61-10.17-36.13-8.38-43.25c3.87-5.37,8.87-10.52,14.27-14.35
			C212.78,145.85,215.23,144.75,217.82,143.45z"/>
		<path class="st1" d="M239.78,243.83c-4.03,0.77-7.96,1.13-11.62,1.12c-13.41-0.03-26.04-6.31-36.46-14.34
			c-12.51-9.62-21.66-23.02-23.97-37.6c-0.34-1.69-0.49-3.42-0.74-5.83c-0.93-9.99,0.5-22.53,7.51-34.55
			c6.06-10.38,15.09-19.37,29.96-25.6c6.21-2.6,19.54-5.51,34.97-1.42c16.22,4.46,30.38,14.53,39.5,27.73
			c0,0-13.98-18.17-37.91-20.25c-1.08-0.09-2.16-0.15-3.25-0.17c-11.82-0.23-23.12,3.83-32.54,10.6
			c-6.02,4.28-11.31,9.66-15.4,15.86c-0.23,0.34-0.95,1.41-1.91,3.11l-0.28,0.51c-0.2,0.37-0.41,0.75-0.63,1.17
			c-2.9,5.55-6.96,15.5-7.12,28.06c-0.2,16.18,7.05,27.84,9.77,31.78c0.07,0.1,6.82,4.67,17.03,6.61c4.14,0.79,8.04,0.92,11.37,0.83
			c2.8,2.26,5.76,4.34,8.82,6.11C231.84,240.43,236.12,242.4,239.78,243.83z"/>
		<path class="st1" d="M265.86,149.07c8.82,5.24,21.53,21.67,22.1,36.6c0.93,14.26-6.22,28.18-10.99,34.99
			c-7.74-0.56-13.6-1.25-17.67-2.36c-1.26-0.34-2.79-0.71-4.6-1.27c5.07-4.67,12.61-13.46,16.43-26.95
			C276.41,171.23,271.21,158.43,265.86,149.07z"/>
	</g>
</g>
</svg>
